Roman_opsz12_wght700.ufo
<glyph name="exclam" format="2">
	<unicode hex="0021"/>
	<advance width="684"/>
	<outline>
		<contour>
			<point x="342" y="434" type="curve" smooth="yes"/>
			<point x="380" y="434"/>
			<point x="382" y="440"/>
			<point x="386" y="478" type="curve" smooth="yes"/>
			<point x="418" y="727"/>
			<point x="450" y="976"/>
			<point x="482" y="1226" type="curve" smooth="yes"/>
			<point x="502" y="1368"/>
			<point x="419" y="1412"/>
			<point x="342" y="1412" type="curve" smooth="yes"/>
			<point x="264" y="1412"/>
			<point x="182" y="1366"/>
			<point x="202" y="1226" type="curve" smooth="yes"/>
			<point x="234" y="977"/>
			<point x="266" y="728"/>
			<point x="298" y="478" type="curve" smooth="yes"/>
			<point x="302" y="440"/>
			<point x="304" y="434"/>
		</contour>
		<contour>
			<point x="342" y="0" type="curve" smooth="yes"/>
			<point x="422" y="0"/>
			<point x="486" y="64"/>
			<point x="486" y="144" type="curve" smooth="yes"/>
			<point x="486" y="224"/>
			<point x="422" y="288"/>
			<point x="342" y="288" type="curve" smooth="yes"/>
			<point x="262" y="288"/>
			<point x="198" y="224"/>
			<point x="198" y="144" type="curve" smooth="yes"/>
			<point x="198" y="64"/>
			<point x="262" y="0"/>
		</contour>
	</outline>
</glyph>
<glyph name="numbersign" format="2">
	<unicode hex="0023"/>
	<advance width="1874"/>
	<outline>
		<contour>
			<point x="430" y="-388" type="curve" smooth="yes"/>
			<point x="470" y="-388"/>
			<point x="478" y="-358"/>
			<point x="486" y="-332" type="curve" smooth="yes"/>
			<point x="656" y="226" type="line"/>
			<point x="1048" y="226" type="line"/>
			<point x="996" y="52"/>
			<point x="944" y="-122"/>
			<point x="892" y="-296" type="curve" smooth="yes"/>
			<point x="882" y="-326"/>
			<point x="882" y="-330"/>
			<point x="882" y="-334" type="curve" smooth="yes"/>
			<point x="882" y="-360"/>
			<point x="902" y="-388"/>
			<point x="938" y="-388" type="curve" smooth="yes"/>
			<point x="978" y="-388"/>
			<point x="986" y="-358"/>
			<point x="994" y="-332" type="curve" smooth="yes"/>
			<point x="1164" y="226" type="line"/>
			<point x="1668" y="226" type="line" smooth="yes"/>
			<point x="1694" y="226"/>
			<point x="1748" y="226"/>
			<point x="1748" y="280" type="curve" smooth="yes"/>
			<point x="1748" y="336"/>
			<point x="1696" y="336"/>
			<point x="1666" y="336" type="curve" smooth="yes"/>
			<point x="1198" y="336" type="line"/>
			<point x="1296" y="662" type="line"/>
			<point x="1666" y="662" type="line" smooth="yes"/>
			<point x="1696" y="662"/>
			<point x="1748" y="662"/>
			<point x="1748" y="718" type="curve" smooth="yes"/>
			<point x="1748" y="772"/>
			<point x="1694" y="772"/>
			<point x="1668" y="772" type="curve" smooth="yes"/>
			<point x="1332" y="772" type="line"/>
			<point x="1488" y="1296" type="line" smooth="yes"/>
			<point x="1498" y="1326"/>
			<point x="1498" y="1330"/>
			<point x="1498" y="1334" type="curve" smooth="yes"/>
			<point x="1498" y="1360"/>
			<point x="1478" y="1388"/>
			<point x="1442" y="1388" type="curve" smooth="yes"/>
			<point x="1402" y="1388"/>
			<point x="1394" y="1358"/>
			<point x="1386" y="1332" type="curve" smooth="yes"/>
			<point x="1216" y="772" type="line"/>
			<point x="824" y="772" type="line"/>
			<point x="980" y="1296" type="line" smooth="yes"/>
			<point x="990" y="1326"/>
			<point x="990" y="1330"/>
			<point x="990" y="1334" type="curve" smooth="yes"/>
			<point x="990" y="1360"/>
			<point x="970" y="1388"/>
			<point x="934" y="1388" type="curve" smooth="yes"/>
			<point x="894" y="1388"/>
			<point x="886" y="1358"/>
			<point x="878" y="1332" type="curve" smooth="yes"/>
			<point x="708" y="772" type="line"/>
			<point x="204" y="772" type="line" smooth="yes"/>
			<point x="178" y="772"/>
			<point x="124" y="772"/>
			<point x="124" y="718" type="curve" smooth="yes"/>
			<point x="124" y="662"/>
			<point x="176" y="662"/>
			<point x="206" y="662" type="curve" smooth="yes"/>
			<point x="674" y="662" type="line"/>
			<point x="576" y="336" type="line"/>
			<point x="206" y="336" type="line" smooth="yes"/>
			<point x="176" y="336"/>
			<point x="124" y="336"/>
			<point x="124" y="280" type="curve" smooth="yes"/>
			<point x="124" y="226"/>
			<point x="178" y="226"/>
			<point x="204" y="226" type="curve" smooth="yes"/>
			<point x="540" y="226" type="line"/>
			<point x="488" y="52"/>
			<point x="436" y="-122"/>
			<point x="384" y="-296" type="curve" smooth="yes"/>
			<point x="374" y="-326"/>
			<point x="374" y="-330"/>
			<point x="374" y="-334" type="curve" smooth="yes"/>
			<point x="374" y="-360"/>
			<point x="394" y="-388"/>
		</contour>
		<contour>
			<point x="690" y="336" type="line"/>
			<point x="788" y="662" type="line"/>
			<point x="1182" y="662" type="line"/>
			<point x="1084" y="336" type="line"/>
		</contour>
	</outline>
</glyph>
<glyph name="dollar" format="2">
	<unicode hex="0024"/>
	<advance width="1124"/>
	<outline>
		<contour>
			<point x="518" y="-112" type="line"/>
			<point x="604" y="-112" type="line"/>
			<point x="604" y="-10" type="line"/>
			<point x="906" y="16"/>
			<point x="998" y="240"/>
			<point x="998" y="414" type="curve" smooth="yes"/>
			<point x="998" y="522"/>
			<point x="958" y="628"/>
			<point x="884" y="708" type="curve" smooth="yes"/>
			<point x="790" y="808"/>
			<point x="688" y="830"/>
			<point x="604" y="848" type="curve"/>
			<point x="604" y="1312" type="line"/>
			<point x="742" y="1304"/>
			<point x="838" y="1256"/>
			<point x="888" y="1158" type="curve"/>
			<point x="888" y="1158"/>
			<point x="888" y="1158"/>
			<point x="888" y="1158" type="curve"/>
			<point x="790" y="1156"/>
			<point x="762" y="1088"/>
			<point x="762" y="1040" type="curve" smooth="yes"/>
			<point x="762" y="962"/>
			<point x="820" y="922"/>
			<point x="880" y="922" type="curve" smooth="yes"/>
			<point x="924" y="922"/>
			<point x="998" y="946"/>
			<point x="998" y="1046" type="curve" smooth="yes"/>
			<point x="998" y="1246"/>
			<point x="850" y="1388"/>
			<point x="604" y="1398" type="curve"/>
			<point x="604" y="1500" type="line"/>
			<point x="518" y="1500" type="line"/>
			<point x="518" y="1398" type="line"/>
			<point x="250" y="1380"/>
			<point x="124" y="1198"/>
			<point x="124" y="1000" type="curve" smooth="yes"/>
			<point x="124" y="852"/>
			<point x="208" y="758"/>
			<point x="228" y="738" type="curve" smooth="yes"/>
			<point x="328" y="636"/>
			<point x="426" y="616"/>
			<point x="518" y="596" type="curve"/>
			<point x="518" y="76" type="line"/>
			<point x="372" y="88"/>
			<point x="272" y="150"/>
			<point x="230" y="256" type="curve"/>
			<point x="230" y="256"/>
			<point x="230" y="256"/>
			<point x="230" y="256" type="curve"/>
			<point x="278" y="256"/>
			<point x="360" y="282"/>
			<point x="360" y="376" type="curve" smooth="yes"/>
			<point x="360" y="446"/>
			<point x="310" y="494"/>
			<point x="242" y="494" type="curve" smooth="yes"/>
			<point x="194" y="494"/>
			<point x="124" y="468"/>
			<point x="124" y="368" type="curve" smooth="yes"/>
			<point x="124" y="170"/>
			<point x="260" y="4"/>
			<point x="518" y="-10" type="curve"/>
		</contour>
		<contour>
			<point x="518" y="866" type="line"/>
			<point x="334" y="900"/>
			<point x="272" y="1004"/>
			<point x="272" y="1092" type="curve" smooth="yes"/>
			<point x="272" y="1170"/>
			<point x="322" y="1296"/>
			<point x="518" y="1312" type="curve"/>
		</contour>
		<contour>
			<point x="604" y="76" type="curve"/>
			<point x="604" y="243"/>
			<point x="604" y="409"/>
			<point x="604" y="576" type="curve"/>
			<point x="768" y="548"/>
			<point x="850" y="436"/>
			<point x="850" y="324" type="curve" smooth="yes"/>
			<point x="850" y="254"/>
			<point x="818" y="100"/>
		</contour>
	</outline>
</glyph>
<glyph name="percent" format="2">
	<unicode hex="0025"/>
	<advance width="1874"/>
	<outline>
		<contour>
			<point x="1538" y="1398" type="line" smooth="yes"/>
			<point x="1554" y="1420"/>
			<point x="1560" y="1426"/>
			<point x="1560" y="1444" type="curve" smooth="yes"/>
			<point x="1560" y="1480"/>
			<point x="1532" y="1500"/>
			<point x="1506" y="1500" type="curve" smooth="yes"/>
			<point x="1480" y="1500"/>
			<point x="1468" y="1486"/>
			<point x="1446" y="1460" type="curve" smooth="yes"/>
			<point x="1348" y="1344"/>
			<point x="1214" y="1288"/>
			<point x="1056" y="1288" type="curve" smooth="yes"/>
			<point x="914" y="1288"/>
			<point x="762" y="1338"/>
			<point x="632" y="1436" type="curve" smooth="yes"/>
			<point x="590" y="1466"/>
			<point x="544" y="1500"/>
			<point x="460" y="1500" type="curve" smooth="yes"/>
			<point x="296" y="1500"/>
			<point x="124" y="1378"/>
			<point x="124" y="1098" type="curve" smooth="yes"/>
			<point x="124" y="804"/>
			<point x="306" y="694"/>
			<point x="460" y="694" type="curve" smooth="yes"/>
			<point x="610" y="694"/>
			<point x="748" y="818"/>
			<point x="748" y="1096" type="curve" smooth="yes"/>
			<point x="748" y="1148"/>
			<point x="744" y="1232"/>
			<point x="714" y="1308" type="curve"/>
			<point x="794" y="1268"/>
			<point x="914" y="1224"/>
			<point x="1060" y="1224" type="curve" smooth="yes"/>
			<point x="1144" y="1224"/>
			<point x="1228" y="1238"/>
			<point x="1300" y="1270" type="curve"/>
			<point x="1302" y="1268" type="line"/>
			<point x="334" y="-10" type="line" smooth="yes"/>
			<point x="320" y="-28"/>
			<point x="312" y="-38"/>
			<point x="312" y="-56" type="curve" smooth="yes"/>
			<point x="312" y="-88"/>
			<point x="338" y="-112"/>
			<point x="368" y="-112" type="curve" smooth="yes"/>
			<point x="394" y="-112"/>
			<point x="406" y="-96"/>
			<point x="420" y="-78" type="curve" smooth="yes"/>
		</contour>
		<contour>
			<point x="466" y="760" type="curve" smooth="yes"/>
			<point x="320" y="760"/>
			<point x="320" y="966"/>
			<point x="320" y="1096" type="curve" smooth="yes"/>
			<point x="320" y="1228"/>
			<point x="320" y="1434"/>
			<point x="466" y="1434" type="curve" smooth="yes"/>
			<point x="548" y="1434"/>
			<point x="664" y="1354"/>
			<point x="664" y="1098" type="curve" smooth="yes"/>
			<point x="664" y="830"/>
			<point x="542" y="760"/>
		</contour>
		<contour>
			<point x="1466" y="-46" type="curve" smooth="yes"/>
			<point x="1320" y="-46"/>
			<point x="1320" y="160"/>
			<point x="1320" y="290" type="curve" smooth="yes"/>
			<point x="1320" y="422"/>
			<point x="1320" y="628"/>
			<point x="1466" y="628" type="curve" smooth="yes"/>
			<point x="1548" y="628"/>
			<point x="1664" y="548"/>
			<point x="1664" y="292" type="curve" smooth="yes"/>
			<point x="1664" y="24"/>
			<point x="1542" y="-46"/>
		</contour>
		<contour>
			<point x="1748" y="290" type="curve" smooth="yes"/>
			<point x="1748" y="580"/>
			<point x="1602" y="694"/>
			<point x="1460" y="694" type="curve" smooth="yes"/>
			<point x="1296" y="694"/>
			<point x="1124" y="572"/>
			<point x="1124" y="292" type="curve" smooth="yes"/>
			<point x="1124" y="-2"/>
			<point x="1306" y="-112"/>
			<point x="1460" y="-112" type="curve" smooth="yes"/>
			<point x="1610" y="-112"/>
			<point x="1748" y="12"/>
		</contour>
	</outline>
</glyph>
<glyph name="ampersand" format="2">
  <advance width="875"/>
  <unicode hex="0026"/>
  <outline>
    <contour>
      <point x="251" y="-12" type="curve" smooth="yes"/>
      <point x="334" y="-12"/>
      <point x="399" y="21"/>
      <point x="446" y="53" type="curve"/>
      <point x="476" y="35"/>
      <point x="553" y="-12"/>
      <point x="652" y="-12" type="curve" smooth="yes"/>
      <point x="733" y="-12"/>
      <point x="810" y="35"/>
      <point x="812" y="118" type="curve"/>
      <point x="770" y="118" type="line"/>
      <point x="766" y="43"/>
      <point x="684" y="31"/>
      <point x="657" y="31" type="curve" smooth="yes"/>
      <point x="602" y="31"/>
      <point x="557" y="71"/>
      <point x="514" y="109" type="curve"/>
      <point x="578" y="174"/>
      <point x="600.23063" y="201.84595"/>
      <point x="721" y="383" type="curve" smooth="yes"/>
      <point x="734" y="401"/>
      <point x="774" y="401"/>
      <point x="818" y="401" type="curve"/>
      <point x="818" y="444" type="line"/>
      <point x="757" y="442"/>
      <point x="755" y="442"/>
      <point x="717" y="442" type="curve" smooth="yes"/>
      <point x="690" y="442"/>
      <point x="626" y="442"/>
      <point x="602" y="444" type="curve"/>
      <point x="602" y="401" type="line"/>
      <point x="611" y="401"/>
      <point x="675" y="401"/>
      <point x="675" y="389" type="curve" smooth="yes"/>
      <point x="675" y="386"/>
      <point x="671" y="380"/>
      <point x="669" y="377" type="curve" smooth="yes"/>
      <point x="569" y="229"/>
      <point x="532" y="181"/>
      <point x="488" y="137" type="curve"/>
      <point x="465" y="161"/>
      <point x="356" y="279"/>
      <point x="311" y="383" type="curve"/>
      <point x="375" y="443"/>
      <point x="448" y="512"/>
      <point x="448" y="576" type="curve" smooth="yes"/>
      <point x="448" y="631"/>
      <point x="417" y="706"/>
      <point x="343" y="706" type="curve" smooth="yes"/>
      <point x="265" y="706"/>
      <point x="170" y="646"/>
      <point x="170" y="529" type="curve" smooth="yes"/>
      <point x="170" y="469"/>
      <point x="185" y="403"/>
      <point x="212" y="338" type="curve"/>
      <point x="124" y="258" type="line" smooth="yes"/>
      <point x="76" y="216"/>
      <point x="47" y="190"/>
      <point x="47" y="136" type="curve" smooth="yes"/>
      <point x="47" y="48"/>
      <point x="137" y="-12"/>
    </contour>
    <contour>
      <point x="263" y="31" type="curve" smooth="yes"/>
      <point x="181" y="31"/>
      <point x="167" y="132"/>
      <point x="167" y="172" type="curve" smooth="yes"/>
      <point x="167.0" y="209.69971"/>
      <point x="174.8865453338" y="237.2595759994"/>
      <point x="185.28931548933556" y="257.5274952394463" type="curve" smooth="yes"/>
      <point x="198.89312266640002" y="284.0320571109"/>
      <point x="216.79994000000002" y="298.06662"/>
      <point x="227" y="306" type="curve"/>
      <point x="297" y="173"/>
      <point x="376" y="104"/>
      <point x="412" y="78" type="curve"/>
      <point x="346" y="33"/>
      <point x="279" y="31"/>
    </contour>
    <contour>
      <point x="298" y="416" type="curve"/>
      <point x="268" y="494"/>
      <point x="268" y="562"/>
      <point x="268" y="571" type="curve" smooth="yes"/>
      <point x="268" y="626"/>
      <point x="300" y="673"/>
      <point x="345" y="673" type="curve" smooth="yes"/>
      <point x="395" y="673"/>
      <point x="406" y="602"/>
      <point x="406" y="577" type="curve" smooth="yes"/>
      <point x="406" y="549"/>
      <point x="389" y="499"/>
    </contour>
  </outline>
</glyph>
<glyph name="parenleft" format="2">
	<unicode hex="0028"/>
	<advance width="874"/>
	<outline>
		<contour>
			<point x="216" y="500" type="curve" smooth="yes"/>
			<point x="216" y="132"/>
			<point x="354" y="-226"/>
			<point x="638" y="-458" type="curve" smooth="yes"/>
			<point x="690" y="-502"/>
			<point x="694" y="-502"/>
			<point x="714" y="-502" type="curve" smooth="yes"/>
			<point x="724" y="-502"/>
			<point x="748" y="-502"/>
			<point x="748" y="-478" type="curve" smooth="yes"/>
			<point x="748" y="-470"/>
			<point x="748" y="-466"/>
			<point x="710" y="-430" type="curve" smooth="yes"/>
			<point x="486" y="-206"/>
			<point x="400" y="146"/>
			<point x="400" y="498" type="curve" smooth="yes"/>
			<point x="400" y="892"/>
			<point x="498" y="1216"/>
			<point x="722" y="1442" type="curve" smooth="yes"/>
			<point x="746" y="1466"/>
			<point x="748" y="1468"/>
			<point x="748" y="1476" type="curve" smooth="yes"/>
			<point x="748" y="1500"/>
			<point x="724" y="1500"/>
			<point x="714" y="1500" type="curve" smooth="yes"/>
			<point x="696" y="1500"/>
			<point x="692" y="1500"/>
			<point x="640" y="1458" type="curve" smooth="yes"/>
			<point x="352" y="1228"/>
			<point x="216" y="860"/>
		</contour>
	</outline>
</glyph>
<glyph name="parenright" format="2">
	<unicode hex="0029"/>
	<advance width="874"/>
	<outline>
		<contour>
			<point x="656" y="498" type="curve" smooth="yes"/>
			<point x="656" y="866"/>
			<point x="518" y="1224"/>
			<point x="234" y="1456" type="curve" smooth="yes"/>
			<point x="182" y="1500"/>
			<point x="178" y="1500"/>
			<point x="158" y="1500" type="curve" smooth="yes"/>
			<point x="148" y="1500"/>
			<point x="124" y="1500"/>
			<point x="124" y="1476" type="curve" smooth="yes"/>
			<point x="124" y="1468"/>
			<point x="124" y="1464"/>
			<point x="162" y="1428" type="curve" smooth="yes"/>
			<point x="386" y="1204"/>
			<point x="472" y="852"/>
			<point x="472" y="500" type="curve" smooth="yes"/>
			<point x="472" y="106"/>
			<point x="374" y="-218"/>
			<point x="150" y="-444" type="curve" smooth="yes"/>
			<point x="126" y="-468"/>
			<point x="124" y="-470"/>
			<point x="124" y="-478" type="curve" smooth="yes"/>
			<point x="124" y="-502"/>
			<point x="148" y="-502"/>
			<point x="158" y="-502" type="curve" smooth="yes"/>
			<point x="176" y="-502"/>
			<point x="180" y="-502"/>
			<point x="232" y="-460" type="curve" smooth="yes"/>
			<point x="520" y="-230"/>
			<point x="656" y="138"/>
		</contour>
	</outline>
</glyph>
<glyph name="asterisk" format="2">
	<unicode hex="002A"/>
	<advance width="1124"/>
	<outline>
		<contour>
			<point x="560" y="612" type="curve" smooth="yes"/>
			<point x="596" y="612"/>
			<point x="644" y="634"/>
			<point x="644" y="686" type="curve" smooth="yes"/>
			<point x="644" y="700"/>
			<point x="629" y="792"/>
			<point x="594" y="1000" type="curve"/>
			<point x="842" y="812" type="line" smooth="yes"/>
			<point x="872" y="790"/>
			<point x="874" y="788"/>
			<point x="894" y="788" type="curve" smooth="yes"/>
			<point x="940" y="788"/>
			<point x="978" y="828"/>
			<point x="978" y="878" type="curve" smooth="yes"/>
			<point x="978" y="932"/>
			<point x="940" y="946"/>
			<point x="920" y="952" type="curve"/>
			<point x="630" y="1056" type="line"/>
			<point x="918" y="1160" type="line" smooth="yes"/>
			<point x="944" y="1170"/>
			<point x="978" y="1182"/>
			<point x="978" y="1234" type="curve" smooth="yes"/>
			<point x="978" y="1284"/>
			<point x="940" y="1324"/>
			<point x="894" y="1324" type="curve" smooth="yes"/>
			<point x="874" y="1324"/>
			<point x="872" y="1322"/>
			<point x="842" y="1300" type="curve" smooth="yes"/>
			<point x="594" y="1112" type="line"/>
			<point x="644" y="1414"/>
			<point x="644" y="1418"/>
			<point x="644" y="1426" type="curve" smooth="yes"/>
			<point x="644" y="1480"/>
			<point x="592" y="1500"/>
			<point x="562" y="1500" type="curve" smooth="yes"/>
			<point x="526" y="1500"/>
			<point x="478" y="1478"/>
			<point x="478" y="1426" type="curve" smooth="yes"/>
			<point x="478" y="1418"/>
			<point x="478" y="1414"/>
			<point x="528" y="1112" type="curve"/>
			<point x="280" y="1300" type="line" smooth="yes"/>
			<point x="250" y="1322"/>
			<point x="248" y="1324"/>
			<point x="228" y="1324" type="curve" smooth="yes"/>
			<point x="182" y="1324"/>
			<point x="144" y="1284"/>
			<point x="144" y="1234" type="curve" smooth="yes"/>
			<point x="144" y="1180"/>
			<point x="182" y="1166"/>
			<point x="202" y="1160" type="curve"/>
			<point x="492" y="1056" type="line"/>
			<point x="204" y="952" type="line" smooth="yes"/>
			<point x="178" y="942"/>
			<point x="144" y="930"/>
			<point x="144" y="878" type="curve" smooth="yes"/>
			<point x="144" y="828"/>
			<point x="182" y="788"/>
			<point x="228" y="788" type="curve" smooth="yes"/>
			<point x="248" y="788"/>
			<point x="250" y="790"/>
			<point x="280" y="812" type="curve" smooth="yes"/>
			<point x="528" y="1000" type="line"/>
			<point x="478" y="698"/>
			<point x="478" y="694"/>
			<point x="478" y="686" type="curve" smooth="yes"/>
			<point x="478" y="632"/>
			<point x="530" y="612"/>
		</contour>
	</outline>
</glyph>
<glyph name="plus" format="2">
	<unicode hex="002B"/>
	<advance width="1750"/>
	<outline>
		<contour>
			<point x="930" y="444" type="line"/>
			<point x="1544" y="444" type="line" smooth="yes"/>
			<point x="1570" y="444"/>
			<point x="1624" y="444"/>
			<point x="1624" y="498" type="curve" smooth="yes"/>
			<point x="1624" y="554"/>
			<point x="1572" y="554"/>
			<point x="1544" y="554" type="curve" smooth="yes"/>
			<point x="930" y="554" type="line"/>
			<point x="930" y="1170" type="line" smooth="yes"/>
			<point x="930" y="1196"/>
			<point x="930" y="1250"/>
			<point x="876" y="1250" type="curve" smooth="yes"/>
			<point x="820" y="1250"/>
			<point x="820" y="1198"/>
			<point x="820" y="1170" type="curve" smooth="yes"/>
			<point x="820" y="554" type="line"/>
			<point x="204" y="554" type="line" smooth="yes"/>
			<point x="176" y="554"/>
			<point x="124" y="554"/>
			<point x="124" y="498" type="curve" smooth="yes"/>
			<point x="124" y="444"/>
			<point x="178" y="444"/>
			<point x="204" y="444" type="curve" smooth="yes"/>
			<point x="820" y="444" type="line"/>
			<point x="820" y="-172" type="line" smooth="yes"/>
			<point x="820" y="-198"/>
			<point x="820" y="-252"/>
			<point x="874" y="-252" type="curve" smooth="yes"/>
			<point x="930" y="-252"/>
			<point x="930" y="-200"/>
			<point x="930" y="-172" type="curve" smooth="yes"/>
		</contour>
	</outline>
</glyph>
<glyph name="comma" format="2">
	<unicode hex="002C"/>
	<advance width="624"/>
	<outline>
		<contour>
			<point x="168" y="144" type="curve" smooth="yes"/>
			<point x="168" y="72"/>
			<point x="218" y="0"/>
			<point x="312" y="0" type="curve" smooth="yes"/>
			<point x="370" y="0"/>
			<point x="406" y="30"/>
			<point x="414" y="38" type="curve"/>
			<point x="412" y="-18"/>
			<point x="402" y="-184"/>
			<point x="238" y="-324" type="curve" smooth="yes"/>
			<point x="224" y="-336"/>
			<point x="220" y="-340"/>
			<point x="220" y="-350" type="curve" smooth="yes"/>
			<point x="220" y="-368"/>
			<point x="244" y="-388"/>
			<point x="256" y="-388" type="curve" smooth="yes"/>
			<point x="282" y="-388"/>
			<point x="480" y="-220"/>
			<point x="480" y="48" type="curve" smooth="yes"/>
			<point x="480" y="176"/>
			<point x="420" y="288"/>
			<point x="310" y="288" type="curve" smooth="yes"/>
			<point x="222" y="288"/>
			<point x="168" y="222"/>
		</contour>
	</outline>
</glyph>
<glyph name="hyphen" format="2">
	<unicode hex="002D"/>
	<advance width="750"/>
	<outline>
		<contour>
			<point x="624" y="352" type="line"/>
			<point x="624" y="536" type="line"/>
			<point x="24" y="536" type="line"/>
			<point x="24" y="352" type="line"/>
		</contour>
	</outline>
</glyph>
<glyph name="period" format="2">
	<unicode hex="002E"/>
	<advance width="624"/>
	<outline>
		<contour>
			<point x="456" y="144" type="curve" smooth="yes"/>
			<point x="456" y="226"/>
			<point x="390" y="288"/>
			<point x="312" y="288" type="curve" smooth="yes"/>
			<point x="234" y="288"/>
			<point x="168" y="226"/>
			<point x="168" y="144" type="curve" smooth="yes"/>
			<point x="168" y="62"/>
			<point x="234" y="0"/>
			<point x="312" y="0" type="curve" smooth="yes"/>
			<point x="390" y="0"/>
			<point x="456" y="62"/>
		</contour>
	</outline>
</glyph>
<glyph name="slash" format="2">
	<unicode hex="002F"/>
	<advance width="1124"/>
	<outline>
		<contour>
			<point x="988" y="1408" type="line" smooth="yes"/>
			<point x="998" y="1432"/>
			<point x="998" y="1440"/>
			<point x="998" y="1444" type="curve" smooth="yes"/>
			<point x="998" y="1480"/>
			<point x="970" y="1500"/>
			<point x="944" y="1500" type="curve" smooth="yes"/>
			<point x="906" y="1500"/>
			<point x="898" y="1476"/>
			<point x="886" y="1448" type="curve" smooth="yes"/>
			<point x="134" y="-408" type="line" smooth="yes"/>
			<point x="124" y="-432"/>
			<point x="124" y="-440"/>
			<point x="124" y="-444" type="curve" smooth="yes"/>
			<point x="124" y="-480"/>
			<point x="152" y="-500"/>
			<point x="178" y="-500" type="curve" smooth="yes"/>
			<point x="216" y="-500"/>
			<point x="224" y="-478"/>
			<point x="236" y="-448" type="curve" smooth="yes"/>
		</contour>
	</outline>
</glyph>
<glyph name="zero" format="2">
  <advance width="562"/>
  <unicode hex="0030"/>
  <outline>
    <contour>
      <point x="280" y="-12" type="curve"/>
      <point x="355.68048" y="-12.0"/>
      <point x="407.194579336" y="11.8578736768"/>
      <point x="442.2589956191132" y="47.53689185067232" type="curve" smooth="yes"/>
      <point x="516.5385243375999" y="123.1183769008"/>
      <point x="517.0" y="251.74731999999997"/>
      <point x="517" y="319" type="curve" smooth="yes"/>
      <point x="517.0" y="385.30528"/>
      <point x="517.0" y="520.781195048"/>
      <point x="439.24243645014604" y="598.2480013717812" type="curve" smooth="yes"/>
      <point x="404.4188284736" y="632.9413941616"/>
      <point x="354" y="656"/>
      <point x="281" y="656" type="curve" smooth="yes"/>
      <point x="207" y="656"/>
      <point x="156.1042747712" y="632.601483776"/>
      <point x="121.10083601664054" y="597.4635341876434" type="curve" smooth="yes"/>
      <point x="44.000000000000014" y="520.0664159168"/>
      <point x="44" y="386"/>
      <point x="44" y="319" type="curve"/>
      <point x="44.0" y="253.10176"/>
      <point x="44.0" y="121.7067375696"/>
      <point x="120.33430413122025" y="45.785397730309995" type="curve" smooth="yes"/>
      <point x="155.2031701696" y="11.105170296000011"/>
      <point x="205.99984" y="-11.99999999999999"/>
    </contour>
    <contour>
      <point x="281" y="21" type="curve" smooth="yes"/>
      <point x="249" y="21"/>
      <point x="225" y="34"/>
      <point x="205" y="55" type="curve" smooth="yes"/>
      <point x="180" y="80"/>
      <point x="164" y="96"/>
      <point x="164" y="331" type="curve" smooth="yes"/>
      <point x="164" y="401"/>
      <point x="164" y="465"/>
      <point x="172" y="517" type="curve" smooth="yes"/>
      <point x="186" y="616"/>
      <point x="258" y="623"/>
      <point x="280" y="623" type="curve" smooth="yes"/>
      <point x="312" y="623"/>
      <point x="374" y="608"/>
      <point x="388" y="524" type="curve" smooth="yes"/>
      <point x="397" y="473"/>
      <point x="397" y="392"/>
      <point x="397" y="331" type="curve" smooth="yes"/>
      <point x="397" y="95"/>
      <point x="382" y="81"/>
      <point x="352" y="51" type="curve" smooth="yes"/>
      <point x="332" y="31"/>
      <point x="305" y="21"/>
    </contour>
  </outline>
</glyph>
<glyph name="one" format="2">
	<unicode hex="0031"/>
	<advance width="1124"/>
	<outline>
		<contour>
			<point x="466" y="1136" type="curve"/>
			<point x="466" y="86" type="line"/>
			<point x="466" y="86"/>
			<point x="466" y="86"/>
			<point x="466" y="86" type="curve"/>
			<point x="188" y="86" type="line"/>
			<point x="188" y="0" type="line"/>
			<point x="272" y="4"/>
			<point x="482" y="4"/>
			<point x="576" y="4" type="curve" smooth="yes"/>
			<point x="670" y="4"/>
			<point x="882" y="4"/>
			<point x="966" y="0" type="curve"/>
			<point x="966" y="86" type="line"/>
			<point x="692" y="86" type="line"/>
			<point x="692" y="86"/>
			<point x="692" y="86"/>
			<point x="692" y="86" type="curve"/>
			<point x="692" y="1254" type="line" smooth="yes"/>
			<point x="692" y="1312"/>
			<point x="688" y="1312"/>
			<point x="624" y="1312" type="curve"/>
			<point x="624" y="1312"/>
			<point x="624" y="1312"/>
			<point x="624" y="1312" type="curve"/>
			<point x="476" y="1184"/>
			<point x="254" y="1184"/>
			<point x="210" y="1184" type="curve" smooth="yes"/>
			<point x="197" y="1184"/>
			<point x="185" y="1184"/>
			<point x="172" y="1184" type="curve"/>
			<point x="172" y="1155"/>
			<point x="172" y="1127"/>
			<point x="172" y="1098" type="curve"/>
			<point x="210" y="1098" type="line" smooth="yes"/>
			<point x="280" y="1098"/>
			<point x="386" y="1110"/>
		</contour>
	</outline>
</glyph>
<glyph name="two" format="2">
	<unicode hex="0032"/>
	<advance width="1124"/>
	<outline>
		<contour>
			<point x="754" y="932" type="curve" smooth="yes"/>
			<point x="754" y="776"/>
			<point x="648" y="632"/>
			<point x="566" y="546" type="curve" smooth="yes"/>
			<point x="132" y="92" type="line"/>
			<point x="112" y="74"/>
			<point x="112" y="70"/>
			<point x="112" y="34" type="curve" smooth="yes"/>
			<point x="112" y="0" type="line"/>
			<point x="952" y="0" type="line"/>
			<point x="1010" y="430" type="line"/>
			<point x="926" y="430" type="line"/>
			<point x="920" y="388"/>
			<point x="906" y="270"/>
			<point x="876" y="250" type="curve"/>
			<point x="860" y="236"/>
			<point x="704" y="236"/>
			<point x="674" y="236" type="curve" smooth="yes"/>
			<point x="364" y="236" type="line"/>
			<point x="440" y="300"/>
			<point x="622" y="452"/>
			<point x="652" y="474" type="curve" smooth="yes"/>
			<point x="874" y="640"/>
			<point x="1010" y="742"/>
			<point x="1010" y="934" type="curve" smooth="yes"/>
			<point x="1010" y="1170"/>
			<point x="796" y="1312"/>
			<point x="532" y="1312" type="curve" smooth="yes"/>
			<point x="306" y="1312"/>
			<point x="112" y="1184"/>
			<point x="112" y="994" type="curve" smooth="yes"/>
			<point x="112" y="888"/>
			<point x="198" y="858"/>
			<point x="244" y="858" type="curve" smooth="yes"/>
			<point x="306" y="858"/>
			<point x="378" y="900"/>
			<point x="378" y="992" type="curve" smooth="yes"/>
			<point x="378" y="1076"/>
			<point x="316" y="1118"/>
			<point x="254" y="1126" type="curve"/>
			<point x="334" y="1218"/>
			<point x="440" y="1226"/>
			<point x="482" y="1226" type="curve" smooth="yes"/>
			<point x="666" y="1226"/>
			<point x="754" y="1076"/>
		</contour>
	</outline>
</glyph>
<glyph name="three" format="2">
	<unicode hex="0033"/>
	<advance width="1124"/>
	<outline>
		<contour>
			<point x="540" y="-24" type="curve" smooth="yes"/>
			<point x="870" y="-24"/>
			<point x="1028" y="158"/>
			<point x="1028" y="358" type="curve" smooth="yes"/>
			<point x="1028" y="456"/>
			<point x="978" y="646"/>
			<point x="668" y="700" type="curve"/>
			<point x="844" y="754"/>
			<point x="966" y="878"/>
			<point x="966" y="1036" type="curve" smooth="yes"/>
			<point x="966" y="1186"/>
			<point x="822" y="1312"/>
			<point x="544" y="1312" type="curve" smooth="yes"/>
			<point x="320" y="1312"/>
			<point x="156" y="1194"/>
			<point x="156" y="1032" type="curve" smooth="yes"/>
			<point x="156" y="932"/>
			<point x="234" y="900"/>
			<point x="286" y="900" type="curve" smooth="yes"/>
			<point x="344" y="900"/>
			<point x="414" y="938"/>
			<point x="414" y="1030" type="curve" smooth="yes"/>
			<point x="414" y="1076"/>
			<point x="394" y="1144"/>
			<point x="300" y="1158" type="curve"/>
			<point x="384" y="1240"/>
			<point x="520" y="1240"/>
			<point x="532" y="1240" type="curve" smooth="yes"/>
			<point x="710" y="1240"/>
			<point x="710" y="1102"/>
			<point x="710" y="1042" type="curve" smooth="yes"/>
			<point x="710" y="872"/>
			<point x="626" y="742"/>
			<point x="500" y="734" type="curve" smooth="yes"/>
			<point x="452" y="732"/>
			<point x="394" y="728"/>
			<point x="386" y="724" type="curve" smooth="yes"/>
			<point x="374" y="718"/>
			<point x="374" y="704"/>
			<point x="374" y="696" type="curve" smooth="yes"/>
			<point x="374" y="662"/>
			<point x="386" y="662"/>
			<point x="426" y="662" type="curve" smooth="yes"/>
			<point x="522" y="662" type="line" smooth="yes"/>
			<point x="746" y="662"/>
			<point x="746" y="454"/>
			<point x="746" y="358" type="curve" smooth="yes"/>
			<point x="746" y="268"/>
			<point x="746" y="56"/>
			<point x="530" y="56" type="curve" smooth="yes"/>
			<point x="488" y="56"/>
			<point x="356" y="62"/>
			<point x="260" y="130" type="curve"/>
			<point x="346" y="148"/>
			<point x="376" y="210"/>
			<point x="376" y="270" type="curve" smooth="yes"/>
			<point x="376" y="352"/>
			<point x="318" y="410"/>
			<point x="236" y="410" type="curve" smooth="yes"/>
			<point x="152" y="410"/>
			<point x="94" y="352"/>
			<point x="94" y="268" type="curve" smooth="yes"/>
			<point x="94" y="84"/>
			<point x="294" y="-24"/>
		</contour>
	</outline>
</glyph>
<glyph name="four" format="2">
  <advance width="562"/>
  <unicode hex="0034"/>
  <outline>
    <contour>
      <point x="315" y="157" type="line"/>
      <point x="315" y="43" type="line"/>
      <point x="315.0" y="43.0"/>
      <point x="315.0" y="43.0"/>
      <point x="315" y="43" type="curve"/>
      <point x="206" y="43" type="line"/>
      <point x="206" y="0" type="line"/>
      <point x="235" y="2"/>
      <point x="334" y="2"/>
      <point x="370" y="2" type="curve" smooth="yes"/>
      <point x="404" y="2"/>
      <point x="503" y="2"/>
      <point x="530" y="0" type="curve"/>
      <point x="530" y="43" type="line"/>
      <point x="433" y="43" type="line"/>
      <point x="433.0" y="43.0"/>
      <point x="433.0" y="43.0"/>
      <point x="433" y="43" type="curve"/>
      <point x="433" y="157" type="line"/>
      <point x="530" y="157" type="line"/>
      <point x="530" y="200" type="line"/>
      <point x="433" y="200" type="line"/>
      <point x="433" y="629" type="line" smooth="yes"/>
      <point x="433" y="654"/>
      <point x="432" y="658"/>
      <point x="407" y="658" type="curve" smooth="yes"/>
      <point x="389" y="658"/>
      <point x="387" y="658"/>
      <point x="375" y="643" type="curve" smooth="yes"/>
      <point x="31" y="200" type="line"/>
      <point x="31" y="157" type="line"/>
    </contour>
    <contour>
      <point x="77" y="200" type="line"/>
      <point x="324" y="518" type="line"/>
      <point x="324" y="200" type="line"/>
    </contour>
  </outline>
</glyph>
<glyph name="five" format="2">
	<unicode hex="0035"/>
	<advance width="1124"/>
	<outline>
		<contour>
			<point x="508" y="-24" type="curve" smooth="yes"/>
			<point x="816" y="-24"/>
			<point x="1010" y="154"/>
			<point x="1010" y="402" type="curve" smooth="yes"/>
			<point x="1010" y="646"/>
			<point x="844" y="820"/>
			<point x="570" y="820" type="curve" smooth="yes"/>
			<point x="490" y="820"/>
			<point x="394" y="804"/>
			<point x="308" y="740" type="curve"/>
			<point x="308" y="1038" type="line"/>
			<point x="376" y="1022"/>
			<point x="430" y="1022"/>
			<point x="460" y="1022" type="curve" smooth="yes"/>
			<point x="508" y="1022"/>
			<point x="622" y="1022"/>
			<point x="756" y="1104" type="curve" smooth="yes"/>
			<point x="818" y="1142"/>
			<point x="922" y="1232"/>
			<point x="922" y="1278" type="curve" smooth="yes"/>
			<point x="922" y="1288"/>
			<point x="922" y="1312"/>
			<point x="898" y="1312" type="curve" smooth="yes"/>
			<point x="896" y="1312"/>
			<point x="892" y="1310"/>
			<point x="872" y="1302" type="curve" smooth="yes"/>
			<point x="780" y="1268"/>
			<point x="682" y="1248"/>
			<point x="570" y="1248" type="curve" smooth="yes"/>
			<point x="456" y="1248"/>
			<point x="358" y="1270"/>
			<point x="266" y="1304" type="curve" smooth="yes"/>
			<point x="252" y="1310"/>
			<point x="246" y="1312"/>
			<point x="240" y="1312" type="curve" smooth="yes"/>
			<point x="216" y="1312"/>
			<point x="216" y="1292"/>
			<point x="216" y="1258" type="curve" smooth="yes"/>
			<point x="216" y="676" type="line" smooth="yes"/>
			<point x="216" y="638"/>
			<point x="216" y="616"/>
			<point x="256" y="616" type="curve" smooth="yes"/>
			<point x="276" y="616"/>
			<point x="280" y="618"/>
			<point x="296" y="638" type="curve" smooth="yes"/>
			<point x="320" y="666"/>
			<point x="392" y="754"/>
			<point x="562" y="754" type="curve" smooth="yes"/>
			<point x="636" y="754"/>
			<point x="680" y="724"/>
			<point x="707" y="677" type="curve" smooth="yes"/>
			<point x="746" y="608"/>
			<point x="746" y="502"/>
			<point x="746" y="408" type="curve" smooth="yes"/>
			<point x="746" y="311"/>
			<point x="746" y="185"/>
			<point x="670" y="113" type="curve" smooth="yes"/>
			<point x="634" y="78"/>
			<point x="580" y="56"/>
			<point x="500" y="56" type="curve" smooth="yes"/>
			<point x="426" y="56"/>
			<point x="300" y="84"/>
			<point x="232" y="198" type="curve"/>
			<point x="338" y="198"/>
			<point x="364" y="278"/>
			<point x="364" y="322" type="curve" smooth="yes"/>
			<point x="364" y="394"/>
			<point x="312" y="448"/>
			<point x="238" y="448" type="curve" smooth="yes"/>
			<point x="178" y="448"/>
			<point x="112" y="412"/>
			<point x="112" y="318" type="curve" smooth="yes"/>
			<point x="112" y="144"/>
			<point x="270" y="-24"/>
		</contour>
	</outline>
</glyph>
<glyph name="six" format="2">
	<unicode hex="0036"/>
	<advance width="562"/>
	<outline>
		<contour>
			<point x="47" y="317" type="curve" smooth="yes"/>
			<point x="47" y="273.18133"/>
			<point x="47" y="145.9554893805"/>
			<point x="113.2981656753" y="63.1632448655" type="curve" smooth="yes"/>
			<point x="148.3717919837" y="19.3637789862"/>
			<point x="202.00037" y="-12"/>
			<point x="284" y="-12" type="curve" smooth="yes"/>
			<point x="354" y="-12"/>
			<point x="414.4674165134" y="9.9457668222"/>
			<point x="455.8006316157" y="51.4494659855" type="curve" smooth="yes"/>
			<point x="492.3913934798" y="88.1911510638"/>
			<point x="514" y="140.2602"/>
			<point x="514" y="206" type="curve" smooth="yes"/>
			<point x="514" y="272.1108"/>
			<point x="492.3698023452" y="323.5041459256"/>
			<point x="457.0069935845" y="359.3376285449" type="curve" smooth="yes"/>
			<point x="417.4835019752" y="399.3871720984"/>
			<point x="360.80582" y="420"/>
			<point x="298" y="420" type="curve" smooth="yes"/>
			<point x="278" y="420"/>
			<point x="214" y="420"/>
			<point x="174" y="335" type="curve"/>
			<point x="174" y="423"/>
			<point x="177" y="485"/>
			<point x="205" y="539" type="curve" smooth="yes"/>
			<point x="227" y="581"/>
			<point x="278" y="620"/>
			<point x="343" y="620" type="curve" smooth="yes"/>
			<point x="362" y="620"/>
			<point x="398" y="617"/>
			<point x="422" y="592" type="curve"/>
			<point x="384" y="588"/>
			<point x="368" y="560"/>
			<point x="368" y="533" type="curve" smooth="yes"/>
			<point x="368" y="497"/>
			<point x="395" y="474"/>
			<point x="427" y="474" type="curve" smooth="yes"/>
			<point x="453" y="474"/>
			<point x="486" y="491"/>
			<point x="486" y="535" type="curve" smooth="yes"/>
			<point x="486" y="595"/>
			<point x="446" y="656"/>
			<point x="341" y="656" type="curve" smooth="yes"/>
			<point x="216" y="656"/>
			<point x="47" y="578"/>
		</contour>
		<contour>
			<point x="283" y="28" type="curve" smooth="yes"/>
			<point x="219" y="28"/>
			<point x="194" y="82"/>
			<point x="190" y="90" type="curve" smooth="yes"/>
			<point x="176" y="123"/>
			<point x="176" y="203"/>
			<point x="176" y="212" type="curve" smooth="yes"/>
			<point x="176" y="335"/>
			<point x="229" y="387"/>
			<point x="288" y="387" type="curve"/>
			<point x="319.99977" y="387"/>
			<point x="341.6562543429" y="378.641789368"/>
			<point x="356.3127132516" y="363.9515864209" type="curve" smooth="yes"/>
			<point x="387" y="333.193647342"/>
			<point x="387" y="275"/>
			<point x="387" y="207" type="curve" smooth="yes"/>
			<point x="387" y="141"/>
			<point x="387" y="83.9983242604"/>
			<point x="356.6277075883" y="52.8571104458" type="curve" smooth="yes"/>
			<point x="341.2213661536" y="37.060733728"/>
			<point x="318.00016" y="28"/>
		</contour>
	</outline>
</glyph>
<glyph name="seven" format="2">
	<unicode hex="0037"/>
	<advance width="1124"/>
	<outline>
		<contour>
			<point x="500" y="-24" type="curve" smooth="yes"/>
			<point x="550" y="-24"/>
			<point x="578" y="2"/>
			<point x="592" y="16" type="curve"/>
			<point x="618" y="48"/>
			<point x="618" y="72"/>
			<point x="618" y="160" type="curve" smooth="yes"/>
			<point x="618" y="466"/>
			<point x="646" y="690"/>
			<point x="772" y="840" type="curve" smooth="yes"/>
			<point x="872" y="959"/>
			<point x="972" y="1078"/>
			<point x="1072" y="1198" type="curve" smooth="yes"/>
			<point x="1090" y="1218"/>
			<point x="1090" y="1222"/>
			<point x="1090" y="1288" type="curve"/>
			<point x="1090" y="1288" type="line"/>
			<point x="668" y="1288" type="line" smooth="yes"/>
			<point x="654" y="1288"/>
			<point x="356" y="1298"/>
			<point x="332" y="1302" type="curve" smooth="yes"/>
			<point x="282" y="1310"/>
			<point x="278" y="1332"/>
			<point x="274" y="1352" type="curve"/>
			<point x="190" y="1352" type="line"/>
			<point x="124" y="858" type="line"/>
			<point x="208" y="858" type="line"/>
			<point x="210" y="878"/>
			<point x="226" y="1018"/>
			<point x="260" y="1040" type="curve" smooth="yes"/>
			<point x="278" y="1052"/>
			<point x="444" y="1052"/>
			<point x="476" y="1052" type="curve" smooth="yes"/>
			<point x="838" y="1052" type="line"/>
			<point x="606" y="770"/>
			<point x="580" y="738"/>
			<point x="518" y="620" type="curve" smooth="yes"/>
			<point x="400" y="388"/>
			<point x="382" y="208"/>
			<point x="382" y="110" type="curve" smooth="yes"/>
			<point x="382" y="-24"/>
			<point x="484" y="-24"/>
		</contour>
	</outline>
</glyph>
<glyph name="eight" format="2">
	<unicode hex="0038"/>
	<advance width="1124"/>
	<outline>
		<contour>
			<point x="558" y="-24" type="curve" smooth="yes"/>
			<point x="854" y="-24"/>
			<point x="1028" y="136"/>
			<point x="1028" y="368" type="curve" smooth="yes"/>
			<point x="1028" y="586"/>
			<point x="856" y="680"/>
			<point x="754" y="736" type="curve"/>
			<point x="854" y="788"/>
			<point x="966" y="862"/>
			<point x="966" y="1018" type="curve" smooth="yes"/>
			<point x="966" y="1224"/>
			<point x="782" y="1312"/>
			<point x="564" y="1312" type="curve" smooth="yes"/>
			<point x="298" y="1312"/>
			<point x="156" y="1160"/>
			<point x="156" y="966" type="curve"/>
			<point x="156" y="889"/>
			<point x="183" y="806"/>
			<point x="253" y="736" type="curve" smooth="yes"/>
			<point x="281" y="708"/>
			<point x="316" y="682"/>
			<point x="358" y="660" type="curve"/>
			<point x="132" y="560"/>
			<point x="94" y="422"/>
			<point x="94" y="318" type="curve" smooth="yes"/>
			<point x="94" y="88"/>
			<point x="294" y="-24"/>
		</contour>
		<contour>
			<point x="564" y="56" type="curve" smooth="yes"/>
			<point x="366" y="56"/>
			<point x="254" y="162"/>
			<point x="254" y="320" type="curve" smooth="yes"/>
			<point x="254" y="466"/>
			<point x="344" y="558"/>
			<point x="440" y="612" type="curve"/>
			<point x="532" y="559"/>
			<point x="624" y="507"/>
			<point x="716" y="454" type="curve" smooth="yes"/>
			<point x="782" y="416"/>
			<point x="868" y="368"/>
			<point x="868" y="266" type="curve" smooth="yes"/>
			<point x="868" y="106"/>
			<point x="708" y="56"/>
		</contour>
		<contour>
			<point x="674" y="784" type="curve"/>
			<point x="581" y="837"/>
			<point x="488" y="889"/>
			<point x="394" y="942" type="curve" smooth="yes"/>
			<point x="354" y="964"/>
			<point x="298" y="1010"/>
			<point x="298" y="1076" type="curve" smooth="yes"/>
			<point x="298" y="1236"/>
			<point x="512" y="1240"/>
			<point x="558" y="1240" type="curve" smooth="yes"/>
			<point x="728" y="1240"/>
			<point x="824" y="1150"/>
			<point x="824" y="1018" type="curve" smooth="yes"/>
			<point x="824" y="936"/>
			<point x="788" y="850"/>
		</contour>
	</outline>
</glyph>
<glyph name="nine" format="2">
  <advance width="562"/>
  <unicode hex="0039"/>
  <outline>
    <contour>
      <point x="233" y="-12" type="curve" smooth="yes"/>
      <point x="360" y="-12"/>
      <point x="514" y="71"/>
      <point x="514" y="329" type="curve" smooth="yes"/>
      <point x="514" y="396"/>
      <point x="514" y="656"/>
      <point x="283" y="656" type="curve" smooth="yes"/>
      <point x="209.3218" y="656.0"/>
      <point x="147.0455684" y="633.1960632"/>
      <point x="104.99819604670198" y="591.0885083840369" type="curve" smooth="yes"/>
      <point x="68.29042258000001" y="554.3281950300001"/>
      <point x="46" y="503"/>
      <point x="47" y="439" type="curve" smooth="yes"/>
      <point x="48" y="372"/>
      <point x="68.82904856" y="320.98839904"/>
      <point x="104.680259325623" y="285.00436586858535" type="curve" smooth="yes"/>
      <point x="144.01246214" y="245.52644418750003"/>
      <point x="200.222" y="225.00000000000003"/>
      <point x="263" y="225" type="curve" smooth="yes"/>
      <point x="305" y="225"/>
      <point x="355" y="240"/>
      <point x="387" y="311" type="curve"/>
      <point x="387" y="242"/>
      <point x="387.0" y="163.28782"/>
      <point x="357.0448579856095" y="104.23865530433062" type="curve" smooth="yes"/>
      <point x="335.0774769216" y="60.93539029759999"/>
      <point x="297.00048000000004" y="27.99999999999998"/>
      <point x="231" y="28" type="curve" smooth="yes"/>
      <point x="200" y="28"/>
      <point x="164" y="36"/>
      <point x="143" y="52" type="curve"/>
      <point x="172" y="58"/>
      <point x="193" y="79"/>
      <point x="193" y="111" type="curve" smooth="yes"/>
      <point x="193" y="147"/>
      <point x="166" y="170"/>
      <point x="134" y="170" type="curve" smooth="yes"/>
      <point x="108" y="170"/>
      <point x="75" y="153"/>
      <point x="75" y="109" type="curve" smooth="yes"/>
      <point x="75" y="39"/>
      <point x="130" y="-12"/>
    </contour>
    <contour>
      <point x="273" y="258" type="curve" smooth="yes"/>
      <point x="241.00023" y="258.0"/>
      <point x="219.3437456571" y="266.4626882649"/>
      <point x="204.68728674835558" y="281.2267652566349" type="curve" smooth="yes"/>
      <point x="174.0" y="312.1393797593"/>
      <point x="174.0" y="370.67654000000005"/>
      <point x="174" y="437" type="curve" smooth="yes"/>
      <point x="174.0" y="493.36736"/>
      <point x="174.0" y="546.6319082096"/>
      <point x="196.06459109142088" y="581.0043042147557" type="curve" smooth="yes"/>
      <point x="211.57849835040003" y="605.1719926928"/>
      <point x="238.00044000000003" y="620.0"/>
      <point x="283" y="620" type="curve" smooth="yes"/>
      <point x="347" y="620"/>
      <point x="370" y="563"/>
      <point x="374" y="552" type="curve" smooth="yes"/>
      <point x="384" y="522"/>
      <point x="386" y="460"/>
      <point x="386" y="427" type="curve" smooth="yes"/>
      <point x="386" y="357"/>
      <point x="357" y="258"/>
    </contour>
  </outline>
</glyph>
<glyph name="semicolon" format="2">
	<unicode hex="003B"/>
	<advance width="624"/>
	<outline>
		<contour>
			<point x="312" y="600" type="curve" smooth="yes"/>
			<point x="390" y="600"/>
			<point x="456" y="662"/>
			<point x="456" y="744" type="curve" smooth="yes"/>
			<point x="456" y="826"/>
			<point x="390" y="888"/>
			<point x="312" y="888" type="curve" smooth="yes"/>
			<point x="234" y="888"/>
			<point x="168" y="826"/>
			<point x="168" y="744" type="curve" smooth="yes"/>
			<point x="168" y="662"/>
			<point x="234" y="600"/>
		</contour>
		<contour>
			<point x="256" y="-388" type="curve" smooth="yes"/>
			<point x="282" y="-388"/>
			<point x="462" y="-214"/>
			<point x="462" y="50" type="curve" smooth="yes"/>
			<point x="462" y="166"/>
			<point x="422" y="288"/>
			<point x="310" y="288" type="curve" smooth="yes"/>
			<point x="222" y="288"/>
			<point x="168" y="220"/>
			<point x="168" y="144" type="curve" smooth="yes"/>
			<point x="168" y="72"/>
			<point x="218" y="0"/>
			<point x="312" y="0" type="curve" smooth="yes"/>
			<point x="364" y="0"/>
			<point x="394" y="24"/>
			<point x="396" y="24" type="curve"/>
			<point x="386" y="-148"/>
			<point x="302" y="-258"/>
			<point x="240" y="-320" type="curve"/>
			<point x="220" y="-338"/>
			<point x="220" y="-342"/>
			<point x="220" y="-350" type="curve" smooth="yes"/>
			<point x="220" y="-368"/>
			<point x="244" y="-388"/>
		</contour>
	</outline>
</glyph>
<glyph name="equal" format="2">
	<unicode hex="003D"/>
	<advance width="875"/>
	<outline>
		<contour>
			<point x="771" y="331" type="line" smooth="yes"/>
			<point x="786" y="331"/>
			<point x="812" y="331"/>
			<point x="812" y="359" type="curve" smooth="yes"/>
			<point x="812" y="386"/>
			<point x="785" y="386"/>
			<point x="772" y="386" type="curve" smooth="yes"/>
			<point x="102" y="386" type="line" smooth="yes"/>
			<point x="89" y="386"/>
			<point x="62" y="386"/>
			<point x="62" y="359" type="curve" smooth="yes"/>
			<point x="62" y="331"/>
			<point x="88" y="331"/>
			<point x="103" y="331" type="curve" smooth="yes"/>
		</contour>
		<contour>
			<point x="772" y="113" type="line" smooth="yes"/>
			<point x="785" y="113"/>
			<point x="812" y="113"/>
			<point x="812" y="140" type="curve" smooth="yes"/>
			<point x="812" y="168"/>
			<point x="786" y="168"/>
			<point x="771" y="168" type="curve" smooth="yes"/>
			<point x="103" y="168" type="line" smooth="yes"/>
			<point x="88" y="168"/>
			<point x="62" y="168"/>
			<point x="62" y="140" type="curve" smooth="yes"/>
			<point x="62" y="113"/>
			<point x="89" y="113"/>
			<point x="102" y="113" type="curve" smooth="yes"/>
		</contour>
	</outline>
</glyph>
<glyph name="question" format="2">
	<unicode hex="003F"/>
	<advance width="1062"/>
	<outline>
		<contour>
			<point x="936" y="1140" type="curve" smooth="yes"/>
			<point x="936" y="1400"/>
			<point x="584" y="1400"/>
			<point x="512" y="1400" type="curve" smooth="yes"/>
			<point x="252" y="1400"/>
			<point x="124" y="1276"/>
			<point x="124" y="1142" type="curve" smooth="yes"/>
			<point x="124" y="1060"/>
			<point x="184" y="1022"/>
			<point x="242" y="1022" type="curve" smooth="yes"/>
			<point x="306" y="1022"/>
			<point x="360" y="1066"/>
			<point x="360" y="1140" type="curve" smooth="yes"/>
			<point x="360" y="1174"/>
			<point x="346" y="1240"/>
			<point x="262" y="1256" type="curve"/>
			<point x="344" y="1330"/>
			<point x="458" y="1334"/>
			<point x="502" y="1334" type="curve" smooth="yes"/>
			<point x="690" y="1334"/>
			<point x="696" y="1254"/>
			<point x="696" y="1154" type="curve" smooth="yes"/>
			<point x="696" y="1044"/>
			<point x="672" y="1018"/>
			<point x="636" y="984" type="curve" smooth="yes"/>
			<point x="456" y="798"/>
			<point x="456" y="594"/>
			<point x="456" y="518" type="curve" smooth="yes"/>
			<point x="456" y="501"/>
			<point x="456" y="483"/>
			<point x="456" y="466" type="curve" smooth="yes"/>
			<point x="456" y="434"/>
			<point x="478" y="434"/>
			<point x="498" y="434" type="curve" smooth="yes"/>
			<point x="540" y="434"/>
			<point x="540" y="444"/>
			<point x="540" y="486" type="curve" smooth="yes"/>
			<point x="540" y="538" type="line" smooth="yes"/>
			<point x="540" y="714"/>
			<point x="654" y="842"/>
			<point x="804" y="932" type="curve" smooth="yes"/>
			<point x="846" y="958"/>
			<point x="936" y="1012"/>
		</contour>
		<contour>
			<point x="642" y="144" type="curve" smooth="yes"/>
			<point x="642" y="224"/>
			<point x="578" y="288"/>
			<point x="498" y="288" type="curve" smooth="yes"/>
			<point x="418" y="288"/>
			<point x="354" y="224"/>
			<point x="354" y="144" type="curve" smooth="yes"/>
			<point x="354" y="64"/>
			<point x="418" y="0"/>
			<point x="498" y="0" type="curve" smooth="yes"/>
			<point x="578" y="0"/>
			<point x="642" y="64"/>
		</contour>
	</outline>
</glyph>
<glyph name="A" format="2">
	<unicode hex="0041"/>
	<advance width="1698"/>
	<outline>
		<contour>
			<point x="850" y="1400" type="curve" smooth="yes"/>
			<point x="800" y="1400"/>
			<point x="796" y="1390"/>
			<point x="782" y="1354" type="curve" smooth="yes"/>
			<point x="286" y="134" type="line" smooth="yes"/>
			<point x="268" y="88"/>
			<point x="244" y="86"/>
			<point x="78" y="86" type="curve"/>
			<point x="78" y="0" type="line"/>
			<point x="130" y="4"/>
			<point x="250" y="4"/>
			<point x="308" y="4" type="curve" smooth="yes"/>
			<point x="362" y="4"/>
			<point x="508" y="4"/>
			<point x="554" y="0" type="curve"/>
			<point x="554" y="86" type="line"/>
			<point x="510" y="86"/>
			<point x="434" y="86"/>
			<point x="378" y="108" type="curve"/>
			<point x="380" y="116"/>
			<point x="384" y="128"/>
			<point x="388" y="138" type="curve" smooth="yes"/>
			<point x="494" y="398" type="line"/>
			<point x="1030" y="398" type="line"/>
			<point x="1156" y="86" type="line"/>
			<point x="1156" y="86"/>
			<point x="1156" y="86"/>
			<point x="1156" y="86" type="curve"/>
			<point x="1093" y="86"/>
			<point x="1031" y="86"/>
			<point x="968" y="86" type="curve"/>
			<point x="968" y="0" type="line"/>
			<point x="1032" y="4"/>
			<point x="1226" y="4"/>
			<point x="1302" y="4" type="curve" smooth="yes"/>
			<point x="1366" y="4"/>
			<point x="1570" y="4"/>
			<point x="1620" y="0" type="curve"/>
			<point x="1620" y="86" type="line"/>
			<point x="1620" y="86" type="line"/>
			<point x="1557" y="86"/>
			<point x="1493" y="86"/>
			<point x="1430" y="86" type="curve"/>
			<point x="916" y="1354" type="line" smooth="yes"/>
			<point x="902" y="1390"/>
			<point x="898" y="1400"/>
		</contour>
		<contour>
			<point x="762" y="1060" type="line"/>
			<point x="994" y="484" type="line"/>
			<point x="528" y="484" type="line"/>
		</contour>
	</outline>
</glyph>
<glyph name="B" format="2">
	<unicode hex="0042"/>
	<advance width="1598"/>
	<outline>
		<contour>
			<point x="1474" y="370" type="curve" smooth="yes"/>
			<point x="1474" y="560"/>
			<point x="1308" y="698"/>
			<point x="1066" y="716" type="curve"/>
			<point x="1354" y="770"/>
			<point x="1410" y="934"/>
			<point x="1410" y="1028" type="curve" smooth="yes"/>
			<point x="1410" y="1212"/>
			<point x="1242" y="1372"/>
			<point x="922" y="1372" type="curve" smooth="yes"/>
			<point x="78" y="1372" type="line"/>
			<point x="78" y="1286" type="line"/>
			<point x="78" y="1286" type="line"/>
			<point x="149" y="1286"/>
			<point x="219" y="1286"/>
			<point x="290" y="1286" type="curve"/>
			<point x="290" y="86" type="line"/>
			<point x="219" y="86"/>
			<point x="149" y="86"/>
			<point x="78" y="86" type="curve"/>
			<point x="78" y="86" type="line"/>
			<point x="78" y="0" type="line"/>
			<point x="982" y="0" type="line" smooth="yes"/>
			<point x="1312" y="0"/>
			<point x="1474" y="178"/>
		</contour>
		<contour>
			<point x="536" y="746" type="line"/>
			<point x="536" y="1286" type="line"/>
			<point x="536" y="1286"/>
			<point x="536" y="1286"/>
			<point x="536" y="1286" type="curve"/>
			<point x="898" y="1286" type="line" smooth="yes"/>
			<point x="1104" y="1286"/>
			<point x="1146" y="1130"/>
			<point x="1146" y="1030" type="curve" smooth="yes"/>
			<point x="1146" y="890"/>
			<point x="1068" y="746"/>
			<point x="834" y="746" type="curve" smooth="yes"/>
		</contour>
		<contour>
			<point x="904" y="86" type="curve" smooth="yes"/>
			<point x="536" y="86" type="line"/>
			<point x="536" y="86"/>
			<point x="536" y="86"/>
			<point x="536" y="86" type="curve"/>
			<point x="536" y="680" type="line"/>
			<point x="934" y="680" type="line" smooth="yes"/>
			<point x="1168" y="680"/>
			<point x="1202" y="464"/>
			<point x="1202" y="374" type="curve" smooth="yes"/>
			<point x="1202" y="248"/>
			<point x="1134" y="86"/>
		</contour>
	</outline>
</glyph>
<glyph name="D" format="2">
	<unicode hex="0044"/>
	<advance width="1724"/>
	<outline>
		<contour>
			<point x="1598" y="674" type="curve" smooth="yes"/>
			<point x="1598" y="1126"/>
			<point x="1294" y="1372"/>
			<point x="918" y="1372" type="curve" smooth="yes"/>
			<point x="76" y="1372" type="line"/>
			<point x="76" y="1286" type="line"/>
			<point x="147" y="1286"/>
			<point x="217" y="1286"/>
			<point x="288" y="1286" type="curve"/>
			<point x="288" y="1286"/>
			<point x="288" y="1286"/>
			<point x="288" y="1286" type="curve"/>
			<point x="288" y="86" type="line"/>
			<point x="288" y="86"/>
			<point x="288" y="86"/>
			<point x="288" y="86" type="curve"/>
			<point x="217" y="86"/>
			<point x="147" y="86"/>
			<point x="76" y="86" type="curve"/>
			<point x="76" y="0" type="line"/>
			<point x="918" y="0" type="line" smooth="yes"/>
			<point x="1302" y="0"/>
			<point x="1598" y="246"/>
		</contour>
		<contour>
			<point x="542" y="86" type="line"/>
			<point x="542" y="86"/>
			<point x="542" y="86"/>
			<point x="542" y="86" type="curve"/>
			<point x="542" y="1286" type="line"/>
			<point x="542" y="1286"/>
			<point x="542" y="1286"/>
			<point x="542" y="1286" type="curve"/>
			<point x="842" y="1286" type="line" smooth="yes"/>
			<point x="1016" y="1286"/>
			<point x="1156" y="1218"/>
			<point x="1230" y="1114" type="curve" smooth="yes"/>
			<point x="1288" y="1032"/>
			<point x="1326" y="934"/>
			<point x="1326" y="676" type="curve" smooth="yes"/>
			<point x="1326" y="442"/>
			<point x="1296" y="338"/>
			<point x="1226" y="244" type="curve" smooth="yes"/>
			<point x="1156" y="152"/>
			<point x="1022" y="86"/>
			<point x="842" y="86" type="curve" smooth="yes"/>
		</contour>
	</outline>
</glyph>
<glyph name="E" format="2">
	<unicode hex="0045"/>
	<advance width="1476"/>
	<outline>
		<contour>
			<point x="1412" y="540" type="line"/>
			<point x="1328" y="540" type="line"/>
			<point x="1286" y="242"/>
			<point x="1212" y="86"/>
			<point x="864" y="86" type="curve" smooth="yes"/>
			<point x="552" y="86" type="line"/>
			<point x="552" y="86"/>
			<point x="552" y="86"/>
			<point x="552" y="86" type="curve"/>
			<point x="552" y="664" type="line"/>
			<point x="670" y="664" type="line" smooth="yes"/>
			<point x="862" y="664"/>
			<point x="882" y="582"/>
			<point x="882" y="430" type="curve"/>
			<point x="966" y="430" type="line"/>
			<point x="966" y="984" type="line"/>
			<point x="882" y="984" type="line"/>
			<point x="882" y="834"/>
			<point x="862" y="750"/>
			<point x="670" y="750" type="curve" smooth="yes"/>
			<point x="552" y="750" type="line"/>
			<point x="552" y="1276" type="line"/>
			<point x="552" y="1276"/>
			<point x="552" y="1276"/>
			<point x="552" y="1276" type="curve"/>
			<point x="864" y="1276" type="line" smooth="yes"/>
			<point x="1170" y="1276"/>
			<point x="1236" y="1146"/>
			<point x="1266" y="888" type="curve"/>
			<point x="1350" y="888" type="line"/>
			<point x="1292" y="1362" type="line"/>
			<point x="76" y="1362" type="line"/>
			<point x="76" y="1276" type="line"/>
			<point x="288" y="1276" type="line"/>
			<point x="288" y="1276"/>
			<point x="288" y="1276"/>
			<point x="288" y="1276" type="curve"/>
			<point x="288" y="86" type="line"/>
			<point x="288" y="86"/>
			<point x="288" y="86"/>
			<point x="288" y="86" type="curve"/>
			<point x="76" y="86" type="line"/>
			<point x="76" y="0" type="line"/>
			<point x="1326" y="0" type="line"/>
		</contour>
	</outline>
</glyph>
<glyph name="F" format="2">
	<unicode hex="0046"/>
	<advance width="1414"/>
	<outline>
		<contour>
			<point x="1260" y="1362" type="line"/>
			<point x="76" y="1362" type="line"/>
			<point x="76" y="1276" type="line"/>
			<point x="288" y="1276" type="line"/>
			<point x="288" y="1276"/>
			<point x="288" y="1276"/>
			<point x="288" y="1276" type="curve"/>
			<point x="288" y="86" type="line"/>
			<point x="288" y="86"/>
			<point x="288" y="86"/>
			<point x="288" y="86" type="curve"/>
			<point x="76" y="86" type="line"/>
			<point x="76" y="0" type="line"/>
			<point x="134" y="4"/>
			<point x="362" y="4"/>
			<point x="436" y="4" type="curve" smooth="yes"/>
			<point x="542" y="4"/>
			<point x="720" y="4"/>
			<point x="818" y="0" type="curve"/>
			<point x="818" y="86" type="line"/>
			<point x="552" y="86" type="line"/>
			<point x="552" y="86"/>
			<point x="552" y="86"/>
			<point x="552" y="86" type="curve"/>
			<point x="552" y="638" type="line"/>
			<point x="662" y="638" type="line" smooth="yes"/>
			<point x="854" y="638"/>
			<point x="870" y="550"/>
			<point x="870" y="404" type="curve"/>
			<point x="954" y="404" type="line"/>
			<point x="954" y="958" type="line"/>
			<point x="870" y="958" type="line"/>
			<point x="870" y="812"/>
			<point x="854" y="724"/>
			<point x="662" y="724" type="curve" smooth="yes"/>
			<point x="552" y="724" type="line"/>
			<point x="552" y="1276" type="line"/>
			<point x="552" y="1276"/>
			<point x="552" y="1276"/>
			<point x="552" y="1276" type="curve"/>
			<point x="838" y="1276" type="line" smooth="yes"/>
			<point x="1156" y="1276"/>
			<point x="1206" y="1130"/>
			<point x="1234" y="888" type="curve"/>
			<point x="1318" y="888" type="line"/>
		</contour>
	</outline>
</glyph>
<glyph name="G" format="2">
	<unicode hex="0047"/>
	<advance width="1768"/>
	<outline>
		<contour>
			<point x="912" y="-24" type="curve" smooth="yes"/>
			<point x="998" y="-24"/>
			<point x="1092" y="-12"/>
			<point x="1172" y="24" type="curve" smooth="yes"/>
			<point x="1216" y="44"/>
			<point x="1256" y="74"/>
			<point x="1286" y="112" type="curve"/>
			<point x="1354" y="48"/>
			<point x="1468" y="0"/>
			<point x="1474" y="0" type="curve" smooth="yes"/>
			<point x="1498" y="0"/>
			<point x="1498" y="20"/>
			<point x="1498" y="52" type="curve" smooth="yes"/>
			<point x="1498" y="188"/>
			<point x="1498" y="324"/>
			<point x="1498" y="460" type="curve"/>
			<point x="1550" y="460"/>
			<point x="1602" y="460"/>
			<point x="1654" y="460" type="curve"/>
			<point x="1654" y="460"/>
			<point x="1654" y="460"/>
			<point x="1654" y="460" type="curve"/>
			<point x="1654" y="489"/>
			<point x="1654" y="517"/>
			<point x="1654" y="546" type="curve"/>
			<point x="1606" y="542"/>
			<point x="1392" y="542"/>
			<point x="1328" y="542" type="curve" smooth="yes"/>
			<point x="1206" y="542"/>
			<point x="1074" y="542"/>
			<point x="952" y="546" type="curve"/>
			<point x="952" y="517"/>
			<point x="952" y="489"/>
			<point x="952" y="460" type="curve"/>
			<point x="1046" y="460"/>
			<point x="1140" y="460"/>
			<point x="1234" y="460" type="curve"/>
			<point x="1234" y="460"/>
			<point x="1234" y="460"/>
			<point x="1234" y="460" type="curve"/>
			<point x="1234" y="392"/>
			<point x="1234" y="324"/>
			<point x="1234" y="256" type="curve" smooth="yes"/>
			<point x="1234" y="214"/>
			<point x="1234" y="158"/>
			<point x="1154" y="108" type="curve" smooth="yes"/>
			<point x="1114" y="82"/>
			<point x="1052" y="62"/>
			<point x="968" y="62" type="curve" smooth="yes"/>
			<point x="854" y="62"/>
			<point x="656" y="90"/>
			<point x="532" y="236" type="curve" smooth="yes"/>
			<point x="454" y="326"/>
			<point x="406" y="448"/>
			<point x="406" y="688" type="curve" smooth="yes"/>
			<point x="406" y="894"/>
			<point x="440" y="1034"/>
			<point x="530" y="1140" type="curve" smooth="yes"/>
			<point x="658" y="1290"/>
			<point x="858" y="1310"/>
			<point x="954" y="1310" type="curve" smooth="yes"/>
			<point x="1104" y="1310"/>
			<point x="1346" y="1226"/>
			<point x="1406" y="874" type="curve" smooth="yes"/>
			<point x="1410" y="856"/>
			<point x="1428" y="856"/>
			<point x="1452" y="856" type="curve" smooth="yes"/>
			<point x="1498" y="856"/>
			<point x="1498" y="860"/>
			<point x="1498" y="908" type="curve" smooth="yes"/>
			<point x="1498" y="1053"/>
			<point x="1498" y="1198"/>
			<point x="1498" y="1344" type="curve" smooth="yes"/>
			<point x="1498" y="1390"/>
			<point x="1498" y="1396"/>
			<point x="1454" y="1396" type="curve"/>
			<point x="1454" y="1396"/>
			<point x="1454" y="1396"/>
			<point x="1454" y="1396" type="curve"/>
			<point x="1404" y="1348"/>
			<point x="1354" y="1300"/>
			<point x="1304" y="1252" type="curve"/>
			<point x="1192" y="1348"/>
			<point x="1058" y="1396"/>
			<point x="910" y="1396" type="curve" smooth="yes"/>
			<point x="432" y="1396"/>
			<point x="124" y="1106"/>
			<point x="124" y="686" type="curve" smooth="yes"/>
			<point x="124" y="274"/>
			<point x="422" y="-24"/>
		</contour>
	</outline>
</glyph>
<glyph name="H" format="2">
	<unicode hex="0048"/>
	<advance width="1758"/>
	<outline>
		<contour>
			<point x="76" y="0" type="line"/>
			<point x="134" y="4"/>
			<point x="348" y="4"/>
			<point x="420" y="4" type="curve" smooth="yes"/>
			<point x="492" y="4"/>
			<point x="706" y="4"/>
			<point x="764" y="0" type="curve"/>
			<point x="764" y="86" type="line"/>
			<point x="764" y="86" type="line"/>
			<point x="693" y="86"/>
			<point x="623" y="86"/>
			<point x="552" y="86" type="curve"/>
			<point x="552" y="670" type="line"/>
			<point x="1206" y="670" type="line"/>
			<point x="1206" y="86" type="line"/>
			<point x="1135" y="86"/>
			<point x="1065" y="86"/>
			<point x="994" y="86" type="curve"/>
			<point x="994" y="86" type="line"/>
			<point x="994" y="0" type="line"/>
			<point x="1052" y="4"/>
			<point x="1266" y="4"/>
			<point x="1338" y="4" type="curve" smooth="yes"/>
			<point x="1410" y="4"/>
			<point x="1624" y="4"/>
			<point x="1682" y="0" type="curve"/>
			<point x="1682" y="86" type="line"/>
			<point x="1682" y="86" type="line"/>
			<point x="1611" y="86"/>
			<point x="1541" y="86"/>
			<point x="1470" y="86" type="curve"/>
			<point x="1470" y="1286" type="line"/>
			<point x="1541" y="1286"/>
			<point x="1611" y="1286"/>
			<point x="1682" y="1286" type="curve"/>
			<point x="1682" y="1286" type="line"/>
			<point x="1682" y="1372" type="line"/>
			<point x="1624" y="1368"/>
			<point x="1410" y="1368"/>
			<point x="1338" y="1368" type="curve" smooth="yes"/>
			<point x="1266" y="1368"/>
			<point x="1052" y="1368"/>
			<point x="994" y="1372" type="curve"/>
			<point x="994" y="1286" type="line"/>
			<point x="994" y="1286" type="line"/>
			<point x="1065" y="1286"/>
			<point x="1135" y="1286"/>
			<point x="1206" y="1286" type="curve"/>
			<point x="1206" y="756" type="line"/>
			<point x="552" y="756" type="line"/>
			<point x="552" y="1286" type="line"/>
			<point x="623" y="1286"/>
			<point x="693" y="1286"/>
			<point x="764" y="1286" type="curve"/>
			<point x="764" y="1286" type="line"/>
			<point x="764" y="1372" type="line"/>
			<point x="706" y="1368"/>
			<point x="492" y="1368"/>
			<point x="420" y="1368" type="curve" smooth="yes"/>
			<point x="348" y="1368"/>
			<point x="134" y="1368"/>
			<point x="76" y="1372" type="curve"/>
			<point x="76" y="1286" type="line"/>
			<point x="76" y="1286" type="line"/>
			<point x="147" y="1286"/>
			<point x="217" y="1286"/>
			<point x="288" y="1286" type="curve"/>
			<point x="288" y="86" type="line"/>
			<point x="288" y="86"/>
			<point x="288" y="86"/>
			<point x="288" y="86" type="curve"/>
			<point x="76" y="86" type="line"/>
		</contour>
	</outline>
</glyph>
<glyph name="I" format="2">
	<unicode hex="0049"/>
	<advance width="836"/>
	<outline>
		<contour>
			<point x="62" y="0" type="line"/>
			<point x="134" y="4"/>
			<point x="334" y="4"/>
			<point x="418" y="4" type="curve" smooth="yes"/>
			<point x="502" y="4"/>
			<point x="702" y="4"/>
			<point x="774" y="0" type="curve"/>
			<point x="774" y="86" type="line"/>
			<point x="550" y="86" type="line"/>
			<point x="550" y="86"/>
			<point x="550" y="86"/>
			<point x="550" y="86" type="curve"/>
			<point x="550" y="1286" type="line"/>
			<point x="550" y="1286"/>
			<point x="550" y="1286"/>
			<point x="550" y="1286" type="curve"/>
			<point x="774" y="1286" type="line"/>
			<point x="774" y="1372" type="line"/>
			<point x="702" y="1368"/>
			<point x="502" y="1368"/>
			<point x="418" y="1368" type="curve" smooth="yes"/>
			<point x="334" y="1368"/>
			<point x="134" y="1368"/>
			<point x="62" y="1372" type="curve"/>
			<point x="62" y="1286" type="line"/>
			<point x="286" y="1286" type="line"/>
			<point x="286" y="1286"/>
			<point x="286" y="1286"/>
			<point x="286" y="1286" type="curve"/>
			<point x="286" y="86" type="line"/>
			<point x="286" y="86"/>
			<point x="286" y="86"/>
			<point x="286" y="86" type="curve"/>
			<point x="62" y="86" type="line"/>
		</contour>
	</outline>
</glyph>
<glyph name="J" format="2">
	<unicode hex="004A"/>
	<advance width="1162"/>
	<outline>
		<contour>
			<point x="432" y="-24" type="curve" smooth="yes"/>
			<point x="688" y="-24"/>
			<point x="872" y="92"/>
			<point x="872" y="298" type="curve" smooth="yes"/>
			<point x="872" y="1286" type="line"/>
			<point x="872" y="1286"/>
			<point x="872" y="1286"/>
			<point x="872" y="1286" type="curve"/>
			<point x="1032" y="1286" type="line"/>
			<point x="1032" y="1372" type="line"/>
			<point x="982" y="1368"/>
			<point x="776" y="1368"/>
			<point x="712" y="1368" type="curve" smooth="yes"/>
			<point x="608" y="1368"/>
			<point x="440" y="1368"/>
			<point x="342" y="1372" type="curve"/>
			<point x="342" y="1286" type="line"/>
			<point x="618" y="1286" type="line"/>
			<point x="618" y="1286"/>
			<point x="618" y="1286"/>
			<point x="618" y="1286" type="curve"/>
			<point x="618" y="298" type="line" smooth="yes"/>
			<point x="618" y="110"/>
			<point x="526" y="42"/>
			<point x="422" y="42" type="curve" smooth="yes"/>
			<point x="408" y="42"/>
			<point x="316" y="42"/>
			<point x="238" y="92" type="curve"/>
			<point x="310" y="110"/>
			<point x="344" y="168"/>
			<point x="344" y="228" type="curve" smooth="yes"/>
			<point x="344" y="326"/>
			<point x="266" y="370"/>
			<point x="204" y="370" type="curve" smooth="yes"/>
			<point x="132" y="370"/>
			<point x="62" y="320"/>
			<point x="62" y="228" type="curve" smooth="yes"/>
			<point x="62" y="78"/>
			<point x="216" y="-24"/>
		</contour>
	</outline>
</glyph>
<glyph name="L" format="2">
	<unicode hex="004C"/>
	<advance width="1350"/>
	<outline>
		<contour>
			<point x="1256" y="540" type="line"/>
			<point x="1172" y="540" type="line"/>
			<point x="1158" y="402"/>
			<point x="1126" y="86"/>
			<point x="766" y="86" type="curve" smooth="yes"/>
			<point x="552" y="86" type="line"/>
			<point x="552" y="86"/>
			<point x="552" y="86"/>
			<point x="552" y="86" type="curve"/>
			<point x="552" y="1286" type="line"/>
			<point x="552" y="1286"/>
			<point x="552" y="1286"/>
			<point x="552" y="1286" type="curve"/>
			<point x="818" y="1286" type="line"/>
			<point x="818" y="1372" type="line"/>
			<point x="720" y="1368"/>
			<point x="542" y="1368"/>
			<point x="436" y="1368" type="curve" smooth="yes"/>
			<point x="362" y="1368"/>
			<point x="134" y="1368"/>
			<point x="76" y="1372" type="curve"/>
			<point x="76" y="1286" type="line"/>
			<point x="288" y="1286" type="line"/>
			<point x="288" y="1286"/>
			<point x="288" y="1286"/>
			<point x="288" y="1286" type="curve"/>
			<point x="288" y="86" type="line"/>
			<point x="288" y="86"/>
			<point x="288" y="86"/>
			<point x="288" y="86" type="curve"/>
			<point x="76" y="86" type="line"/>
			<point x="76" y="0" type="line"/>
			<point x="1198" y="0" type="line"/>
		</contour>
	</outline>
</glyph>
<glyph name="M" format="2">
	<unicode hex="004D"/>
	<advance width="2134"/>
	<outline>
		<contour>
			<point x="1066" y="254" type="line"/>
			<point x="586" y="1330" type="line" smooth="yes"/>
			<point x="568" y="1372"/>
			<point x="550" y="1372"/>
			<point x="508" y="1372" type="curve" smooth="yes"/>
			<point x="82" y="1372" type="line"/>
			<point x="82" y="1286" type="line"/>
			<point x="294" y="1286" type="line"/>
			<point x="294" y="1286"/>
			<point x="294" y="1286"/>
			<point x="294" y="1286" type="curve"/>
			<point x="294" y="146" type="line" smooth="yes"/>
			<point x="294" y="94"/>
			<point x="282" y="86"/>
			<point x="128" y="86" type="curve" smooth="yes"/>
			<point x="82" y="86" type="line"/>
			<point x="82" y="0" type="line"/>
			<point x="128" y="4"/>
			<point x="284" y="4"/>
			<point x="340" y="4" type="curve" smooth="yes"/>
			<point x="396" y="4"/>
			<point x="554" y="4"/>
			<point x="600" y="0" type="curve"/>
			<point x="600" y="86" type="line"/>
			<point x="554" y="86" type="line" smooth="yes"/>
			<point x="416" y="86"/>
			<point x="388" y="86"/>
			<point x="388" y="146" type="curve" smooth="yes"/>
			<point x="388" y="1262" type="line"/>
			<point x="390" y="1262" type="line"/>
			<point x="934" y="42" type="line" smooth="yes"/>
			<point x="944" y="20"/>
			<point x="956" y="0"/>
			<point x="990" y="0" type="curve" smooth="yes"/>
			<point x="1024" y="0"/>
			<point x="1036" y="20"/>
			<point x="1046" y="42" type="curve" smooth="yes"/>
			<point x="1600" y="1286" type="line"/>
			<point x="1602" y="1286" type="line"/>
			<point x="1602" y="86" type="line"/>
			<point x="1602" y="86"/>
			<point x="1602" y="86"/>
			<point x="1602" y="86" type="curve"/>
			<point x="1390" y="86" type="line"/>
			<point x="1390" y="0" type="line"/>
			<point x="1444" y="4"/>
			<point x="1652" y="4"/>
			<point x="1720" y="4" type="curve" smooth="yes"/>
			<point x="1788" y="4"/>
			<point x="1996" y="4"/>
			<point x="2050" y="0" type="curve"/>
			<point x="2050" y="86" type="line"/>
			<point x="1838" y="86" type="line"/>
			<point x="1838" y="86"/>
			<point x="1838" y="86"/>
			<point x="1838" y="86" type="curve"/>
			<point x="1838" y="1286" type="line"/>
			<point x="1838" y="1286"/>
			<point x="1838" y="1286"/>
			<point x="1838" y="1286" type="curve"/>
			<point x="2050" y="1286" type="line"/>
			<point x="2050" y="1372" type="line"/>
			<point x="1624" y="1372" type="line" smooth="yes"/>
			<point x="1582" y="1372"/>
			<point x="1564" y="1372"/>
			<point x="1546" y="1330" type="curve" smooth="yes"/>
		</contour>
	</outline>
</glyph>
<glyph name="N" format="2">
	<unicode hex="004E"/>
	<advance width="1758"/>
	<outline>
		<contour>
			<point x="1376" y="390" type="line"/>
			<point x="580" y="1348" type="line" smooth="yes"/>
			<point x="560" y="1370"/>
			<point x="558" y="1372"/>
			<point x="518" y="1372" type="curve" smooth="yes"/>
			<point x="76" y="1372" type="line"/>
			<point x="76" y="1286" type="line"/>
			<point x="76" y="1286" type="line"/>
			<point x="147" y="1286"/>
			<point x="217" y="1286"/>
			<point x="288" y="1286" type="curve"/>
			<point x="288" y="1286"/>
			<point x="288" y="1286"/>
			<point x="288" y="1286" type="curve"/>
			<point x="288" y="146" type="line" smooth="yes"/>
			<point x="288" y="92"/>
			<point x="286" y="86"/>
			<point x="76" y="86" type="curve"/>
			<point x="76" y="86" type="line"/>
			<point x="76" y="0" type="line"/>
			<point x="122" y="4"/>
			<point x="278" y="4"/>
			<point x="334" y="4" type="curve" smooth="yes"/>
			<point x="390" y="4"/>
			<point x="548" y="4"/>
			<point x="594" y="0" type="curve"/>
			<point x="594" y="86" type="line"/>
			<point x="594" y="86" type="line"/>
			<point x="388" y="86"/>
			<point x="382" y="92"/>
			<point x="382" y="146" type="curve" smooth="yes"/>
			<point x="382" y="1218" type="line"/>
			<point x="382" y="1218"/>
			<point x="382" y="1218"/>
			<point x="382" y="1218" type="curve"/>
			<point x="1372" y="26" type="line" smooth="yes"/>
			<point x="1394" y="0"/>
			<point x="1396" y="0"/>
			<point x="1422" y="0" type="curve" smooth="yes"/>
			<point x="1470" y="0"/>
			<point x="1470" y="12"/>
			<point x="1470" y="58" type="curve" smooth="yes"/>
			<point x="1470" y="1226" type="line" smooth="yes"/>
			<point x="1470" y="1282"/>
			<point x="1484" y="1286"/>
			<point x="1682" y="1286" type="curve"/>
			<point x="1682" y="1286" type="line"/>
			<point x="1682" y="1372" type="line"/>
			<point x="1636" y="1368"/>
			<point x="1480" y="1368"/>
			<point x="1424" y="1368" type="curve" smooth="yes"/>
			<point x="1368" y="1368"/>
			<point x="1210" y="1368"/>
			<point x="1164" y="1372" type="curve"/>
			<point x="1164" y="1286" type="line"/>
			<point x="1164" y="1286" type="line"/>
			<point x="1378" y="1286"/>
			<point x="1376" y="1278"/>
			<point x="1376" y="1226" type="curve" smooth="yes"/>
		</contour>
	</outline>
</glyph>
<glyph name="P" format="2">
	<unicode hex="0050"/>
	<advance width="1536"/>
	<outline>
		<contour>
			<point x="552" y="610" type="line"/>
			<point x="892" y="610" type="line" smooth="yes"/>
			<point x="1226" y="610"/>
			<point x="1412" y="780"/>
			<point x="1412" y="986" type="curve" smooth="yes"/>
			<point x="1412" y="1202"/>
			<point x="1222" y="1372"/>
			<point x="892" y="1372" type="curve" smooth="yes"/>
			<point x="76" y="1372" type="line"/>
			<point x="76" y="1286" type="line"/>
			<point x="288" y="1286" type="line"/>
			<point x="288" y="1286"/>
			<point x="288" y="1286"/>
			<point x="288" y="1286" type="curve"/>
			<point x="288" y="86" type="line"/>
			<point x="288" y="86"/>
			<point x="288" y="86"/>
			<point x="288" y="86" type="curve"/>
			<point x="76" y="86" type="line"/>
			<point x="76" y="0" type="line"/>
			<point x="134" y="4"/>
			<point x="348" y="4"/>
			<point x="420" y="4" type="curve" smooth="yes"/>
			<point x="492" y="4"/>
			<point x="706" y="4"/>
			<point x="764" y="0" type="curve"/>
			<point x="764" y="86" type="line"/>
			<point x="552" y="86" type="line"/>
			<point x="552" y="86"/>
			<point x="552" y="86"/>
			<point x="552" y="86" type="curve"/>
		</contour>
		<contour>
			<point x="542" y="686" type="line"/>
			<point x="542" y="1286" type="line"/>
			<point x="542" y="1286"/>
			<point x="542" y="1286"/>
			<point x="542" y="1286" type="curve"/>
			<point x="820" y="1286" type="line" smooth="yes"/>
			<point x="1130" y="1286"/>
			<point x="1130" y="1122"/>
			<point x="1130" y="986" type="curve" smooth="yes"/>
			<point x="1130" y="854"/>
			<point x="1130" y="686"/>
			<point x="820" y="686" type="curve" smooth="yes"/>
		</contour>
	</outline>
</glyph>
<glyph name="R" format="2">
	<unicode hex="0052"/>
	<advance width="1678"/>
	<outline>
		<contour>
			<point x="1058" y="680" type="curve"/>
			<point x="1328" y="752"/>
			<point x="1394" y="896"/>
			<point x="1394" y="1004" type="curve" smooth="yes"/>
			<point x="1394" y="1204"/>
			<point x="1184" y="1372"/>
			<point x="814" y="1372" type="curve" smooth="yes"/>
			<point x="76" y="1372" type="line"/>
			<point x="76" y="1286" type="line"/>
			<point x="288" y="1286" type="line"/>
			<point x="288" y="1286"/>
			<point x="288" y="1286"/>
			<point x="288" y="1286" type="curve"/>
			<point x="288" y="86" type="line"/>
			<point x="288" y="86"/>
			<point x="288" y="86"/>
			<point x="288" y="86" type="curve"/>
			<point x="76" y="86" type="line"/>
			<point x="76" y="0" type="line"/>
			<point x="134" y="4"/>
			<point x="342" y="4"/>
			<point x="414" y="4" type="curve" smooth="yes"/>
			<point x="486" y="4"/>
			<point x="696" y="4"/>
			<point x="754" y="0" type="curve"/>
			<point x="754" y="86" type="line"/>
			<point x="542" y="86" type="line"/>
			<point x="542" y="86"/>
			<point x="542" y="86"/>
			<point x="542" y="86" type="curve"/>
			<point x="542" y="654" type="line"/>
			<point x="780" y="654" type="line" smooth="yes"/>
			<point x="860" y="654"/>
			<point x="924" y="630"/>
			<point x="968" y="578" type="curve" smooth="yes"/>
			<point x="1028" y="510"/>
			<point x="1028" y="466"/>
			<point x="1028" y="332" type="curve" smooth="yes"/>
			<point x="1028" y="198"/>
			<point x="1028" y="116"/>
			<point x="1130" y="48" type="curve" smooth="yes"/>
			<point x="1234" y="-22"/>
			<point x="1398" y="-24"/>
			<point x="1442" y="-24" type="curve" smooth="yes"/>
			<point x="1646" y="-24"/>
			<point x="1670" y="156"/>
			<point x="1670" y="184" type="curve" smooth="yes"/>
			<point x="1670" y="218"/>
			<point x="1654" y="224"/>
			<point x="1628" y="224" type="curve" smooth="yes"/>
			<point x="1590" y="224"/>
			<point x="1588" y="210"/>
			<point x="1586" y="184" type="curve" smooth="yes"/>
			<point x="1576" y="84"/>
			<point x="1514" y="42"/>
			<point x="1458" y="42" type="curve" smooth="yes"/>
			<point x="1374" y="42"/>
			<point x="1339" y="100"/>
			<point x="1320" y="192" type="curve" smooth="yes"/>
			<point x="1311" y="240"/>
			<point x="1306" y="298"/>
			<point x="1300" y="360" type="curve" smooth="yes"/>
			<point x="1290" y="466"/>
			<point x="1274" y="614"/>
		</contour>
		<contour>
			<point x="542" y="720" type="line"/>
			<point x="542" y="1286" type="line"/>
			<point x="542" y="1286"/>
			<point x="542" y="1286"/>
			<point x="542" y="1286" type="curve"/>
			<point x="621" y="1286"/>
			<point x="701" y="1286"/>
			<point x="780" y="1286" type="curve" smooth="yes"/>
			<point x="1106" y="1286"/>
			<point x="1112" y="1122"/>
			<point x="1112" y="1004" type="curve" smooth="yes"/>
			<point x="1112" y="894"/>
			<point x="1110" y="720"/>
			<point x="776" y="720" type="curve" smooth="yes"/>
		</contour>
	</outline>
</glyph>
<glyph name="S" format="2">
	<unicode hex="0053"/>
	<advance width="1250"/>
	<outline>
		<contour>
			<point x="944" y="306" type="curve" smooth="yes"/>
			<point x="944" y="220"/>
			<point x="902" y="62"/>
			<point x="678" y="62" type="curve" smooth="yes"/>
			<point x="502" y="62"/>
			<point x="224" y="122"/>
			<point x="208" y="414" type="curve" smooth="yes"/>
			<point x="206" y="450"/>
			<point x="206" y="456"/>
			<point x="166" y="456" type="curve" smooth="yes"/>
			<point x="124" y="456"/>
			<point x="124" y="450"/>
			<point x="124" y="404" type="curve" smooth="yes"/>
			<point x="124" y="28" type="line" smooth="yes"/>
			<point x="124" y="-10"/>
			<point x="124" y="-24"/>
			<point x="154" y="-24" type="curve" smooth="yes"/>
			<point x="168" y="-24"/>
			<point x="170" y="-22"/>
			<point x="190" y="-4" type="curve"/>
			<point x="212" y="18"/>
			<point x="230" y="44"/>
			<point x="280" y="94" type="curve"/>
			<point x="396" y="2"/>
			<point x="560" y="-24"/>
			<point x="680" y="-24" type="curve" smooth="yes"/>
			<point x="992" y="-24"/>
			<point x="1124" y="188"/>
			<point x="1124" y="400" type="curve" smooth="yes"/>
			<point x="1124" y="495"/>
			<point x="1093" y="587"/>
			<point x="1034" y="662" type="curve" smooth="yes"/>
			<point x="976" y="736"/>
			<point x="890" y="793"/>
			<point x="782" y="818" type="curve" smooth="yes"/>
			<point x="691" y="839"/>
			<point x="600" y="859"/>
			<point x="508" y="880" type="curve" smooth="yes"/>
			<point x="310" y="924"/>
			<point x="304" y="1068"/>
			<point x="304" y="1096" type="curve" smooth="yes"/>
			<point x="304" y="1198"/>
			<point x="370" y="1316"/>
			<point x="564" y="1316" type="curve" smooth="yes"/>
			<point x="758" y="1316"/>
			<point x="932" y="1222"/>
			<point x="974" y="960" type="curve" smooth="yes"/>
			<point x="980" y="918"/>
			<point x="980" y="916"/>
			<point x="1018" y="916" type="curve" smooth="yes"/>
			<point x="1060" y="916"/>
			<point x="1060" y="922"/>
			<point x="1060" y="968" type="curve" smooth="yes"/>
			<point x="1060" y="1344" type="line" smooth="yes"/>
			<point x="1060" y="1382"/>
			<point x="1060" y="1396"/>
			<point x="1030" y="1396" type="curve" smooth="yes"/>
			<point x="1016" y="1396"/>
			<point x="1010" y="1394"/>
			<point x="992" y="1374" type="curve" smooth="yes"/>
			<point x="963" y="1341"/>
			<point x="935" y="1309"/>
			<point x="906" y="1276" type="curve"/>
			<point x="856" y="1318"/>
			<point x="756" y="1396"/>
			<point x="562" y="1396" type="curve" smooth="yes"/>
			<point x="276" y="1396"/>
			<point x="124" y="1216"/>
			<point x="124" y="998" type="curve" smooth="yes"/>
			<point x="124" y="864"/>
			<point x="196" y="770"/>
			<point x="224" y="742" type="curve" smooth="yes"/>
			<point x="328" y="638"/>
			<point x="384" y="626"/>
			<point x="592" y="580" type="curve" smooth="yes"/>
			<point x="792" y="536"/>
			<point x="816" y="532"/>
			<point x="860" y="490" type="curve" smooth="yes"/>
			<point x="886" y="464"/>
			<point x="944" y="408"/>
		</contour>
	</outline>
</glyph>
<glyph name="T" format="2">
	<unicode hex="0054"/>
	<advance width="1564"/>
	<outline>
		<contour>
			<point x="1440" y="1354" type="line"/>
			<point x="122" y="1354" type="line"/>
			<point x="82" y="880" type="line"/>
			<point x="166" y="880" type="line"/>
			<point x="184" y="1098"/>
			<point x="200" y="1268"/>
			<point x="488" y="1268" type="curve" smooth="yes"/>
			<point x="542" y="1268"/>
			<point x="596" y="1268"/>
			<point x="650" y="1268" type="curve"/>
			<point x="650" y="1268"/>
			<point x="650" y="1268"/>
			<point x="650" y="1268" type="curve"/>
			<point x="650" y="86" type="line"/>
			<point x="650" y="86"/>
			<point x="650" y="86"/>
			<point x="650" y="86" type="curve"/>
			<point x="348" y="86" type="line"/>
			<point x="348" y="0" type="line"/>
			<point x="508" y="4"/>
			<point x="714" y="4"/>
			<point x="782" y="4" type="curve" smooth="yes"/>
			<point x="904" y="4"/>
			<point x="1056" y="4"/>
			<point x="1216" y="0" type="curve"/>
			<point x="1216" y="86" type="line"/>
			<point x="914" y="86" type="line"/>
			<point x="914" y="86"/>
			<point x="914" y="86"/>
			<point x="914" y="86" type="curve"/>
			<point x="914" y="1268" type="line"/>
			<point x="914" y="1268"/>
			<point x="914" y="1268"/>
			<point x="914" y="1268" type="curve"/>
			<point x="967" y="1268"/>
			<point x="1021" y="1268"/>
			<point x="1074" y="1268" type="curve" smooth="yes"/>
			<point x="1362" y="1268"/>
			<point x="1378" y="1100"/>
			<point x="1396" y="880" type="curve"/>
			<point x="1480" y="880" type="line"/>
		</contour>
	</outline>
</glyph>
<glyph name="V" format="2">
	<unicode hex="0056"/>
	<advance width="1698"/>
	<outline>
		<contour>
			<point x="848" y="-18" type="curve" smooth="yes"/>
			<point x="880" y="-18"/>
			<point x="900" y="-18"/>
			<point x="918" y="24" type="curve" smooth="yes"/>
			<point x="1448" y="1240" type="line" smooth="yes"/>
			<point x="1460" y="1266"/>
			<point x="1468" y="1286"/>
			<point x="1616" y="1286" type="curve" smooth="yes"/>
			<point x="1650" y="1286" type="line"/>
			<point x="1650" y="1372" type="line"/>
			<point x="1588" y="1368"/>
			<point x="1444" y="1368"/>
			<point x="1428" y="1368" type="curve" smooth="yes"/>
			<point x="1372" y="1368"/>
			<point x="1230" y="1368"/>
			<point x="1184" y="1372" type="curve"/>
			<point x="1184" y="1286" type="line"/>
			<point x="1228" y="1286"/>
			<point x="1302" y="1286"/>
			<point x="1358" y="1264" type="curve"/>
			<point x="1355" y="1255"/>
			<point x="1351" y="1245"/>
			<point x="1348" y="1236" type="curve"/>
			<point x="938" y="300" type="line"/>
			<point x="506" y="1286" type="line"/>
			<point x="506" y="1286"/>
			<point x="506" y="1286"/>
			<point x="506" y="1286" type="curve"/>
			<point x="568" y="1286"/>
			<point x="630" y="1286"/>
			<point x="692" y="1286" type="curve"/>
			<point x="692" y="1372" type="line"/>
			<point x="628" y="1368"/>
			<point x="436" y="1368"/>
			<point x="360" y="1368" type="curve" smooth="yes"/>
			<point x="296" y="1368"/>
			<point x="98" y="1368"/>
			<point x="48" y="1372" type="curve"/>
			<point x="48" y="1286" type="line"/>
			<point x="228" y="1286" type="line"/>
			<point x="228" y="1286"/>
			<point x="228" y="1286"/>
			<point x="228" y="1286" type="curve"/>
			<point x="780" y="24" type="line" smooth="yes"/>
			<point x="798" y="-16"/>
			<point x="816" y="-18"/>
		</contour>
	</outline>
</glyph>
<glyph name="W" format="2">
	<unicode hex="0057"/>
	<advance width="2324"/>
	<outline>
		<contour>
			<point x="842" y="342" type="line"/>
			<point x="486" y="1286" type="line"/>
			<point x="486" y="1286"/>
			<point x="486" y="1286"/>
			<point x="486" y="1286" type="curve"/>
			<point x="549" y="1286"/>
			<point x="611" y="1286"/>
			<point x="674" y="1286" type="curve"/>
			<point x="674" y="1372" type="line"/>
			<point x="616" y="1368"/>
			<point x="420" y="1368"/>
			<point x="348" y="1368" type="curve" smooth="yes"/>
			<point x="284" y="1368"/>
			<point x="94" y="1368"/>
			<point x="44" y="1372" type="curve"/>
			<point x="44" y="1286" type="line"/>
			<point x="212" y="1286" type="line"/>
			<point x="212" y="1286"/>
			<point x="212" y="1286"/>
			<point x="212" y="1286" type="curve"/>
			<point x="688" y="30" type="line" smooth="yes"/>
			<point x="702" y="-4"/>
			<point x="706" y="-18"/>
			<point x="750" y="-18" type="curve" smooth="yes"/>
			<point x="794" y="-18"/>
			<point x="800" y="-4"/>
			<point x="812" y="28" type="curve" smooth="yes"/>
			<point x="1160" y="950" type="line"/>
			<point x="1510" y="28" type="line" smooth="yes"/>
			<point x="1522" y="-4"/>
			<point x="1528" y="-18"/>
			<point x="1572" y="-18" type="curve" smooth="yes"/>
			<point x="1610" y="-18"/>
			<point x="1620" y="-10"/>
			<point x="1634" y="28" type="curve" smooth="yes"/>
			<point x="2092" y="1238" type="line" smooth="yes"/>
			<point x="2106" y="1274"/>
			<point x="2110" y="1286"/>
			<point x="2278" y="1286" type="curve"/>
			<point x="2278" y="1286" type="line"/>
			<point x="2278" y="1372" type="line"/>
			<point x="2178" y="1368"/>
			<point x="2174" y="1368"/>
			<point x="2060" y="1368" type="curve" smooth="yes"/>
			<point x="2002" y="1368"/>
			<point x="1856" y="1368"/>
			<point x="1808" y="1372" type="curve"/>
			<point x="1808" y="1286" type="line"/>
			<point x="1832" y="1286"/>
			<point x="2008" y="1286"/>
			<point x="2008" y="1258" type="curve" smooth="yes"/>
			<point x="2008" y="1256"/>
			<point x="2004" y="1246"/>
			<point x="2000" y="1234" type="curve" smooth="yes"/>
			<point x="1664" y="342" type="line"/>
			<point x="1306" y="1286" type="line"/>
			<point x="1306" y="1286"/>
			<point x="1306" y="1286"/>
			<point x="1306" y="1286" type="curve"/>
			<point x="1369" y="1286"/>
			<point x="1433" y="1286"/>
			<point x="1496" y="1286" type="curve"/>
			<point x="1496" y="1372" type="line"/>
			<point x="1432" y="1368"/>
			<point x="1246" y="1368"/>
			<point x="1170" y="1368" type="curve" smooth="yes"/>
			<point x="1108" y="1368"/>
			<point x="914" y="1368"/>
			<point x="866" y="1372" type="curve"/>
			<point x="866" y="1286" type="line"/>
			<point x="1034" y="1286" type="line"/>
			<point x="1034" y="1286"/>
			<point x="1034" y="1286"/>
			<point x="1034" y="1286" type="curve"/>
			<point x="1061" y="1214"/>
			<point x="1089" y="1142"/>
			<point x="1116" y="1070" type="curve"/>
		</contour>
	</outline>
</glyph>
<glyph name="X" format="2">
	<unicode hex="0058"/>
	<advance width="1698"/>
	<outline>
		<contour>
			<point x="940" y="792" type="line"/>
			<point x="1278" y="1244" type="line" smooth="yes"/>
			<point x="1314" y="1290"/>
			<point x="1378" y="1286"/>
			<point x="1490" y="1286" type="curve" smooth="yes"/>
			<point x="1542" y="1286" type="line"/>
			<point x="1542" y="1372" type="line"/>
			<point x="1496" y="1368"/>
			<point x="1336" y="1368"/>
			<point x="1280" y="1368" type="curve" smooth="yes"/>
			<point x="1218" y="1368"/>
			<point x="1044" y="1368"/>
			<point x="994" y="1372" type="curve"/>
			<point x="994" y="1286" type="line"/>
			<point x="1018" y="1286"/>
			<point x="1116" y="1286"/>
			<point x="1176" y="1262" type="curve"/>
			<point x="1176" y="1262"/>
			<point x="1176" y="1262"/>
			<point x="1176" y="1262" type="curve"/>
			<point x="884" y="870" type="line"/>
			<point x="586" y="1286" type="line"/>
			<point x="586" y="1286"/>
			<point x="586" y="1286"/>
			<point x="586" y="1286" type="curve"/>
			<point x="641" y="1286"/>
			<point x="697" y="1286"/>
			<point x="752" y="1286" type="curve"/>
			<point x="752" y="1372" type="line"/>
			<point x="680" y="1368"/>
			<point x="492" y="1368"/>
			<point x="410" y="1368" type="curve" smooth="yes"/>
			<point x="342" y="1368"/>
			<point x="144" y="1368"/>
			<point x="90" y="1372" type="curve"/>
			<point x="90" y="1286" type="line"/>
			<point x="284" y="1286" type="line"/>
			<point x="284" y="1286"/>
			<point x="284" y="1286"/>
			<point x="284" y="1286" type="curve"/>
			<point x="728" y="664" type="line"/>
			<point x="326" y="128" type="line" smooth="yes"/>
			<point x="296" y="86"/>
			<point x="192" y="86"/>
			<point x="116" y="86" type="curve" smooth="yes"/>
			<point x="62" y="86" type="line"/>
			<point x="62" y="0" type="line"/>
			<point x="108" y="4"/>
			<point x="270" y="4"/>
			<point x="326" y="4" type="curve" smooth="yes"/>
			<point x="388" y="4"/>
			<point x="560" y="4"/>
			<point x="610" y="0" type="curve"/>
			<point x="610" y="86" type="line"/>
			<point x="588" y="86"/>
			<point x="486" y="86"/>
			<point x="428" y="110" type="curve"/>
			<point x="428" y="110"/>
			<point x="428" y="110"/>
			<point x="428" y="110" type="curve"/>
			<point x="784" y="586" type="line"/>
			<point x="1144" y="86" type="line"/>
			<point x="1144" y="86"/>
			<point x="1144" y="86"/>
			<point x="1144" y="86" type="curve"/>
			<point x="1089" y="86"/>
			<point x="1033" y="86"/>
			<point x="978" y="86" type="curve"/>
			<point x="978" y="0" type="line"/>
			<point x="1042" y="4"/>
			<point x="1242" y="4"/>
			<point x="1318" y="4" type="curve" smooth="yes"/>
			<point x="1382" y="4"/>
			<point x="1588" y="4"/>
			<point x="1638" y="0" type="curve"/>
			<point x="1638" y="86" type="line"/>
			<point x="1446" y="86" type="line"/>
			<point x="1446" y="86"/>
			<point x="1446" y="86"/>
			<point x="1446" y="86" type="curve"/>
		</contour>
	</outline>
</glyph>
<glyph name="Y" format="2">
	<unicode hex="0059"/>
	<advance width="849"/>
	<outline>
		<contour>
			<point x="361" y="274" type="line"/>
			<point x="361" y="43" type="line"/>
			<point x="361" y="43"/>
			<point x="361" y="43"/>
			<point x="361" y="43" type="curve"/>
			<point x="255" y="43" type="line"/>
			<point x="255" y="0" type="line"/>
			<point x="284" y="2"/>
			<point x="389" y="2"/>
			<point x="425" y="2" type="curve" smooth="yes"/>
			<point x="463" y="2"/>
			<point x="563" y="2"/>
			<point x="595" y="0" type="curve"/>
			<point x="595" y="43" type="line"/>
			<point x="488" y="43" type="line"/>
			<point x="488" y="43"/>
			<point x="488" y="43"/>
			<point x="488" y="43" type="curve"/>
			<point x="488" y="274" type="line"/>
			<point x="723" y="621" type="line" smooth="yes"/>
			<point x="732" y="634"/>
			<point x="738" y="643"/>
			<point x="814" y="643" type="curve" smooth="yes"/>
			<point x="833" y="643" type="line"/>
			<point x="833" y="686" type="line"/>
			<point x="805" y="684"/>
			<point x="750" y="684"/>
			<point x="720" y="684" type="curve" smooth="yes"/>
			<point x="692" y="684"/>
			<point x="620" y="684"/>
			<point x="597" y="686" type="curve"/>
			<point x="597" y="643" type="line"/>
			<point x="622" y="643"/>
			<point x="648" y="643"/>
			<point x="673" y="632" type="curve"/>
			<point x="670.669" y="628.004"/>
			<point x="668.338" y="624.008"/>
			<point x="666" y="620" type="curve"/>
			<point x="474" y="335" type="line"/>
			<point x="266" y="643" type="line"/>
			<point x="266" y="643"/>
			<point x="266" y="643"/>
			<point x="266" y="643" type="curve"/>
			<point x="293.972" y="643"/>
			<point x="321.944" y="643"/>
			<point x="350" y="643" type="curve"/>
			<point x="350" y="686" type="line"/>
			<point x="318" y="684"/>
			<point x="216" y="684"/>
			<point x="178" y="684" type="curve" smooth="yes"/>
			<point x="144" y="684"/>
			<point x="43" y="684"/>
			<point x="16" y="686" type="curve"/>
			<point x="16" y="643" type="line"/>
			<point x="112" y="643" type="line"/>
			<point x="112" y="643"/>
			<point x="112" y="643"/>
			<point x="112" y="643" type="curve"/>
		</contour>
	</outline>
</glyph>
<glyph name="Z" format="2">
  <advance width="687"/>
  <unicode hex="005A"/>
  <outline>
    <contour>
      <point x="91" y="0" type="curve" smooth="yes"/>
      <point x="613" y="0" type="line"/>
      <point x="630" y="279" type="line"/>
      <point x="588" y="279" type="line"/>
      <point x="580" y="162"/>
      <point x="561" y="46"/>
      <point x="362" y="46" type="curve" smooth="yes"/>
      <point x="216" y="46" type="line"/>
      <point x="616" y="640" type="line" smooth="yes"/>
      <point x="624" y="652"/>
      <point x="624" y="657"/>
      <point x="624" y="664" type="curve" smooth="yes"/>
      <point x="624" y="686"/>
      <point x="616" y="686"/>
      <point x="595" y="686" type="curve" smooth="yes"/>
      <point x="89" y="686" type="line"/>
      <point x="78" y="449" type="line"/>
      <point x="120" y="449" type="line"/>
      <point x="128" y="591"/>
      <point x="204" y="643"/>
      <point x="334" y="643" type="curve" smooth="yes"/>
      <point x="470" y="643" type="line"/>
      <point x="70" y="48" type="line" smooth="yes"/>
      <point x="62" y="36"/>
      <point x="62" y="32"/>
      <point x="62" y="23" type="curve" smooth="yes"/>
      <point x="62" y="0"/>
      <point x="69" y="0"/>
    </contour>
  </outline>
</glyph>
<glyph name="bracketleft" format="2">
	<unicode hex="005B"/>
	<advance width="624"/>
	<outline>
		<contour>
			<point x="574" y="1390" type="line"/>
			<point x="574" y="1500" type="line"/>
			<point x="256" y="1500" type="line"/>
			<point x="256" y="-500" type="line"/>
			<point x="574" y="-500" type="line"/>
			<point x="574" y="-390" type="line"/>
			<point x="366" y="-390" type="line"/>
			<point x="366" y="1390" type="line"/>
		</contour>
	</outline>
</glyph>
<glyph name="bracketright" format="2">
	<unicode hex="005D"/>
	<advance width="624"/>
	<outline>
		<contour>
			<point x="366" y="1500" type="line"/>
			<point x="48" y="1500" type="line"/>
			<point x="48" y="1390" type="line"/>
			<point x="256" y="1390" type="line"/>
			<point x="256" y="-390" type="line"/>
			<point x="48" y="-390" type="line"/>
			<point x="48" y="-500" type="line"/>
			<point x="366" y="-500" type="line"/>
		</contour>
	</outline>
</glyph>
<glyph name="grave" format="2">
	<unicode hex="0060"/>
	<advance width="1124"/>
	<outline>
		<contour>
			<point x="602" y="1022" type="line"/>
			<point x="656" y="1086" type="line"/>
			<point x="432" y="1358" type="line" smooth="yes"/>
			<point x="418" y="1374"/>
			<point x="392" y="1408"/>
			<point x="344" y="1408" type="curve" smooth="yes"/>
			<point x="284" y="1408"/>
			<point x="228" y="1348"/>
			<point x="228" y="1288" type="curve" smooth="yes"/>
			<point x="228" y="1232"/>
			<point x="276" y="1202"/>
			<point x="290" y="1194" type="curve" smooth="yes"/>
		</contour>
	</outline>
</glyph>
<glyph name="a" format="2">
  <advance width="546"/>
  <unicode hex="0061"/>
  <outline>
    <contour>
      <point x="460" y="299" type="line" smooth="yes"/>
      <point x="460" y="391"/>
      <point x="387" y="453"/>
      <point x="246" y="453" type="curve" smooth="yes"/>
      <point x="190" y="453"/>
      <point x="72" y="448"/>
      <point x="72" y="364" type="curve" smooth="yes"/>
      <point x="72" y="322"/>
      <point x="104" y="304"/>
      <point x="131" y="304" type="curve" smooth="yes"/>
      <point x="161" y="304"/>
      <point x="190" y="325"/>
      <point x="190" y="363" type="curve" smooth="yes"/>
      <point x="190" y="382"/>
      <point x="183" y="400"/>
      <point x="166" y="411" type="curve"/>
      <point x="199" y="420"/>
      <point x="223" y="420"/>
      <point x="242" y="420" type="curve" smooth="yes"/>
      <point x="310" y="420"/>
      <point x="351" y="382"/>
      <point x="351" y="300" type="curve" smooth="yes"/>
      <point x="351" y="260" type="line"/>
      <point x="193" y="260"/>
      <point x="34" y="216"/>
      <point x="34" y="105" type="curve" smooth="yes"/>
      <point x="34" y="14"/>
      <point x="150" y="-6"/>
      <point x="219" y="-6" type="curve" smooth="yes"/>
      <point x="296" y="-6"/>
      <point x="345" y="36"/>
      <point x="365" y="80" type="curve"/>
      <point x="365" y="43"/>
      <point x="365" y="0"/>
      <point x="466" y="0" type="curve" smooth="yes"/>
      <point x="517" y="0" type="line" smooth="yes"/>
      <point x="538" y="0"/>
      <point x="546" y="0"/>
      <point x="546" y="22" type="curve" smooth="yes"/>
      <point x="546" y="43"/>
      <point x="537" y="43"/>
      <point x="523" y="43" type="curve" smooth="yes"/>
      <point x="460" y="44"/>
      <point x="460" y="60"/>
      <point x="460" y="83" type="curve" smooth="yes"/>
    </contour>
    <contour>
      <point x="351" y="139" type="line" smooth="yes"/>
      <point x="351" y="45"/>
      <point x="267" y="27"/>
      <point x="235" y="27" type="curve" smooth="yes"/>
      <point x="186" y="27"/>
      <point x="145" y="60"/>
      <point x="145" y="106" type="curve" smooth="yes"/>
      <point x="145" y="197"/>
      <point x="253" y="228"/>
      <point x="351" y="233" type="curve"/>
    </contour>
  </outline>
</glyph>
<glyph name="b" format="2">
	<unicode hex="0062"/>
	<advance width="1250"/>
	<outline>
		<contour>
			<point x="208" y="0" type="line"/>
			<point x="292" y="0" type="line"/>
			<point x="326" y="38"/>
			<point x="360" y="76"/>
			<point x="392" y="116" type="curve"/>
			<point x="494" y="10"/>
			<point x="604" y="-12"/>
			<point x="684" y="-12" type="curve" smooth="yes"/>
			<point x="960" y="-12"/>
			<point x="1172" y="156"/>
			<point x="1172" y="446" type="curve" smooth="yes"/>
			<point x="1172" y="720"/>
			<point x="984" y="900"/>
			<point x="710" y="900" type="curve" smooth="yes"/>
			<point x="592" y="900"/>
			<point x="498" y="862"/>
			<point x="416" y="798" type="curve"/>
			<point x="416" y="1388" type="line"/>
			<point x="70" y="1372" type="line"/>
			<point x="70" y="1286" type="line"/>
			<point x="194" y="1286"/>
			<point x="208" y="1286"/>
			<point x="208" y="1208" type="curve" smooth="yes"/>
		</contour>
		<contour>
			<point x="664" y="54" type="curve" smooth="yes"/>
			<point x="528" y="54"/>
			<point x="454" y="150"/>
			<point x="426" y="194" type="curve"/>
			<point x="426" y="194"/>
			<point x="426" y="194"/>
			<point x="426" y="194" type="curve"/>
			<point x="426" y="702" type="line"/>
			<point x="426" y="702"/>
			<point x="426" y="702"/>
			<point x="426" y="702" type="curve"/>
			<point x="496" y="798"/>
			<point x="600" y="834"/>
			<point x="684" y="834" type="curve" smooth="yes"/>
			<point x="760" y="834"/>
			<point x="813" y="810"/>
			<point x="849" y="773" type="curve" smooth="yes"/>
			<point x="932" y="690"/>
			<point x="932" y="540"/>
			<point x="932" y="448" type="curve" smooth="yes"/>
			<point x="932" y="358"/>
			<point x="932" y="244"/>
			<point x="884" y="170" type="curve" smooth="yes"/>
			<point x="822" y="74"/>
			<point x="728" y="54"/>
		</contour>
	</outline>
</glyph>
<glyph name="c" format="2">
	<unicode hex="0063"/>
	<advance width="500"/>
	<outline>
		<contour>
			<point x="158" y="227" type="curve" smooth="yes"/>
			<point x="158" y="286"/>
			<point x="159" y="417"/>
			<point x="290" y="417" type="curve" smooth="yes"/>
			<point x="297" y="417"/>
			<point x="356" y="415"/>
			<point x="356" y="410" type="curve" smooth="yes"/>
			<point x="356" y="408"/>
			<point x="337" y="396"/>
			<point x="337" y="364" type="curve" smooth="yes"/>
			<point x="337" y="322"/>
			<point x="371" y="305"/>
			<point x="396" y="305" type="curve" smooth="yes"/>
			<point x="417" y="305"/>
			<point x="455" y="318"/>
			<point x="455" y="365" type="curve" smooth="yes"/>
			<point x="455" y="447"/>
			<point x="340" y="453"/>
			<point x="286" y="453" type="curve" smooth="yes"/>
			<point x="108" y="453"/>
			<point x="38" y="337"/>
			<point x="38" y="222" type="curve" smooth="yes"/>
			<point x="38" y="86"/>
			<point x="133" y="-6"/>
			<point x="280" y="-6" type="curve" smooth="yes"/>
			<point x="437" y="-6"/>
			<point x="468" y="110"/>
			<point x="468" y="117" type="curve" smooth="yes"/>
			<point x="468" y="129"/>
			<point x="457" y="129"/>
			<point x="447" y="129" type="curve" smooth="yes"/>
			<point x="431" y="129"/>
			<point x="430" y="128"/>
			<point x="425" y="116" type="curve" smooth="yes"/>
			<point x="418" y="97"/>
			<point x="391" y="30"/>
			<point x="299" y="30" type="curve" smooth="yes"/>
			<point x="158" y="30"/>
			<point x="158" y="182"/>
		</contour>
	</outline>
</glyph>
<glyph name="d" format="2">
	<unicode hex="0064"/>
	<advance width="1250"/>
	<outline>
		<contour>
			<point x="822" y="92" type="curve"/>
			<point x="822" y="-12" type="line"/>
			<point x="1178" y="0" type="line"/>
			<point x="1178" y="86" type="line"/>
			<point x="1054" y="86"/>
			<point x="1040" y="86"/>
			<point x="1040" y="164" type="curve" smooth="yes"/>
			<point x="1040" y="1388" type="line"/>
			<point x="694" y="1372" type="line"/>
			<point x="694" y="1286" type="line"/>
			<point x="818" y="1286"/>
			<point x="832" y="1286"/>
			<point x="832" y="1208" type="curve" smooth="yes"/>
			<point x="832" y="804" type="line"/>
			<point x="788" y="842"/>
			<point x="700" y="900"/>
			<point x="562" y="900" type="curve" smooth="yes"/>
			<point x="278" y="900"/>
			<point x="76" y="724"/>
			<point x="76" y="444" type="curve" smooth="yes"/>
			<point x="76" y="158"/>
			<point x="274" y="-12"/>
			<point x="540" y="-12" type="curve" smooth="yes"/>
			<point x="650" y="-12"/>
			<point x="744" y="26"/>
		</contour>
		<contour>
			<point x="316" y="440" type="curve" smooth="yes"/>
			<point x="316" y="534"/>
			<point x="316" y="634"/>
			<point x="360" y="710" type="curve" smooth="yes"/>
			<point x="422" y="822"/>
			<point x="540" y="834"/>
			<point x="586" y="834" type="curve" smooth="yes"/>
			<point x="668" y="834"/>
			<point x="756" y="798"/>
			<point x="822" y="710" type="curve"/>
			<point x="822" y="710"/>
			<point x="822" y="710"/>
			<point x="822" y="710" type="curve"/>
			<point x="822" y="202" type="line"/>
			<point x="822" y="202"/>
			<point x="822" y="202"/>
			<point x="822" y="202" type="curve"/>
			<point x="738" y="80"/>
			<point x="636" y="54"/>
			<point x="564" y="54" type="curve" smooth="yes"/>
			<point x="488" y="54"/>
			<point x="436" y="78"/>
			<point x="398" y="114" type="curve" smooth="yes"/>
			<point x="316" y="198"/>
			<point x="316" y="348"/>
		</contour>
	</outline>
</glyph>
<glyph name="e" format="2">
	<unicode hex="0065"/>
	<advance width="1026"/>
	<outline>
		<contour>
			<point x="302" y="442" type="curve"/>
			<point x="904" y="442" type="line" smooth="yes"/>
			<point x="950" y="442"/>
			<point x="962" y="442"/>
			<point x="962" y="492" type="curve" smooth="yes"/>
			<point x="962" y="718"/>
			<point x="844" y="906"/>
			<point x="544" y="906" type="curve" smooth="yes"/>
			<point x="232" y="906"/>
			<point x="62" y="702"/>
			<point x="62" y="450" type="curve" smooth="yes"/>
			<point x="62" y="170"/>
			<point x="268" y="-12"/>
			<point x="570" y="-12" type="curve" smooth="yes"/>
			<point x="872" y="-12"/>
			<point x="962" y="200"/>
			<point x="962" y="234" type="curve" smooth="yes"/>
			<point x="962" y="264"/>
			<point x="932" y="264"/>
			<point x="920" y="264" type="curve" smooth="yes"/>
			<point x="888" y="264"/>
			<point x="886" y="258"/>
			<point x="874" y="232" type="curve"/>
			<point x="822" y="102"/>
			<point x="690" y="60"/>
			<point x="594" y="60" type="curve" smooth="yes"/>
			<point x="499" y="60"/>
			<point x="434" y="89"/>
			<point x="391" y="132" type="curve" smooth="yes"/>
			<point x="303" y="220"/>
			<point x="302" y="367"/>
		</contour>
		<contour>
			<point x="302" y="500" type="line"/>
			<point x="302" y="684"/>
			<point x="364" y="840"/>
			<point x="544" y="840" type="curve" smooth="yes"/>
			<point x="758" y="840"/>
			<point x="776" y="600"/>
			<point x="778" y="500" type="curve"/>
		</contour>
	</outline>
</glyph>
<glyph name="f" format="2">
	<unicode hex="0066"/>
	<advance width="686"/>
	<outline>
		<contour>
			<point x="226" y="86" type="line"/>
			<point x="226" y="86"/>
			<point x="226" y="86"/>
			<point x="226" y="86" type="curve"/>
			<point x="88" y="86" type="line"/>
			<point x="88" y="0" type="line"/>
			<point x="134" y="4"/>
			<point x="284" y="4"/>
			<point x="340" y="4" type="curve" smooth="yes"/>
			<point x="398" y="4"/>
			<point x="560" y="4"/>
			<point x="608" y="0" type="curve"/>
			<point x="608" y="86" type="line"/>
			<point x="434" y="86" type="line"/>
			<point x="434" y="86"/>
			<point x="434" y="86"/>
			<point x="434" y="86" type="curve"/>
			<point x="434" y="800" type="line"/>
			<point x="662" y="802" type="line"/>
			<point x="662" y="888" type="line"/>
			<point x="424" y="888" type="line"/>
			<point x="424" y="1094" type="line" smooth="yes"/>
			<point x="424" y="1302"/>
			<point x="556" y="1334"/>
			<point x="622" y="1334" type="curve" smooth="yes"/>
			<point x="644" y="1334"/>
			<point x="648" y="1332"/>
			<point x="660" y="1328" type="curve"/>
			<point x="630" y="1308"/>
			<point x="612" y="1274"/>
			<point x="612" y="1232" type="curve" smooth="yes"/>
			<point x="612" y="1152"/>
			<point x="676" y="1116"/>
			<point x="728" y="1116" type="curve" smooth="yes"/>
			<point x="772" y="1116"/>
			<point x="844" y="1146"/>
			<point x="844" y="1234" type="curve" smooth="yes"/>
			<point x="844" y="1316"/>
			<point x="772" y="1400"/>
			<point x="630" y="1400" type="curve" smooth="yes"/>
			<point x="448" y="1400"/>
			<point x="226" y="1324"/>
			<point x="226" y="1092" type="curve" smooth="yes"/>
			<point x="226" y="888" type="line"/>
			<point x="78" y="888" type="line"/>
			<point x="78" y="802" type="line"/>
			<point x="226" y="802" type="line"/>
		</contour>
	</outline>
</glyph>
<glyph name="g" format="2">
	<unicode hex="0067"/>
	<advance width="562"/>
	<outline>
		<contour>
			<point x="280" y="-201" type="curve" smooth="yes"/>
			<point x="446" y="-201"/>
			<point x="530" y="-147"/>
			<point x="530" y="-72" type="curve" smooth="yes"/>
			<point x="530" y="16"/>
			<point x="472" y="45"/>
			<point x="447" y="57" type="curve" smooth="yes"/>
			<point x="399" y="81"/>
			<point x="335" y="81"/>
			<point x="247" y="81" type="curve" smooth="yes"/>
			<point x="222" y="81"/>
			<point x="178" y="81"/>
			<point x="173" y="82" type="curve" smooth="yes"/>
			<point x="130" y="89"/>
			<point x="118" y="127"/>
			<point x="118" y="146" type="curve" smooth="yes"/>
			<point x="118" y="154"/>
			<point x="119" y="169"/>
			<point x="130" y="182" type="curve"/>
			<point x="178" y="156"/>
			<point x="234" y="156"/>
			<point x="249" y="156" type="curve" smooth="yes"/>
			<point x="387" y="156"/>
			<point x="442" y="233"/>
			<point x="442" y="303" type="curve" smooth="yes"/>
			<point x="442" y="354"/>
			<point x="413" y="390"/>
			<point x="401" y="400" type="curve"/>
			<point x="430" y="416"/>
			<point x="454" y="420"/>
			<point x="471" y="422" type="curve"/>
			<point x="468" y="417"/>
			<point x="465" y="413"/>
			<point x="465" y="400" type="curve" smooth="yes"/>
			<point x="465" y="379"/>
			<point x="479" y="360"/>
			<point x="505" y="360" type="curve" smooth="yes"/>
			<point x="531" y="360"/>
			<point x="545" y="379"/>
			<point x="545" y="400" type="curve" smooth="yes"/>
			<point x="545" y="424"/>
			<point x="527" y="456"/>
			<point x="485" y="456" type="curve" smooth="yes"/>
			<point x="442" y="456"/>
			<point x="401" y="435"/>
			<point x="380" y="417" type="curve"/>
			<point x="339" y="441"/>
			<point x="300" y="450"/>
			<point x="249" y="450" type="curve" smooth="yes"/>
			<point x="111" y="450"/>
			<point x="56" y="373"/>
			<point x="56" y="303" type="curve" smooth="yes"/>
			<point x="56" y="272"/>
			<point x="66" y="231"/>
			<point x="108" y="197" type="curve"/>
			<point x="91" y="178"/>
			<point x="73" y="143"/>
			<point x="73" y="107" type="curve" smooth="yes"/>
			<point x="73" y="64"/>
			<point x="96" y="27"/>
			<point x="117" y="11" type="curve"/>
			<point x="93" y="5"/>
			<point x="31" y="-18"/>
			<point x="31" y="-75" type="curve" smooth="yes"/>
			<point x="31" y="-134"/>
			<point x="96" y="-201"/>
		</contour>
		<contour>
			<point x="249" y="188" type="curve" smooth="yes"/>
			<point x="162" y="188"/>
			<point x="162" y="257"/>
			<point x="162" y="303" type="curve" smooth="yes"/>
			<point x="162" y="332.08028"/>
			<point x="162" y="370.3525457052"/>
			<point x="183.9806995005" y="394.5728390231" type="curve" smooth="yes"/>
			<point x="196.7696850588" y="408.6648828844"/>
			<point x="216.99966" y="418"/>
			<point x="249" y="418" type="curve" smooth="yes"/>
			<point x="336" y="418"/>
			<point x="336" y="349"/>
			<point x="336" y="303" type="curve" smooth="yes"/>
			<point x="336" y="273.39072"/>
			<point x="336" y="234.2519893248"/>
			<point x="312.7977929338" y="210.1194752169" type="curve" smooth="yes"/>
			<point x="299.9538170112" y="196.7605120256"/>
			<point x="279.99984" y="188"/>
		</contour>
		<contour>
			<point x="281" y="-169" type="curve" smooth="yes"/>
			<point x="149" y="-169"/>
			<point x="113" y="-113"/>
			<point x="113" y="-75" type="curve" smooth="yes"/>
			<point x="113" y="-52.8464"/>
			<point x="120.5486488175" y="-38.36126864"/>
			<point x="131.0421513495" y="-28.8901655003" type="curve" smooth="yes"/>
			<point x="150.86354852" y="-11"/>
			<point x="181.19225" y="-11"/>
			<point x="191" y="-11" type="curve" smooth="yes"/>
			<point x="305" y="-11" type="line" smooth="yes"/>
			<point x="378" y="-11"/>
			<point x="448" y="-24"/>
			<point x="448" y="-76" type="curve" smooth="yes"/>
			<point x="448" y="-111"/>
			<point x="413" y="-169"/>
		</contour>
	</outline>
</glyph>
<glyph name="h" format="2">
  <advance width="625"/>
  <unicode hex="0068"/>
  <outline>
    <contour>
      <point x="111" y="43" type="line"/>
      <point x="111.0" y="43.0"/>
      <point x="111.0" y="43.0"/>
      <point x="111" y="43" type="curve"/>
      <point x="42" y="43" type="line"/>
      <point x="42" y="0" type="line"/>
      <point x="65" y="2"/>
      <point x="137" y="2"/>
      <point x="165" y="2" type="curve" smooth="yes"/>
      <point x="193" y="2"/>
      <point x="266" y="2"/>
      <point x="289" y="0" type="curve"/>
      <point x="289" y="43" type="line"/>
      <point x="220" y="43" type="line"/>
      <point x="220.0" y="43.0"/>
      <point x="220.0" y="43.0"/>
      <point x="220" y="43" type="curve"/>
      <point x="220" y="256" type="line" smooth="yes"/>
      <point x="220" y="364"/>
      <point x="300" y="417"/>
      <point x="364" y="417" type="curve" smooth="yes"/>
      <point x="401" y="417"/>
      <point x="422" y="393"/>
      <point x="422" y="317" type="curve" smooth="yes"/>
      <point x="422" y="43" type="line"/>
      <point x="422.0" y="43.0"/>
      <point x="422.0" y="43.0"/>
      <point x="422" y="43" type="curve"/>
      <point x="353" y="43" type="line"/>
      <point x="353" y="0" type="line"/>
      <point x="376" y="2"/>
      <point x="448" y="2"/>
      <point x="476" y="2" type="curve" smooth="yes"/>
      <point x="504" y="2"/>
      <point x="577" y="2"/>
      <point x="600" y="0" type="curve"/>
      <point x="600" y="43" type="line"/>
      <point x="531" y="43" type="line"/>
      <point x="531.0" y="43.0"/>
      <point x="531.0" y="43.0"/>
      <point x="531" y="43" type="curve"/>
      <point x="531" y="306" type="line" smooth="yes"/>
      <point x="531.0" y="353.81444999999997"/>
      <point x="520.6138407999" y="389.9761360194"/>
      <point x="496.2715512280887" y="414.10256114695596" type="curve" smooth="yes"/>
      <point x="472.2494340291" y="437.9116531511"/>
      <point x="434.6359" y="450.0"/>
      <point x="380" y="450" type="curve" smooth="yes"/>
      <point x="279" y="450"/>
      <point x="230" y="379"/>
      <point x="216" y="349" type="curve"/>
      <point x="215" y="349" type="line"/>
      <point x="215" y="694" type="line"/>
      <point x="42" y="686" type="line"/>
      <point x="42" y="643" type="line"/>
      <point x="104" y="643"/>
      <point x="111" y="643"/>
      <point x="111" y="604" type="curve" smooth="yes"/>
    </contour>
  </outline>
</glyph>
<glyph name="i" format="2">
	<unicode hex="0069"/>
	<advance width="624"/>
	<outline>
		<contour>
			<point x="226" y="86" type="line"/>
			<point x="226" y="86"/>
			<point x="226" y="86"/>
			<point x="226" y="86" type="curve"/>
			<point x="88" y="86" type="line"/>
			<point x="88" y="0" type="line"/>
			<point x="134" y="4"/>
			<point x="272" y="4"/>
			<point x="326" y="4" type="curve" smooth="yes"/>
			<point x="382" y="4"/>
			<point x="510" y="4"/>
			<point x="558" y="0" type="curve"/>
			<point x="558" y="86" type="line"/>
			<point x="517" y="86"/>
			<point x="475" y="86"/>
			<point x="434" y="86" type="curve"/>
			<point x="434" y="900" type="line"/>
			<point x="94" y="884" type="line"/>
			<point x="94" y="798" type="line"/>
			<point x="212" y="798"/>
			<point x="226" y="798"/>
			<point x="226" y="720" type="curve" smooth="yes"/>
		</contour>
		<contour>
			<point x="446" y="1246" type="curve" smooth="yes"/>
			<point x="446" y="1328"/>
			<point x="380" y="1390"/>
			<point x="302" y="1390" type="curve" smooth="yes"/>
			<point x="220" y="1390"/>
			<point x="158" y="1322"/>
			<point x="158" y="1246" type="curve" smooth="yes"/>
			<point x="158" y="1170"/>
			<point x="220" y="1102"/>
			<point x="302" y="1102" type="curve" smooth="yes"/>
			<point x="380" y="1102"/>
			<point x="446" y="1164"/>
		</contour>
	</outline>
</glyph>
<glyph name="j" format="2">
	<unicode hex="006A"/>
	<advance width="686"/>
	<outline>
		<contour>
			<point x="308" y="718" type="curve" smooth="yes"/>
			<point x="308" y="-90" type="line" smooth="yes"/>
			<point x="308" y="-180"/>
			<point x="284" y="-334"/>
			<point x="162" y="-334" type="curve" smooth="yes"/>
			<point x="124" y="-334"/>
			<point x="98" y="-326"/>
			<point x="80" y="-322" type="curve"/>
			<point x="90" y="-316"/>
			<point x="130" y="-284"/>
			<point x="130" y="-224" type="curve" smooth="yes"/>
			<point x="130" y="-152"/>
			<point x="78" y="-106"/>
			<point x="12" y="-106" type="curve" smooth="yes"/>
			<point x="-56" y="-106"/>
			<point x="-106" y="-154"/>
			<point x="-106" y="-224" type="curve" smooth="yes"/>
			<point x="-106" y="-340"/>
			<point x="18" y="-400"/>
			<point x="162" y="-400" type="curve" smooth="yes"/>
			<point x="330" y="-400"/>
			<point x="516" y="-296"/>
			<point x="516" y="-90" type="curve" smooth="yes"/>
			<point x="516" y="900" type="line"/>
			<point x="156" y="884" type="line"/>
			<point x="156" y="798" type="line"/>
			<point x="292" y="798"/>
			<point x="308" y="798"/>
		</contour>
		<contour>
			<point x="516" y="1246" type="curve" smooth="yes"/>
			<point x="516" y="1326"/>
			<point x="452" y="1390"/>
			<point x="372" y="1390" type="curve" smooth="yes"/>
			<point x="292" y="1390"/>
			<point x="228" y="1326"/>
			<point x="228" y="1246" type="curve" smooth="yes"/>
			<point x="228" y="1166"/>
			<point x="292" y="1102"/>
			<point x="372" y="1102" type="curve" smooth="yes"/>
			<point x="452" y="1102"/>
			<point x="516" y="1166"/>
		</contour>
	</outline>
</glyph>
<glyph name="l" format="2">
	<unicode hex="006C"/>
	<advance width="624"/>
	<outline>
		<contour>
			<point x="434" y="1388" type="line"/>
			<point x="88" y="1372" type="line"/>
			<point x="88" y="1286" type="line"/>
			<point x="212" y="1286"/>
			<point x="226" y="1286"/>
			<point x="226" y="1208" type="curve" smooth="yes"/>
			<point x="226" y="86" type="line"/>
			<point x="180" y="86"/>
			<point x="134" y="86"/>
			<point x="88" y="86" type="curve"/>
			<point x="88" y="86" type="line"/>
			<point x="88" y="0" type="line"/>
			<point x="134" y="4"/>
			<point x="276" y="4"/>
			<point x="330" y="4" type="curve" smooth="yes"/>
			<point x="384" y="4"/>
			<point x="526" y="4"/>
			<point x="572" y="0" type="curve"/>
			<point x="572" y="86" type="line"/>
			<point x="572" y="86" type="line"/>
			<point x="526" y="86"/>
			<point x="480" y="86"/>
			<point x="434" y="86" type="curve"/>
		</contour>
	</outline>
</glyph>
<glyph name="m" format="2">
	<unicode hex="006D"/>
	<advance width="937"/>
	<outline>
		<contour>
			<point x="111" y="43" type="line"/>
			<point x="111" y="43"/>
			<point x="111" y="43"/>
			<point x="111" y="43" type="curve"/>
			<point x="42" y="43" type="line"/>
			<point x="42" y="0" type="line"/>
			<point x="65" y="2"/>
			<point x="137" y="2"/>
			<point x="165" y="2" type="curve" smooth="yes"/>
			<point x="193" y="2"/>
			<point x="266" y="2"/>
			<point x="289" y="0" type="curve"/>
			<point x="289" y="43" type="line"/>
			<point x="220" y="43" type="line"/>
			<point x="220" y="43"/>
			<point x="220" y="43"/>
			<point x="220" y="43" type="curve"/>
			<point x="220" y="256" type="line" smooth="yes"/>
			<point x="220" y="365"/>
			<point x="301" y="417"/>
			<point x="364" y="417" type="curve" smooth="yes"/>
			<point x="401" y="417"/>
			<point x="423" y="395"/>
			<point x="423" y="317" type="curve" smooth="yes"/>
			<point x="423" y="43" type="line"/>
			<point x="423" y="43"/>
			<point x="423" y="43"/>
			<point x="423" y="43" type="curve"/>
			<point x="354" y="43" type="line"/>
			<point x="354" y="0" type="line"/>
			<point x="377" y="2"/>
			<point x="449" y="2"/>
			<point x="477" y="2" type="curve" smooth="yes"/>
			<point x="505" y="2"/>
			<point x="578" y="2"/>
			<point x="601" y="0" type="curve"/>
			<point x="601" y="43" type="line"/>
			<point x="532" y="43" type="line"/>
			<point x="532" y="43"/>
			<point x="532" y="43"/>
			<point x="532" y="43" type="curve"/>
			<point x="532" y="256" type="line" smooth="yes"/>
			<point x="532" y="365"/>
			<point x="613" y="417"/>
			<point x="676" y="417" type="curve" smooth="yes"/>
			<point x="713" y="417"/>
			<point x="735" y="395"/>
			<point x="735" y="317" type="curve" smooth="yes"/>
			<point x="735" y="43" type="line"/>
			<point x="735" y="43"/>
			<point x="735" y="43"/>
			<point x="735" y="43" type="curve"/>
			<point x="666" y="43" type="line"/>
			<point x="666" y="0" type="line"/>
			<point x="689" y="2"/>
			<point x="761" y="2"/>
			<point x="789" y="2" type="curve" smooth="yes"/>
			<point x="817" y="2"/>
			<point x="890" y="2"/>
			<point x="913" y="0" type="curve"/>
			<point x="913" y="43" type="line"/>
			<point x="844" y="43" type="line"/>
			<point x="844" y="43"/>
			<point x="844" y="43"/>
			<point x="844" y="43" type="curve"/>
			<point x="844" y="306" type="line" smooth="yes"/>
			<point x="844" y="352.91356"/>
			<point x="833.8588844089" y="389.425975804"/>
			<point x="809.0683760858" y="413.946090774" type="curve" smooth="yes"/>
			<point x="785.2433718423" y="437.5112325452"/>
			<point x="747.88784" y="450"/>
			<point x="693" y="450" type="curve" smooth="yes"/>
			<point x="592" y="450"/>
			<point x="545" y="382"/>
			<point x="529" y="350" type="curve"/>
			<point x="513" y="435"/>
			<point x="445" y="450"/>
			<point x="381" y="450" type="curve" smooth="yes"/>
			<point x="285" y="450"/>
			<point x="233" y="388"/>
			<point x="212" y="340" type="curve"/>
			<point x="211" y="340" type="line"/>
			<point x="211" y="450" type="line"/>
			<point x="42" y="442" type="line"/>
			<point x="42" y="399" type="line"/>
			<point x="104" y="399"/>
			<point x="111" y="399"/>
			<point x="111" y="360" type="curve" smooth="yes"/>
		</contour>
	</outline>
</glyph>
<glyph name="n" format="2">
	<unicode hex="006E"/>
	<advance width="1250"/>
	<outline>
		<contour>
			<point x="222" y="86" type="line"/>
			<point x="222" y="86"/>
			<point x="222" y="86"/>
			<point x="222" y="86" type="curve"/>
			<point x="84" y="86" type="line"/>
			<point x="84" y="0" type="line"/>
			<point x="130" y="4"/>
			<point x="274" y="4"/>
			<point x="330" y="4" type="curve" smooth="yes"/>
			<point x="386" y="4"/>
			<point x="532" y="4"/>
			<point x="578" y="0" type="curve"/>
			<point x="578" y="86" type="line"/>
			<point x="440" y="86" type="line"/>
			<point x="440" y="86"/>
			<point x="440" y="86"/>
			<point x="440" y="86" type="curve"/>
			<point x="440" y="512" type="line" smooth="yes"/>
			<point x="440" y="728"/>
			<point x="600" y="834"/>
			<point x="728" y="834" type="curve" smooth="yes"/>
			<point x="802" y="834"/>
			<point x="844" y="786"/>
			<point x="844" y="634" type="curve" smooth="yes"/>
			<point x="844" y="86" type="line"/>
			<point x="844" y="86"/>
			<point x="844" y="86"/>
			<point x="844" y="86" type="curve"/>
			<point x="706" y="86" type="line"/>
			<point x="706" y="0" type="line"/>
			<point x="752" y="4"/>
			<point x="896" y="4"/>
			<point x="952" y="4" type="curve" smooth="yes"/>
			<point x="1008" y="4"/>
			<point x="1154" y="4"/>
			<point x="1200" y="0" type="curve"/>
			<point x="1200" y="86" type="line"/>
			<point x="1062" y="86" type="line"/>
			<point x="1062" y="86"/>
			<point x="1062" y="86"/>
			<point x="1062" y="86" type="curve"/>
			<point x="1062" y="612" type="line" smooth="yes"/>
			<point x="1062" y="708"/>
			<point x="1041" y="780"/>
			<point x="993" y="828" type="curve" smooth="yes"/>
			<point x="944" y="876"/>
			<point x="869" y="900"/>
			<point x="760" y="900" type="curve" smooth="yes"/>
			<point x="616" y="900"/>
			<point x="492" y="830"/>
			<point x="424" y="680" type="curve"/>
			<point x="422" y="680" type="line"/>
			<point x="422" y="900" type="line"/>
			<point x="84" y="884" type="line"/>
			<point x="84" y="798" type="line"/>
			<point x="208" y="798"/>
			<point x="222" y="798"/>
			<point x="222" y="720" type="curve" smooth="yes"/>
		</contour>
	</outline>
</glyph>
<glyph name="o" format="2">
  <advance width="562"/>
  <unicode hex="006F"/>
  <outline>
    <contour>
      <point x="530" y="219" type="curve" smooth="yes"/>
      <point x="530" y="354"/>
      <point x="438" y="453"/>
      <point x="281" y="453" type="curve" smooth="yes"/>
      <point x="118" y="453"/>
      <point x="31" y="349"/>
      <point x="31" y="219" type="curve" smooth="yes"/>
      <point x="31" y="88"/>
      <point x="123" y="-6"/>
      <point x="280" y="-6" type="curve" smooth="yes"/>
      <point x="443" y="-6"/>
      <point x="530" y="93"/>
    </contour>
    <contour>
      <point x="281" y="30" type="curve" smooth="yes"/>
      <point x="238.9996" y="30.0"/>
      <point x="210.568689232" y="42.2125403088"/>
      <point x="191.32323711492543" y="61.51167747775898" type="curve" smooth="yes"/>
      <point x="151.0" y="101.947395976"/>
      <point x="151.0" y="173.49255999999997"/>
      <point x="151" y="229" type="curve" smooth="yes"/>
      <point x="151" y="276"/>
      <point x="151" y="326"/>
      <point x="170" y="362" type="curve" smooth="yes"/>
      <point x="192" y="402"/>
      <point x="237" y="420"/>
      <point x="280" y="420" type="curve" smooth="yes"/>
      <point x="337" y="420"/>
      <point x="373" y="393"/>
      <point x="390" y="365" type="curve" smooth="yes"/>
      <point x="410" y="329"/>
      <point x="410" y="277"/>
      <point x="410" y="229" type="curve" smooth="yes"/>
      <point x="410.0" y="173.02314"/>
      <point x="410.0" y="102.0364828988"/>
      <point x="370.42863486157944" y="61.746489205118294" type="curve" smooth="yes"/>
      <point x="351.3253386044" y="42.2962710224"/>
      <point x="322.99982" y="30.0"/>
    </contour>
  </outline>
</glyph>
<glyph name="p" format="2">
	<unicode hex="0070"/>
	<advance width="1250"/>
	<outline>
		<contour>
			<point x="70" y="798" type="line"/>
			<point x="70" y="798" type="line"/>
			<point x="194" y="798"/>
			<point x="208" y="798"/>
			<point x="208" y="720" type="curve" smooth="yes"/>
			<point x="208" y="-302" type="line"/>
			<point x="162" y="-302"/>
			<point x="116" y="-302"/>
			<point x="70" y="-302" type="curve"/>
			<point x="70" y="-302" type="line"/>
			<point x="70" y="-388" type="line"/>
			<point x="116" y="-384"/>
			<point x="260" y="-384"/>
			<point x="316" y="-384" type="curve" smooth="yes"/>
			<point x="372" y="-384"/>
			<point x="518" y="-384"/>
			<point x="564" y="-388" type="curve"/>
			<point x="564" y="-302" type="line"/>
			<point x="518" y="-302"/>
			<point x="472" y="-302"/>
			<point x="426" y="-302" type="curve"/>
			<point x="426" y="82" type="line"/>
			<point x="476" y="38"/>
			<point x="564" y="-12"/>
			<point x="684" y="-12" type="curve" smooth="yes"/>
			<point x="958" y="-12"/>
			<point x="1172" y="154"/>
			<point x="1172" y="446" type="curve" smooth="yes"/>
			<point x="1172" y="722"/>
			<point x="986" y="900"/>
			<point x="716" y="900" type="curve" smooth="yes"/>
			<point x="598" y="900"/>
			<point x="496" y="860"/>
			<point x="416" y="796" type="curve"/>
			<point x="416" y="900" type="line"/>
			<point x="70" y="884" type="line"/>
		</contour>
		<contour>
			<point x="932" y="446" type="curve" smooth="yes"/>
			<point x="932" y="156"/>
			<point x="788" y="54"/>
			<point x="660" y="54" type="curve" smooth="yes"/>
			<point x="574" y="54"/>
			<point x="488" y="98"/>
			<point x="426" y="192" type="curve"/>
			<point x="426" y="192"/>
			<point x="426" y="192"/>
			<point x="426" y="192" type="curve"/>
			<point x="426" y="700" type="line"/>
			<point x="426" y="700"/>
			<point x="426" y="700"/>
			<point x="426" y="700" type="curve"/>
			<point x="500" y="796"/>
			<point x="606" y="828"/>
			<point x="684" y="828" type="curve" smooth="yes"/>
			<point x="814" y="828"/>
			<point x="932" y="710"/>
		</contour>
	</outline>
</glyph>
<glyph name="q" format="2">
	<unicode hex="0071"/>
	<advance width="1186"/>
	<outline>
		<contour>
			<point x="76" y="444" type="curve" smooth="yes"/>
			<point x="76" y="158"/>
			<point x="276" y="-12"/>
			<point x="540" y="-12" type="curve" smooth="yes"/>
			<point x="616" y="-12"/>
			<point x="718" y="4"/>
			<point x="822" y="102" type="curve"/>
			<point x="822" y="-302" type="line"/>
			<point x="776" y="-302"/>
			<point x="730" y="-302"/>
			<point x="684" y="-302" type="curve"/>
			<point x="684" y="-302" type="line"/>
			<point x="684" y="-388" type="line"/>
			<point x="730" y="-384"/>
			<point x="874" y="-384"/>
			<point x="930" y="-384" type="curve" smooth="yes"/>
			<point x="986" y="-384"/>
			<point x="1132" y="-384"/>
			<point x="1178" y="-388" type="curve"/>
			<point x="1178" y="-302" type="line"/>
			<point x="1178" y="-302" type="line"/>
			<point x="1132" y="-302"/>
			<point x="1086" y="-302"/>
			<point x="1040" y="-302" type="curve"/>
			<point x="1040" y="900" type="line"/>
			<point x="966" y="900" type="line"/>
			<point x="860" y="734" type="line"/>
			<point x="790" y="836"/>
			<point x="692" y="900"/>
			<point x="560" y="900" type="curve" smooth="yes"/>
			<point x="284" y="900"/>
			<point x="76" y="728"/>
		</contour>
		<contour>
			<point x="316" y="442" type="curve" smooth="yes"/>
			<point x="316" y="734"/>
			<point x="468" y="828"/>
			<point x="586" y="828" type="curve" smooth="yes"/>
			<point x="742" y="828"/>
			<point x="832" y="666"/>
			<point x="832" y="574" type="curve" smooth="yes"/>
			<point x="832" y="238" type="line"/>
			<point x="832" y="238"/>
			<point x="832" y="238"/>
			<point x="832" y="238" type="curve"/>
			<point x="748" y="80"/>
			<point x="630" y="54"/>
			<point x="564" y="54" type="curve" smooth="yes"/>
			<point x="436" y="54"/>
			<point x="316" y="172"/>
		</contour>
	</outline>
</glyph>
<glyph name="r" format="2">
  <advance width="459"/>
  <unicode hex="0072"/>
  <outline>
    <contour>
      <point x="104" y="43" type="line"/>
      <point x="104.0" y="43.0"/>
      <point x="104.0" y="43.0"/>
      <point x="104" y="43" type="curve"/>
      <point x="35" y="43" type="line"/>
      <point x="35" y="0" type="line"/>
      <point x="58" y="2"/>
      <point x="133" y="2"/>
      <point x="161" y="2" type="curve" smooth="yes"/>
      <point x="190" y="2"/>
      <point x="271" y="2"/>
      <point x="295" y="0" type="curve"/>
      <point x="295" y="43" type="line"/>
      <point x="208" y="43" type="line"/>
      <point x="208.0" y="43.0"/>
      <point x="208.0" y="43.0"/>
      <point x="208" y="43" type="curve"/>
      <point x="208" y="225" type="line" smooth="yes"/>
      <point x="208" y="258"/>
      <point x="215" y="417"/>
      <point x="332" y="417" type="curve"/>
      <point x="332.0" y="417.0"/>
      <point x="332.0" y="417.0"/>
      <point x="332" y="417" type="curve"/>
      <point x="318" y="406"/>
      <point x="311" y="389"/>
      <point x="311" y="371" type="curve" smooth="yes"/>
      <point x="311" y="330"/>
      <point x="344" y="313"/>
      <point x="369" y="313" type="curve" smooth="yes"/>
      <point x="394" y="313"/>
      <point x="427" y="330"/>
      <point x="427" y="371" type="curve" smooth="yes"/>
      <point x="427" y="422"/>
      <point x="375" y="450"/>
      <point x="327" y="450" type="curve" smooth="yes"/>
      <point x="248" y="450"/>
      <point x="214" y="381"/>
      <point x="200" y="339" type="curve"/>
      <point x="199" y="339" type="line"/>
      <point x="199" y="450" type="line"/>
      <point x="35" y="442" type="line"/>
      <point x="35" y="399" type="line"/>
      <point x="97" y="399"/>
      <point x="104" y="399"/>
      <point x="104" y="360" type="curve" smooth="yes"/>
    </contour>
  </outline>
</glyph>
<glyph name="s" format="2">
	<unicode hex="0073"/>
	<advance width="886"/>
	<outline>
		<contour>
			<point x="810" y="278" type="curve" smooth="yes"/>
			<point x="810" y="374"/>
			<point x="758" y="440"/>
			<point x="718" y="476" type="curve" smooth="yes"/>
			<point x="636" y="544"/>
			<point x="568" y="556"/>
			<point x="460" y="576" type="curve" smooth="yes"/>
			<point x="332" y="598"/>
			<point x="212" y="620"/>
			<point x="212" y="716" type="curve" smooth="yes"/>
			<point x="212" y="846"/>
			<point x="390" y="846"/>
			<point x="432" y="846" type="curve" smooth="yes"/>
			<point x="654" y="846"/>
			<point x="666" y="706"/>
			<point x="670" y="656" type="curve" smooth="yes"/>
			<point x="672" y="630"/>
			<point x="688" y="630"/>
			<point x="712" y="630" type="curve" smooth="yes"/>
			<point x="754" y="630"/>
			<point x="754" y="636"/>
			<point x="754" y="682" type="curve" smooth="yes"/>
			<point x="754" y="854" type="line" smooth="yes"/>
			<point x="754" y="892"/>
			<point x="754" y="906"/>
			<point x="724" y="906" type="curve" smooth="yes"/>
			<point x="712" y="906"/>
			<point x="708" y="908"/>
			<point x="678" y="888" type="curve" smooth="yes"/>
			<point x="665" y="879"/>
			<point x="651" y="871"/>
			<point x="638" y="862" type="curve"/>
			<point x="582" y="894"/>
			<point x="508" y="906"/>
			<point x="436" y="906" type="curve" smooth="yes"/>
			<point x="376" y="906"/>
			<point x="76" y="906"/>
			<point x="76" y="646" type="curve" smooth="yes"/>
			<point x="76" y="551"/>
			<point x="127" y="490"/>
			<point x="188" y="451" type="curve" smooth="yes"/>
			<point x="262" y="403"/>
			<point x="352" y="387"/>
			<point x="386" y="382" type="curve" smooth="yes"/>
			<point x="440" y="372"/>
			<point x="506" y="360"/>
			<point x="514" y="360" type="curve"/>
			<point x="594" y="342"/>
			<point x="674" y="292"/>
			<point x="674" y="208" type="curve" smooth="yes"/>
			<point x="674" y="54"/>
			<point x="492" y="54"/>
			<point x="450" y="54" type="curve" smooth="yes"/>
			<point x="348" y="54"/>
			<point x="222" y="86"/>
			<point x="166" y="280" type="curve" smooth="yes"/>
			<point x="154" y="320"/>
			<point x="152" y="322"/>
			<point x="118" y="322" type="curve" smooth="yes"/>
			<point x="76" y="322"/>
			<point x="76" y="316"/>
			<point x="76" y="270" type="curve" smooth="yes"/>
			<point x="76" y="40" type="line" smooth="yes"/>
			<point x="76" y="2"/>
			<point x="76" y="-12"/>
			<point x="106" y="-12" type="curve" smooth="yes"/>
			<point x="120" y="-12"/>
			<point x="124" y="-12"/>
			<point x="164" y="20" type="curve" smooth="yes"/>
			<point x="181" y="33"/>
			<point x="199" y="45"/>
			<point x="216" y="58" type="curve"/>
			<point x="306" y="-12"/>
			<point x="414" y="-12"/>
			<point x="450" y="-12" type="curve" smooth="yes"/>
			<point x="560" y="-12"/>
			<point x="810" y="12"/>
		</contour>
	</outline>
</glyph>
<glyph name="t" format="2">
	<unicode hex="0074"/>
	<advance width="874"/>
	<outline>
		<contour>
			<point x="422" y="802" type="line"/>
			<point x="710" y="802" type="line"/>
			<point x="710" y="888" type="line"/>
			<point x="422" y="888" type="line"/>
			<point x="422" y="1270" type="line"/>
			<point x="338" y="1270" type="line"/>
			<point x="336" y="1072"/>
			<point x="240" y="874"/>
			<point x="42" y="868" type="curve"/>
			<point x="42" y="802" type="line"/>
			<point x="204" y="802" type="line"/>
			<point x="204" y="246" type="line" smooth="yes"/>
			<point x="204" y="34"/>
			<point x="368" y="-12"/>
			<point x="512" y="-12" type="curve" smooth="yes"/>
			<point x="660" y="-12"/>
			<point x="748" y="100"/>
			<point x="748" y="248" type="curve" smooth="yes"/>
			<point x="748" y="354" type="line"/>
			<point x="664" y="354" type="line"/>
			<point x="664" y="250" type="line" smooth="yes"/>
			<point x="664" y="118"/>
			<point x="604" y="60"/>
			<point x="542" y="60" type="curve" smooth="yes"/>
			<point x="422" y="60"/>
			<point x="422" y="194"/>
			<point x="422" y="240" type="curve" smooth="yes"/>
		</contour>
	</outline>
</glyph>
<glyph name="u" format="2">
	<unicode hex="0075"/>
	<advance width="1250"/>
	<outline>
		<contour>
			<point x="222" y="720" type="curve" smooth="yes"/>
			<point x="222" y="246" type="line" smooth="yes"/>
			<point x="222" y="166"/>
			<point x="244" y="108"/>
			<point x="284" y="68" type="curve" smooth="yes"/>
			<point x="343" y="9"/>
			<point x="442" y="-12"/>
			<point x="570" y="-12" type="curve" smooth="yes"/>
			<point x="618" y="-12"/>
			<point x="766" y="-12"/>
			<point x="852" y="150" type="curve"/>
			<point x="854" y="150" type="line"/>
			<point x="854" y="-12" type="line"/>
			<point x="1200" y="0" type="line"/>
			<point x="1200" y="86" type="line"/>
			<point x="1076" y="86"/>
			<point x="1062" y="86"/>
			<point x="1062" y="164" type="curve" smooth="yes"/>
			<point x="1062" y="900" type="line"/>
			<point x="706" y="884" type="line"/>
			<point x="706" y="798" type="line"/>
			<point x="830" y="798"/>
			<point x="844" y="798"/>
			<point x="844" y="720" type="curve" smooth="yes"/>
			<point x="844" y="328" type="line" smooth="yes"/>
			<point x="844" y="176"/>
			<point x="754" y="54"/>
			<point x="598" y="54" type="curve" smooth="yes"/>
			<point x="448" y="54"/>
			<point x="440" y="104"/>
			<point x="440" y="214" type="curve" smooth="yes"/>
			<point x="440" y="900" type="line"/>
			<point x="84" y="884" type="line"/>
			<point x="84" y="798" type="line"/>
			<point x="208" y="798"/>
			<point x="222" y="798"/>
		</contour>
	</outline>
</glyph>
<glyph name="v" format="2">
	<unicode hex="0076"/>
	<advance width="1186"/>
	<outline>
		<contour>
			<point x="594" y="-10" type="curve" smooth="yes"/>
			<point x="626" y="-10"/>
			<point x="642" y="-6"/>
			<point x="660" y="34" type="curve" smooth="yes"/>
			<point x="770" y="274"/>
			<point x="880" y="515"/>
			<point x="990" y="756" type="curve" smooth="yes"/>
			<point x="1004" y="786"/>
			<point x="1012" y="802"/>
			<point x="1138" y="802" type="curve"/>
			<point x="1138" y="831"/>
			<point x="1138" y="859"/>
			<point x="1138" y="888" type="curve"/>
			<point x="1066" y="884"/>
			<point x="1062" y="884"/>
			<point x="980" y="884" type="curve" smooth="yes"/>
			<point x="926" y="884"/>
			<point x="922" y="884"/>
			<point x="808" y="888" type="curve"/>
			<point x="808" y="859"/>
			<point x="808" y="831"/>
			<point x="808" y="802" type="curve"/>
			<point x="862" y="802"/>
			<point x="906" y="792"/>
			<point x="906" y="778" type="curve" smooth="yes"/>
			<point x="906" y="776"/>
			<point x="906" y="774"/>
			<point x="896" y="754" type="curve" smooth="yes"/>
			<point x="818" y="583"/>
			<point x="740" y="412"/>
			<point x="662" y="240" type="curve"/>
			<point x="576" y="427"/>
			<point x="490" y="614"/>
			<point x="404" y="802" type="curve"/>
			<point x="404" y="802"/>
			<point x="404" y="802"/>
			<point x="404" y="802" type="curve"/>
			<point x="441" y="802"/>
			<point x="477" y="802"/>
			<point x="514" y="802" type="curve"/>
			<point x="514" y="831"/>
			<point x="514" y="859"/>
			<point x="514" y="888" type="curve"/>
			<point x="468" y="884"/>
			<point x="328" y="884"/>
			<point x="274" y="884" type="curve" smooth="yes"/>
			<point x="216" y="884"/>
			<point x="100" y="884"/>
			<point x="48" y="888" type="curve"/>
			<point x="48" y="859"/>
			<point x="48" y="831"/>
			<point x="48" y="802" type="curve"/>
			<point x="90" y="802"/>
			<point x="132" y="802"/>
			<point x="174" y="802" type="curve"/>
			<point x="291" y="548"/>
			<point x="408" y="293"/>
			<point x="526" y="38" type="curve" smooth="yes"/>
			<point x="544" y="0"/>
			<point x="548" y="-10"/>
		</contour>
	</outline>
</glyph>
<glyph name="w" format="2">
	<unicode hex="0077"/>
	<advance width="812"/>
	<outline>
		<contour>
			<point x="720" y="377" type="line" smooth="yes"/>
			<point x="727" y="394"/>
			<point x="730" y="401"/>
			<point x="788" y="401" type="curve"/>
			<point x="788" y="415.319"/>
			<point x="788" y="429.638"/>
			<point x="788" y="444" type="curve"/>
			<point x="759" y="442"/>
			<point x="746" y="442"/>
			<point x="710" y="442" type="curve" smooth="yes"/>
			<point x="669" y="442"/>
			<point x="656" y="442"/>
			<point x="620" y="444" type="curve"/>
			<point x="620" y="429.681"/>
			<point x="620" y="415.362"/>
			<point x="620" y="401" type="curve"/>
			<point x="629" y="401"/>
			<point x="678" y="401"/>
			<point x="678" y="388" type="curve" smooth="yes"/>
			<point x="678" y="387"/>
			<point x="678" y="386"/>
			<point x="674" y="376" type="curve" smooth="yes"/>
			<point x="569" y="116" type="line"/>
			<point x="454" y="401" type="line"/>
			<point x="454" y="401"/>
			<point x="454" y="401"/>
			<point x="454" y="401" type="curve"/>
			<point x="472.981" y="401"/>
			<point x="491.962" y="401"/>
			<point x="511" y="401" type="curve"/>
			<point x="511" y="444" type="line"/>
			<point x="487" y="442"/>
			<point x="428" y="442"/>
			<point x="401" y="442" type="curve" smooth="yes"/>
			<point x="350" y="442"/>
			<point x="348" y="442"/>
			<point x="298" y="444" type="curve"/>
			<point x="298" y="401" type="line"/>
			<point x="317.647" y="401"/>
			<point x="337.294" y="401"/>
			<point x="357" y="401" type="curve"/>
			<point x="365.658" y="379.688"/>
			<point x="374.316" y="358.376"/>
			<point x="383" y="337" type="curve"/>
			<point x="302" y="135" type="line"/>
			<point x="194" y="401" type="line"/>
			<point x="194" y="401"/>
			<point x="194" y="401"/>
			<point x="194" y="401" type="curve"/>
			<point x="212.981" y="401"/>
			<point x="231.962" y="401"/>
			<point x="251" y="401" type="curve"/>
			<point x="251" y="444" type="line"/>
			<point x="228" y="442"/>
			<point x="160" y="442"/>
			<point x="133" y="442" type="curve" smooth="yes"/>
			<point x="101" y="442"/>
			<point x="53" y="442"/>
			<point x="23" y="444" type="curve"/>
			<point x="23" y="401" type="line"/>
			<point x="42.647" y="401"/>
			<point x="62.294" y="401"/>
			<point x="82" y="401" type="curve"/>
			<point x="235" y="20" type="line" smooth="yes"/>
			<point x="242" y="2"/>
			<point x="246" y="-5"/>
			<point x="268" y="-5" type="curve" smooth="yes"/>
			<point x="279" y="-5"/>
			<point x="291" y="-5"/>
			<point x="299" y="15" type="curve" smooth="yes"/>
			<point x="405" y="280" type="line"/>
			<point x="511" y="17" type="line" smooth="yes"/>
			<point x="520" y="-5"/>
			<point x="531" y="-5"/>
			<point x="543" y="-5" type="curve" smooth="yes"/>
			<point x="565" y="-5"/>
			<point x="568" y="1"/>
			<point x="575" y="19" type="curve" smooth="yes"/>
		</contour>
	</outline>
</glyph>
<glyph name="x" format="2">
	<unicode hex="0078"/>
	<advance width="1186"/>
	<outline>
		<contour>
			<point x="500" y="422" type="line"/>
			<point x="240" y="128" type="line" smooth="yes"/>
			<point x="216" y="100"/>
			<point x="202" y="86"/>
			<point x="36" y="86" type="curve"/>
			<point x="36" y="0" type="line"/>
			<point x="156" y="4"/>
			<point x="160" y="4"/>
			<point x="222" y="4" type="curve" smooth="yes"/>
			<point x="280" y="4"/>
			<point x="364" y="4"/>
			<point x="420" y="0" type="curve"/>
			<point x="420" y="86" type="line"/>
			<point x="382" y="86"/>
			<point x="340" y="96"/>
			<point x="340" y="110" type="curve" smooth="yes"/>
			<point x="340" y="112"/>
			<point x="340" y="114"/>
			<point x="354" y="130" type="curve" smooth="yes"/>
			<point x="421" y="205"/>
			<point x="487" y="281"/>
			<point x="554" y="356" type="curve"/>
			<point x="776" y="86" type="line"/>
			<point x="776" y="86"/>
			<point x="776" y="86"/>
			<point x="776" y="86" type="curve"/>
			<point x="748" y="86"/>
			<point x="720" y="86"/>
			<point x="692" y="86" type="curve"/>
			<point x="692" y="0" type="line"/>
			<point x="740" y="4"/>
			<point x="874" y="4"/>
			<point x="930" y="4" type="curve" smooth="yes"/>
			<point x="990" y="4"/>
			<point x="1096" y="4"/>
			<point x="1152" y="0" type="curve"/>
			<point x="1152" y="86" type="line"/>
			<point x="1105" y="86"/>
			<point x="1059" y="86"/>
			<point x="1012" y="86" type="curve"/>
			<point x="674" y="494" type="line"/>
			<point x="906" y="760" type="line" smooth="yes"/>
			<point x="928" y="786"/>
			<point x="946" y="802"/>
			<point x="1112" y="802" type="curve"/>
			<point x="1112" y="888" type="line"/>
			<point x="1000" y="884"/>
			<point x="996" y="884"/>
			<point x="928" y="884" type="curve" smooth="yes"/>
			<point x="870" y="884"/>
			<point x="784" y="884"/>
			<point x="728" y="888" type="curve"/>
			<point x="728" y="802" type="line"/>
			<point x="766" y="802"/>
			<point x="808" y="792"/>
			<point x="808" y="778" type="curve" smooth="yes"/>
			<point x="808" y="774"/>
			<point x="802" y="764"/>
			<point x="794" y="756" type="curve" smooth="yes"/>
			<point x="620" y="560" type="line"/>
			<point x="422" y="802" type="line"/>
			<point x="422" y="802"/>
			<point x="422" y="802"/>
			<point x="422" y="802" type="curve"/>
			<point x="450" y="802"/>
			<point x="478" y="802"/>
			<point x="506" y="802" type="curve"/>
			<point x="506" y="888" type="line"/>
			<point x="460" y="884"/>
			<point x="324" y="884"/>
			<point x="270" y="884" type="curve" smooth="yes"/>
			<point x="210" y="884"/>
			<point x="102" y="884"/>
			<point x="46" y="888" type="curve"/>
			<point x="46" y="802" type="line"/>
			<point x="93" y="802"/>
			<point x="141" y="802"/>
			<point x="188" y="802" type="curve"/>
		</contour>
	</outline>
</glyph>
<glyph name="y" format="2">
	<unicode hex="0079"/>
	<advance width="1186"/>
	<outline>
		<contour>
			<point x="252" y="-400" type="curve" smooth="yes"/>
			<point x="416" y="-400"/>
			<point x="524" y="-252"/>
			<point x="564" y="-164" type="curve" smooth="yes"/>
			<point x="990" y="758" type="line" smooth="yes"/>
			<point x="1002" y="786"/>
			<point x="1010" y="802"/>
			<point x="1138" y="802" type="curve"/>
			<point x="1138" y="888" type="line"/>
			<point x="1070" y="884"/>
			<point x="1062" y="884"/>
			<point x="980" y="884" type="curve" smooth="yes"/>
			<point x="926" y="884"/>
			<point x="922" y="884"/>
			<point x="808" y="888" type="curve"/>
			<point x="808" y="802" type="line"/>
			<point x="810" y="802"/>
			<point x="904" y="802"/>
			<point x="904" y="776" type="curve" smooth="yes"/>
			<point x="904" y="770"/>
			<point x="898" y="758"/>
			<point x="896" y="752" type="curve"/>
			<point x="662" y="248" type="line"/>
			<point x="406" y="802" type="line"/>
			<point x="406" y="802"/>
			<point x="406" y="802"/>
			<point x="406" y="802" type="curve"/>
			<point x="443" y="802"/>
			<point x="479" y="802"/>
			<point x="516" y="802" type="curve"/>
			<point x="516" y="888" type="line"/>
			<point x="468" y="884"/>
			<point x="332" y="884"/>
			<point x="276" y="884" type="curve" smooth="yes"/>
			<point x="218" y="884"/>
			<point x="100" y="884"/>
			<point x="48" y="888" type="curve"/>
			<point x="48" y="802" type="line"/>
			<point x="91" y="802"/>
			<point x="133" y="802"/>
			<point x="176" y="802" type="curve"/>
			<point x="546" y="0" type="line"/>
			<point x="536" y="-24"/>
			<point x="508" y="-82"/>
			<point x="498" y="-106" type="curve" smooth="yes"/>
			<point x="456" y="-196"/>
			<point x="392" y="-334"/>
			<point x="252" y="-334" type="curve" smooth="yes"/>
			<point x="244" y="-334"/>
			<point x="220" y="-334"/>
			<point x="198" y="-322" type="curve"/>
			<point x="202" y="-320"/>
			<point x="262" y="-296"/>
			<point x="262" y="-220" type="curve" smooth="yes"/>
			<point x="262" y="-154"/>
			<point x="214" y="-112"/>
			<point x="154" y="-112" type="curve" smooth="yes"/>
			<point x="92" y="-112"/>
			<point x="44" y="-154"/>
			<point x="44" y="-222" type="curve" smooth="yes"/>
			<point x="44" y="-316"/>
			<point x="132" y="-400"/>
		</contour>
	</outline>
</glyph>
<glyph name="z" format="2">
	<unicode hex="007A"/>
	<advance width="1000"/>
	<outline>
		<contour>
			<point x="636" y="822" type="line"/>
			<point x="80" y="80" type="line" smooth="yes"/>
			<point x="62" y="58"/>
			<point x="62" y="54"/>
			<point x="62" y="40" type="curve" smooth="yes"/>
			<point x="62" y="0"/>
			<point x="80" y="0"/>
			<point x="120" y="0" type="curve" smooth="yes"/>
			<point x="870" y="0" type="line"/>
			<point x="904" y="396" type="line"/>
			<point x="820" y="396" type="line"/>
			<point x="804" y="184"/>
			<point x="760" y="72"/>
			<point x="508" y="72" type="curve" smooth="yes"/>
			<point x="326" y="72" type="line"/>
			<point x="880" y="812" type="line" smooth="yes"/>
			<point x="898" y="834"/>
			<point x="898" y="838"/>
			<point x="898" y="850" type="curve" smooth="yes"/>
			<point x="898" y="888"/>
			<point x="878" y="888"/>
			<point x="840" y="888" type="curve" smooth="yes"/>
			<point x="116" y="888" type="line"/>
			<point x="94" y="544" type="line"/>
			<point x="178" y="544" type="line"/>
			<point x="190" y="734"/>
			<point x="234" y="822"/>
			<point x="456" y="822" type="curve" smooth="yes"/>
		</contour>
	</outline>
</glyph>
<glyph name="exclamdown" format="2">
	<unicode hex="00A1"/>
	<advance width="342"/>
	<outline>
		<contour>
			<point x="171" y="-206" type="curve" smooth="yes"/>
			<point x="202" y="-206"/>
			<point x="243" y="-184"/>
			<point x="243" y="-140" type="curve" smooth="yes"/>
			<point x="243" y="-129"/>
			<point x="242.80027" y="-127.02708"/>
			<point x="193" y="261" type="curve" smooth="yes"/>
			<point x="191" y="280"/>
			<point x="190" y="283"/>
			<point x="171" y="283" type="curve" smooth="yes"/>
			<point x="152" y="283"/>
			<point x="151" y="280"/>
			<point x="149" y="261" type="curve" smooth="yes"/>
			<point x="99" y="-127"/>
			<point x="99" y="-129"/>
			<point x="99" y="-140" type="curve" smooth="yes"/>
			<point x="99" y="-185"/>
			<point x="140" y="-206"/>
		</contour>
		<contour>
			<point x="243" y="428" type="curve" smooth="yes"/>
			<point x="243" y="468"/>
			<point x="211" y="500"/>
			<point x="171" y="500" type="curve" smooth="yes"/>
			<point x="131" y="500"/>
			<point x="99" y="468"/>
			<point x="99" y="428" type="curve" smooth="yes"/>
			<point x="99" y="388"/>
			<point x="131" y="356"/>
			<point x="171" y="356" type="curve" smooth="yes"/>
			<point x="211" y="356"/>
			<point x="243" y="388"/>
		</contour>
	</outline>
</glyph>
<glyph name="dieresis" format="2">
	<unicode hex="00A8"/>
	<advance width="1124"/>
	<outline>
		<contour>
			<point x="478" y="1254" type="curve" smooth="yes"/>
			<point x="478" y="1340"/>
			<point x="408" y="1390"/>
			<point x="344" y="1390" type="curve" smooth="yes"/>
			<point x="262" y="1390"/>
			<point x="208" y="1320"/>
			<point x="208" y="1256" type="curve" smooth="yes"/>
			<point x="208" y="1186"/>
			<point x="264" y="1120"/>
			<point x="344" y="1120" type="curve" smooth="yes"/>
			<point x="414" y="1120"/>
			<point x="478" y="1176"/>
		</contour>
		<contour>
			<point x="914" y="1254" type="curve" smooth="yes"/>
			<point x="914" y="1324"/>
			<point x="858" y="1390"/>
			<point x="778" y="1390" type="curve" smooth="yes"/>
			<point x="708" y="1390"/>
			<point x="644" y="1334"/>
			<point x="644" y="1256" type="curve" smooth="yes"/>
			<point x="644" y="1170"/>
			<point x="714" y="1120"/>
			<point x="778" y="1120" type="curve" smooth="yes"/>
			<point x="860" y="1120"/>
			<point x="914" y="1190"/>
		</contour>
	</outline>
</glyph>
<glyph name="macron" format="2">
	<unicode hex="00AF"/>
	<advance width="562"/>
	<outline>
		<contour>
			<point x="483" y="557" type="line"/>
			<point x="483" y="605" type="line"/>
			<point x="78" y="605" type="line"/>
			<point x="78" y="557" type="line"/>
		</contour>
	</outline>
</glyph>
<glyph name="acute" format="2">
	<unicode hex="00B4"/>
	<advance width="562"/>
	<outline>
		<contour>
			<point x="260" y="511" type="line"/>
			<point x="411" y="595" type="line" smooth="yes"/>
			<point x="424" y="602"/>
			<point x="447" y="615"/>
			<point x="447" y="644" type="curve" smooth="yes"/>
			<point x="447" y="674"/>
			<point x="419" y="704"/>
			<point x="389" y="704" type="curve" smooth="yes"/>
			<point x="366" y="704"/>
			<point x="352" y="687"/>
			<point x="346" y="680" type="curve" smooth="yes"/>
			<point x="308.371" y="634.712"/>
			<point x="270.742" y="589.424"/>
			<point x="233" y="544" type="curve"/>
		</contour>
	</outline>
</glyph>
<glyph name="cedilla" format="2">
	<unicode hex="00B8"/>
	<advance width="500"/>
	<outline>
		<contour>
			<point x="320" y="-113" type="curve" smooth="yes"/>
			<point x="320" y="-165"/>
			<point x="208" y="-165"/>
			<point x="184" y="-165" type="curve" smooth="yes"/>
			<point x="147" y="-165"/>
			<point x="140" y="-165"/>
			<point x="133" y="-165" type="curve"/>
			<point x="133" y="-199" type="line"/>
			<point x="144.0551" y="-199"/>
			<point x="158.91621081" y="-199.1057225225"/>
			<point x="175.967675555" y="-199.0077864638" type="curve" smooth="yes"/>
			<point x="211.3580522525" y="-198.80451982"/>
			<point x="256.18385" y="-197.72395"/>
			<point x="296" y="-193" type="curve" smooth="yes"/>
			<point x="350" y="-186"/>
			<point x="429" y="-173"/>
			<point x="429" y="-112" type="curve" smooth="yes"/>
			<point x="429" y="-58"/>
			<point x="376" y="-40"/>
			<point x="335" y="-34" type="curve"/>
			<point x="335" y="-12" type="line"/>
			<point x="226" y="-12" type="line"/>
			<point x="226" y="-61" type="line"/>
			<point x="290" y="-62"/>
			<point x="320" y="-82"/>
		</contour>
	</outline>
</glyph>
<glyph name="questiondown" format="2">
  <advance width="531"/>
  <unicode hex="00BF"/>
  <outline>
    <contour>
      <point x="62" y="-70" type="curve" smooth="yes"/>
      <point x="62" y="-200"/>
      <point x="212" y="-200"/>
      <point x="248" y="-200" type="curve" smooth="yes"/>
      <point x="375" y="-200"/>
      <point x="468" y="-156"/>
      <point x="468" y="-71" type="curve" smooth="yes"/>
      <point x="468" y="-30"/>
      <point x="438" y="-11"/>
      <point x="409" y="-11" type="curve" smooth="yes"/>
      <point x="377" y="-11"/>
      <point x="350" y="-33"/>
      <point x="350" y="-70" type="curve" smooth="yes"/>
      <point x="350" y="-95"/>
      <point x="364" y="-120"/>
      <point x="397" y="-128" type="curve"/>
      <point x="350" y="-167"/>
      <point x="264" y="-167"/>
      <point x="253" y="-167" type="curve" smooth="yes"/>
      <point x="183" y="-167"/>
      <point x="182" y="-138"/>
      <point x="182" y="-78" type="curve" smooth="yes"/>
      <point x="182" y="-33"/>
      <point x="185" y="-17"/>
      <point x="203" y="9" type="curve" smooth="yes"/>
      <point x="270" y="107"/>
      <point x="270" y="197"/>
      <point x="270" y="239" type="curve" smooth="yes"/>
      <point x="270.0" y="248.324"/>
      <point x="270.0" y="257.648"/>
      <point x="270" y="267" type="curve" smooth="yes"/>
      <point x="270" y="283"/>
      <point x="263" y="283"/>
      <point x="249" y="283" type="curve" smooth="yes"/>
      <point x="228" y="283"/>
      <point x="228" y="278"/>
      <point x="228" y="257" type="curve" smooth="yes"/>
      <point x="228" y="230" type="line" smooth="yes"/>
      <point x="228" y="146"/>
      <point x="185" y="81"/>
      <point x="111" y="29" type="curve" smooth="yes"/>
      <point x="81" y="7"/>
      <point x="62" y="-26"/>
    </contour>
    <contour>
      <point x="321" y="428" type="curve" smooth="yes"/>
      <point x="321" y="468"/>
      <point x="289" y="500"/>
      <point x="249" y="500" type="curve" smooth="yes"/>
      <point x="209" y="500"/>
      <point x="177" y="468"/>
      <point x="177" y="428" type="curve" smooth="yes"/>
      <point x="177" y="388"/>
      <point x="209" y="356"/>
      <point x="249" y="356" type="curve" smooth="yes"/>
      <point x="289" y="356"/>
      <point x="321" y="388"/>
    </contour>
  </outline>
</glyph>
<glyph name="AE" format="2">
	<unicode hex="00C6"/>
	<advance width="2036"/>
	<outline>
		<contour>
			<point x="1854" y="1372" type="line"/>
			<point x="606" y="1372" type="line"/>
			<point x="606" y="1286" type="line"/>
			<point x="764" y="1286" type="line"/>
			<point x="288" y="136" type="line" smooth="yes"/>
			<point x="268" y="88"/>
			<point x="220" y="86"/>
			<point x="104" y="86" type="curve" smooth="yes"/>
			<point x="78" y="86" type="line"/>
			<point x="78" y="0" type="line"/>
			<point x="130" y="4"/>
			<point x="250" y="4"/>
			<point x="308" y="4" type="curve" smooth="yes"/>
			<point x="364" y="4"/>
			<point x="510" y="4"/>
			<point x="556" y="0" type="curve"/>
			<point x="556" y="86" type="line"/>
			<point x="536" y="86"/>
			<point x="380" y="86"/>
			<point x="380" y="112" type="curve" smooth="yes"/>
			<point x="380" y="118"/>
			<point x="384" y="126"/>
			<point x="388" y="136" type="curve" smooth="yes"/>
			<point x="586" y="616" type="line"/>
			<point x="944" y="616" type="line"/>
			<point x="944" y="86" type="line"/>
			<point x="944" y="86"/>
			<point x="944" y="86"/>
			<point x="944" y="86" type="curve"/>
			<point x="784" y="86" type="line"/>
			<point x="784" y="0" type="line"/>
			<point x="1888" y="0" type="line"/>
			<point x="1974" y="540" type="line"/>
			<point x="1890" y="540" type="line"/>
			<point x="1848" y="252"/>
			<point x="1790" y="86"/>
			<point x="1454" y="86" type="curve" smooth="yes"/>
			<point x="1190" y="86" type="line"/>
			<point x="1190" y="86"/>
			<point x="1190" y="86"/>
			<point x="1190" y="86" type="curve"/>
			<point x="1190" y="616" type="line"/>
			<point x="1324" y="616" type="line" smooth="yes"/>
			<point x="1518" y="616"/>
			<point x="1538" y="532"/>
			<point x="1538" y="382" type="curve"/>
			<point x="1622" y="382" type="line"/>
			<point x="1622" y="936" type="line"/>
			<point x="1538" y="936" type="line"/>
			<point x="1538" y="786"/>
			<point x="1518" y="702"/>
			<point x="1324" y="702" type="curve" smooth="yes"/>
			<point x="1190" y="702" type="line"/>
			<point x="1190" y="1286" type="line"/>
			<point x="1190" y="1286"/>
			<point x="1190" y="1286"/>
			<point x="1190" y="1286" type="curve"/>
			<point x="1446" y="1286" type="line" smooth="yes"/>
			<point x="1758" y="1286"/>
			<point x="1800" y="1136"/>
			<point x="1828" y="898" type="curve"/>
			<point x="1912" y="898" type="line"/>
		</contour>
		<contour>
			<point x="622" y="702" type="line"/>
			<point x="864" y="1286" type="line"/>
			<point x="891" y="1286"/>
			<point x="917" y="1286"/>
			<point x="944" y="1286" type="curve"/>
			<point x="944" y="702" type="line"/>
		</contour>
	</outline>
</glyph>
<glyph name="Oslash" format="2">
	<unicode hex="00D8"/>
	<advance width="1750"/>
	<outline>
		<contour>
			<point x="1456" y="1450" type="line"/>
			<point x="1396" y="1490" type="line"/>
			<point x="1268" y="1308" type="line"/>
			<point x="1178" y="1352"/>
			<point x="1054" y="1396"/>
			<point x="874" y="1396" type="curve" smooth="yes"/>
			<point x="402" y="1396"/>
			<point x="124" y="1094"/>
			<point x="124" y="680" type="curve" smooth="yes"/>
			<point x="124" y="468"/>
			<point x="204" y="236"/>
			<point x="416" y="100" type="curve"/>
			<point x="292" y="-76" type="line"/>
			<point x="311" y="-90"/>
			<point x="331" y="-104"/>
			<point x="350" y="-118" type="curve"/>
			<point x="478" y="62" type="line"/>
			<point x="558" y="26"/>
			<point x="682" y="-24"/>
			<point x="874" y="-24" type="curve" smooth="yes"/>
			<point x="1346" y="-24"/>
			<point x="1624" y="270"/>
			<point x="1624" y="680" type="curve" smooth="yes"/>
			<point x="1624" y="922"/>
			<point x="1524" y="1148"/>
			<point x="1330" y="1270" type="curve"/>
		</contour>
		<contour>
			<point x="874" y="42" type="curve" smooth="yes"/>
			<point x="840" y="42"/>
			<point x="672" y="42"/>
			<point x="546" y="158" type="curve"/>
			<point x="1252" y="1158" type="line"/>
			<point x="1356" y="1020"/>
			<point x="1360" y="824"/>
			<point x="1360" y="680" type="curve" smooth="yes"/>
			<point x="1360" y="554"/>
			<point x="1360" y="358"/>
			<point x="1260" y="220" type="curve" smooth="yes"/>
			<point x="1142" y="58"/>
			<point x="954" y="42"/>
		</contour>
		<contour>
			<point x="496" y="212" type="line"/>
			<point x="394" y="340"/>
			<point x="388" y="526"/>
			<point x="388" y="680" type="curve" smooth="yes"/>
			<point x="388" y="824"/>
			<point x="392" y="988"/>
			<point x="474" y="1124" type="curve" smooth="yes"/>
			<point x="564" y="1276"/>
			<point x="728" y="1330"/>
			<point x="874" y="1330" type="curve" smooth="yes"/>
			<point x="994" y="1330"/>
			<point x="1112" y="1294"/>
			<point x="1202" y="1214" type="curve"/>
		</contour>
	</outline>
</glyph>
<glyph name="germandbls" format="2">
  <advance width="574"/>
  <unicode hex="00DF"/>
  <outline>
    <contour>
      <point x="390" y="424" type="curve"/>
      <point x="494" y="459"/>
      <point x="511" y="526"/>
      <point x="511" y="563" type="curve" smooth="yes"/>
      <point x="511" y="629"/>
      <point x="453" y="700"/>
      <point x="306" y="700" type="curve" smooth="yes"/>
      <point x="190" y="700"/>
      <point x="104" y="653"/>
      <point x="104" y="557" type="curve" smooth="yes"/>
      <point x="104" y="444" type="line"/>
      <point x="35" y="444" type="line"/>
      <point x="35" y="401" type="line"/>
      <point x="104" y="401" type="line"/>
      <point x="104" y="43" type="line"/>
      <point x="81.023" y="43.0"/>
      <point x="58.046" y="43.0"/>
      <point x="35" y="43" type="curve"/>
      <point x="35" y="0" type="line"/>
      <point x="58" y="2"/>
      <point x="110" y="2"/>
      <point x="135" y="2" type="curve" smooth="yes"/>
      <point x="170" y="2"/>
      <point x="191" y="2"/>
      <point x="208" y="0" type="curve"/>
      <point x="208" y="560" type="line" smooth="yes"/>
      <point x="208" y="588"/>
      <point x="208" y="667"/>
      <point x="305" y="667" type="curve" smooth="yes"/>
      <point x="399" y="667"/>
      <point x="399" y="590"/>
      <point x="399" y="564" type="curve" smooth="yes"/>
      <point x="399" y="508"/>
      <point x="383" y="450"/>
      <point x="290" y="444" type="curve" smooth="yes"/>
      <point x="276" y="443"/>
      <point x="271" y="443"/>
      <point x="271" y="427" type="curve" smooth="yes"/>
      <point x="271" y="412"/>
      <point x="276" y="412"/>
      <point x="293" y="411" type="curve" smooth="yes"/>
      <point x="430" y="400"/>
      <point x="430" y="221"/>
      <point x="430" y="179" type="curve" smooth="yes"/>
      <point x="430" y="143"/>
      <point x="430" y="27"/>
      <point x="339" y="27" type="curve" smooth="yes"/>
      <point x="321" y="27"/>
      <point x="316" y="30"/>
      <point x="308" y="35" type="curve"/>
      <point x="309" y="36"/>
      <point x="334" y="48"/>
      <point x="334" y="78" type="curve" smooth="yes"/>
      <point x="334" y="106"/>
      <point x="312" y="125"/>
      <point x="287" y="125" type="curve" smooth="yes"/>
      <point x="274" y="125"/>
      <point x="240" y="117"/>
      <point x="240" y="77" type="curve" smooth="yes"/>
      <point x="240" y="36"/>
      <point x="277" y="-6"/>
      <point x="342" y="-6" type="curve" smooth="yes"/>
      <point x="444" y="-6"/>
      <point x="542" y="53"/>
      <point x="542" y="180" type="curve" smooth="yes"/>
      <point x="542" y="287"/>
      <point x="491" y="387"/>
    </contour>
  </outline>
</glyph>
<glyph name="ae" format="2">
	<unicode hex="00E6"/>
	<advance width="1624"/>
	<outline>
		<contour>
			<point x="76" y="200" type="curve" smooth="yes"/>
			<point x="76" y="52"/>
			<point x="238" y="-12"/>
			<point x="442" y="-12" type="curve" smooth="yes"/>
			<point x="570" y="-12"/>
			<point x="742" y="16"/>
			<point x="832" y="120" type="curve"/>
			<point x="964" y="-4"/>
			<point x="1136" y="-12"/>
			<point x="1198" y="-12" type="curve" smooth="yes"/>
			<point x="1472" y="-12"/>
			<point x="1560" y="196"/>
			<point x="1560" y="234" type="curve" smooth="yes"/>
			<point x="1560" y="264"/>
			<point x="1530" y="264"/>
			<point x="1518" y="264" type="curve" smooth="yes"/>
			<point x="1486" y="264"/>
			<point x="1482" y="256"/>
			<point x="1474" y="230" type="curve"/>
			<point x="1426" y="104"/>
			<point x="1308" y="60"/>
			<point x="1220" y="60" type="curve" smooth="yes"/>
			<point x="924" y="60"/>
			<point x="920" y="356"/>
			<point x="920" y="442" type="curve"/>
			<point x="1502" y="442" type="line" smooth="yes"/>
			<point x="1548" y="442"/>
			<point x="1560" y="442"/>
			<point x="1560" y="492" type="curve" smooth="yes"/>
			<point x="1560" y="688"/>
			<point x="1476" y="906"/>
			<point x="1172" y="906" type="curve" smooth="yes"/>
			<point x="1052" y="906"/>
			<point x="934" y="872"/>
			<point x="844" y="794" type="curve"/>
			<point x="726" y="906"/>
			<point x="552" y="906"/>
			<point x="492" y="906" type="curve" smooth="yes"/>
			<point x="380" y="906"/>
			<point x="144" y="896"/>
			<point x="144" y="728" type="curve" smooth="yes"/>
			<point x="144" y="644"/>
			<point x="208" y="608"/>
			<point x="262" y="608" type="curve" smooth="yes"/>
			<point x="322" y="608"/>
			<point x="380" y="650"/>
			<point x="380" y="726" type="curve" smooth="yes"/>
			<point x="380" y="764"/>
			<point x="366" y="800"/>
			<point x="332" y="822" type="curve"/>
			<point x="398" y="840"/>
			<point x="446" y="840"/>
			<point x="484" y="840" type="curve" smooth="yes"/>
			<point x="624" y="840"/>
			<point x="702" y="762"/>
			<point x="702" y="600" type="curve" smooth="yes"/>
			<point x="702" y="494" type="line"/>
			<point x="570" y="490"/>
			<point x="76" y="472"/>
		</contour>
		<contour>
			<point x="472" y="54" type="curve" smooth="yes"/>
			<point x="368" y="54"/>
			<point x="298" y="124"/>
			<point x="298" y="202" type="curve" smooth="yes"/>
			<point x="298" y="412"/>
			<point x="636" y="430"/>
			<point x="702" y="434" type="curve"/>
			<point x="704" y="370"/>
			<point x="716" y="316"/>
			<point x="734" y="274" type="curve" smooth="yes"/>
			<point x="740" y="258"/>
			<point x="740" y="254"/>
			<point x="740" y="250" type="curve" smooth="yes"/>
			<point x="740" y="152"/>
			<point x="626" y="54"/>
		</contour>
		<contour>
			<point x="920" y="500" type="line"/>
			<point x="922" y="778"/>
			<point x="1064" y="840"/>
			<point x="1170" y="840" type="curve" smooth="yes"/>
			<point x="1362" y="840"/>
			<point x="1372" y="600"/>
			<point x="1376" y="500" type="curve"/>
		</contour>
	</outline>
</glyph>
<glyph name="dotlessi" format="2">
	<unicode hex="0131"/>
	<advance width="624"/>
	<outline>
		<contour>
			<point x="434" y="900" type="line"/>
			<point x="94" y="884" type="line"/>
			<point x="94" y="798" type="line"/>
			<point x="212" y="798"/>
			<point x="226" y="798"/>
			<point x="226" y="720" type="curve" smooth="yes"/>
			<point x="226" y="86" type="line"/>
			<point x="226" y="86"/>
			<point x="226" y="86"/>
			<point x="226" y="86" type="curve"/>
			<point x="88" y="86" type="line"/>
			<point x="88" y="0" type="line"/>
			<point x="134" y="4"/>
			<point x="272" y="4"/>
			<point x="326" y="4" type="curve" smooth="yes"/>
			<point x="382" y="4"/>
			<point x="510" y="4"/>
			<point x="558" y="0" type="curve"/>
			<point x="558" y="86" type="line"/>
			<point x="517" y="86"/>
			<point x="475" y="86"/>
			<point x="434" y="86" type="curve"/>
		</contour>
	</outline>
</glyph>
<glyph name="OE" format="2">
	<unicode hex="0152"/>
	<advance width="2286"/>
	<outline>
		<contour>
			<point x="2224" y="540" type="line"/>
			<point x="2140" y="540" type="line"/>
			<point x="2098" y="248"/>
			<point x="2034" y="86"/>
			<point x="1690" y="86" type="curve" smooth="yes"/>
			<point x="1390" y="86" type="line"/>
			<point x="1390" y="86"/>
			<point x="1390" y="86"/>
			<point x="1390" y="86" type="curve"/>
			<point x="1390" y="670" type="line"/>
			<point x="1578" y="670" type="line" smooth="yes"/>
			<point x="1762" y="670"/>
			<point x="1820" y="618"/>
			<point x="1820" y="436" type="curve"/>
			<point x="1904" y="436" type="line"/>
			<point x="1904" y="990" type="line"/>
			<point x="1820" y="990" type="line"/>
			<point x="1820" y="808"/>
			<point x="1762" y="756"/>
			<point x="1578" y="756" type="curve" smooth="yes"/>
			<point x="1390" y="756" type="line"/>
			<point x="1390" y="1286" type="line"/>
			<point x="1390" y="1286"/>
			<point x="1390" y="1286"/>
			<point x="1390" y="1286" type="curve"/>
			<point x="1686" y="1286" type="line" smooth="yes"/>
			<point x="2004" y="1286"/>
			<point x="2050" y="1136"/>
			<point x="2078" y="898" type="curve"/>
			<point x="2162" y="898" type="line"/>
			<point x="2104" y="1372" type="line"/>
			<point x="1268" y="1372" type="line" smooth="yes"/>
			<point x="1216" y="1372"/>
			<point x="1166" y="1376"/>
			<point x="1114" y="1382" type="curve" smooth="yes"/>
			<point x="1048" y="1390"/>
			<point x="968" y="1396"/>
			<point x="912" y="1396" type="curve" smooth="yes"/>
			<point x="440" y="1396"/>
			<point x="162" y="1094"/>
			<point x="162" y="680" type="curve" smooth="yes"/>
			<point x="162" y="268"/>
			<point x="442" y="-24"/>
			<point x="912" y="-24" type="curve" smooth="yes"/>
			<point x="918" y="-24"/>
			<point x="984" y="-24"/>
			<point x="1074" y="-14" type="curve" smooth="yes"/>
			<point x="1092" y="-12"/>
			<point x="1206" y="0"/>
			<point x="1268" y="0" type="curve" smooth="yes"/>
			<point x="2138" y="0" type="line"/>
		</contour>
		<contour>
			<point x="434" y="710" type="curve" smooth="yes"/>
			<point x="434" y="1136"/>
			<point x="660" y="1330"/>
			<point x="918" y="1330" type="curve" smooth="yes"/>
			<point x="1096" y="1330"/>
			<point x="1162" y="1280"/>
			<point x="1162" y="982" type="curve" smooth="yes"/>
			<point x="1162" y="873"/>
			<point x="1162" y="764"/>
			<point x="1162" y="654" type="curve"/>
			<point x="1162" y="566"/>
			<point x="1162" y="478"/>
			<point x="1162" y="390" type="curve" smooth="yes"/>
			<point x="1162" y="94"/>
			<point x="1098" y="42"/>
			<point x="920" y="42" type="curve" smooth="yes"/>
			<point x="644" y="42"/>
			<point x="434" y="274"/>
		</contour>
	</outline>
</glyph>
<glyph name="circumflex" format="2">
	<unicode hex="02C6"/>
	<advance width="1124"/>
	<outline>
		<contour>
			<point x="562" y="1388" type="line"/>
			<point x="256" y="1134" type="line"/>
			<point x="308" y="1066" type="line"/>
			<point x="562" y="1236" type="line"/>
			<point x="814" y="1066" type="line"/>
			<point x="866" y="1134" type="line"/>
		</contour>
	</outline>
</glyph>
<glyph name="caron" format="2">
	<unicode hex="02C7"/>
	<advance width="1124"/>
	<outline>
		<contour>
			<point x="560" y="1190" type="line"/>
			<point x="302" y="1300" type="line"/>
			<point x="262" y="1228" type="line"/>
			<point x="560" y="1038" type="line"/>
			<point x="860" y="1226" type="line"/>
			<point x="820" y="1300" type="line"/>
		</contour>
	</outline>
</glyph>
<glyph name="breve" format="2">
	<unicode hex="02D8"/>
	<advance width="1124"/>
	<outline>
		<contour>
			<point x="840" y="1388" type="line"/>
			<point x="834" y="1214"/>
			<point x="682" y="1136"/>
			<point x="562" y="1136" type="curve" smooth="yes"/>
			<point x="434" y="1136"/>
			<point x="288" y="1218"/>
			<point x="282" y="1388" type="curve"/>
			<point x="216" y="1388" type="line"/>
			<point x="222" y="1162"/>
			<point x="386" y="1020"/>
			<point x="562" y="1020" type="curve" smooth="yes"/>
			<point x="730" y="1020"/>
			<point x="900" y="1156"/>
			<point x="906" y="1388" type="curve"/>
		</contour>
	</outline>
</glyph>
<glyph name="dotaccent" format="2">
	<unicode hex="02D9"/>
	<advance width="624"/>
	<outline>
		<contour>
			<point x="456" y="1246" type="curve" smooth="yes"/>
			<point x="456" y="1328"/>
			<point x="388" y="1390"/>
			<point x="312" y="1390" type="curve" smooth="yes"/>
			<point x="230" y="1390"/>
			<point x="166" y="1324"/>
			<point x="166" y="1246" type="curve" smooth="yes"/>
			<point x="166" y="1164"/>
			<point x="234" y="1102"/>
			<point x="310" y="1102" type="curve" smooth="yes"/>
			<point x="392" y="1102"/>
			<point x="456" y="1168"/>
		</contour>
	</outline>
</glyph>
<glyph name="ring" format="2">
	<unicode hex="02DA"/>
	<advance width="1698"/>
	<outline>
		<contour>
			<point x="1078" y="1238" type="curve" smooth="yes"/>
			<point x="1078" y="1322"/>
			<point x="1012" y="1406"/>
			<point x="848" y="1406" type="curve" smooth="yes"/>
			<point x="688" y="1406"/>
			<point x="620" y="1322"/>
			<point x="620" y="1240" type="curve" smooth="yes"/>
			<point x="620" y="1150"/>
			<point x="696" y="1072"/>
			<point x="848" y="1072" type="curve" smooth="yes"/>
			<point x="1020" y="1072"/>
			<point x="1078" y="1164"/>
		</contour>
		<contour>
			<point x="850" y="1138" type="curve" smooth="yes"/>
			<point x="782" y="1138"/>
			<point x="704" y="1140"/>
			<point x="704" y="1238" type="curve" smooth="yes"/>
			<point x="704" y="1334"/>
			<point x="772" y="1340"/>
			<point x="848" y="1340" type="curve" smooth="yes"/>
			<point x="916" y="1340"/>
			<point x="994" y="1338"/>
			<point x="994" y="1240" type="curve" smooth="yes"/>
			<point x="994" y="1144"/>
			<point x="926" y="1138"/>
		</contour>
	</outline>
</glyph>
<glyph name="tilde" format="2">
  <advance width="562"/>
  <unicode hex="02DC"/>
  <outline>
    <contour>
      <point x="118" y="588" type="line"/>
      <point x="131" y="603"/>
      <point x="158" y="625"/>
      <point x="195" y="625" type="curve" smooth="yes"/>
      <point x="218" y="625"/>
      <point x="243" y="617"/>
      <point x="279" y="604" type="curve" smooth="yes"/>
      <point x="294" y="598"/>
      <point x="322" y="588"/>
      <point x="348" y="588" type="curve" smooth="yes"/>
      <point x="373" y="588"/>
      <point x="397" y="586"/>
      <point x="467" y="672" type="curve"/>
      <point x="443" y="694" type="line"/>
      <point x="430" y="679"/>
      <point x="403" y="657"/>
      <point x="366" y="657" type="curve" smooth="yes"/>
      <point x="343" y="657"/>
      <point x="318" y="665"/>
      <point x="282" y="678" type="curve" smooth="yes"/>
      <point x="267" y="684"/>
      <point x="239" y="694"/>
      <point x="213" y="694" type="curve" smooth="yes"/>
      <point x="188" y="694"/>
      <point x="164" y="696"/>
      <point x="94" y="610" type="curve"/>
    </contour>
  </outline>
</glyph>
<glyph name="hungarumlaut" format="2">
	<unicode hex="02DD"/>
	<advance width="1124"/>
	<outline>
		<contour>
			<point x="276" y="1076" type="line"/>
			<point x="348" y="1032" type="line"/>
			<point x="413" y="1095"/>
			<point x="477" y="1159"/>
			<point x="542" y="1222" type="curve" smooth="yes"/>
			<point x="558" y="1238"/>
			<point x="584" y="1262"/>
			<point x="584" y="1304" type="curve" smooth="yes"/>
			<point x="584" y="1362"/>
			<point x="522" y="1418"/>
			<point x="458" y="1418" type="curve" smooth="yes"/>
			<point x="386" y="1418"/>
			<point x="366" y="1358"/>
			<point x="356" y="1326" type="curve" smooth="yes"/>
		</contour>
		<contour>
			<point x="650" y="1076" type="line"/>
			<point x="674" y="1061"/>
			<point x="698" y="1047"/>
			<point x="722" y="1032" type="curve"/>
			<point x="787" y="1095"/>
			<point x="851" y="1159"/>
			<point x="916" y="1222" type="curve" smooth="yes"/>
			<point x="932" y="1238"/>
			<point x="958" y="1262"/>
			<point x="958" y="1304" type="curve" smooth="yes"/>
			<point x="958" y="1362"/>
			<point x="896" y="1418"/>
			<point x="832" y="1418" type="curve" smooth="yes"/>
			<point x="760" y="1418"/>
			<point x="740" y="1358"/>
			<point x="730" y="1326" type="curve" smooth="yes"/>
		</contour>
	</outline>
</glyph>
<glyph name="Lambda" format="2">
  <advance width="787"/>
  <unicode hex="039B"/>
  <outline>
    <contour>
      <point x="426" y="677" type="line" smooth="yes"/>
      <point x="420" y="694"/>
      <point x="417" y="700"/>
      <point x="393" y="700" type="curve" smooth="yes"/>
      <point x="369" y="700"/>
      <point x="366" y="694"/>
      <point x="360" y="677" type="curve" smooth="yes"/>
      <point x="131" y="67" type="line" smooth="yes"/>
      <point x="125" y="50"/>
      <point x="122" y="43"/>
      <point x="38" y="43" type="curve"/>
      <point x="38" y="0" type="line"/>
      <point x="81" y="2"/>
      <point x="92" y="2"/>
      <point x="146" y="2" type="curve" smooth="yes"/>
      <point x="174" y="2"/>
      <point x="243" y="2"/>
      <point x="266" y="0" type="curve"/>
      <point x="266" y="43" type="line"/>
      <point x="246" y="43"/>
      <point x="203" y="43"/>
      <point x="176" y="54" type="curve"/>
      <point x="176" y="56"/>
      <point x="180" y="65"/>
      <point x="181" y="68" type="curve" smooth="yes"/>
      <point x="347" y="512" type="line"/>
      <point x="523" y="43" type="line"/>
      <point x="428" y="43" type="line"/>
      <point x="428" y="0" type="line"/>
      <point x="460" y="2"/>
      <point x="557" y="2"/>
      <point x="595" y="2" type="curve" smooth="yes"/>
      <point x="626" y="2"/>
      <point x="724" y="2"/>
      <point x="748" y="0" type="curve"/>
      <point x="748" y="43" type="line"/>
      <point x="664" y="43" type="line"/>
    </contour>
  </outline>
</glyph>
<glyph name="Upsilon" format="2">
  <advance width="875"/>
  <unicode hex="03A5"/>
  <outline>
    <contour>
      <point x="503" y="346" type="line" smooth="yes"/>
      <point x="503" y="361"/>
      <point x="503" y="448"/>
      <point x="546" y="518" type="curve" smooth="yes"/>
      <point x="590" y="592"/>
      <point x="648" y="592"/>
      <point x="674" y="592" type="curve" smooth="yes"/>
      <point x="751" y="592"/>
      <point x="763" y="572"/>
      <point x="766" y="552" type="curve" smooth="yes"/>
      <point x="768" y="536"/>
      <point x="772" y="534"/>
      <point x="789" y="534" type="curve" smooth="yes"/>
      <point x="802" y="534"/>
      <point x="812" y="534"/>
      <point x="812" y="554" type="curve" smooth="yes"/>
      <point x="812" y="616"/>
      <point x="759" y="698"/>
      <point x="664" y="698" type="curve" smooth="yes"/>
      <point x="572" y="698"/>
      <point x="478" y="634"/>
      <point x="437" y="469" type="curve"/>
      <point x="436" y="469" type="line"/>
      <point x="395" y="638"/>
      <point x="299" y="698"/>
      <point x="210" y="698" type="curve" smooth="yes"/>
      <point x="115" y="698"/>
      <point x="62" y="616"/>
      <point x="62" y="554" type="curve" smooth="yes"/>
      <point x="62" y="534"/>
      <point x="72" y="534"/>
      <point x="85" y="534" type="curve" smooth="yes"/>
      <point x="102" y="534"/>
      <point x="106" y="536"/>
      <point x="108" y="553" type="curve" smooth="yes"/>
      <point x="111" y="576"/>
      <point x="130" y="592"/>
      <point x="200" y="592" type="curve" smooth="yes"/>
      <point x="228" y="592"/>
      <point x="289" y="592"/>
      <point x="334" y="509" type="curve" smooth="yes"/>
      <point x="363" y="456"/>
      <point x="371" y="388"/>
      <point x="371" y="346" type="curve" smooth="yes"/>
      <point x="371" y="43" type="line"/>
      <point x="238" y="43" type="line"/>
      <point x="238" y="0" type="line"/>
      <point x="287" y="2"/>
      <point x="383" y="2"/>
      <point x="437" y="2" type="curve" smooth="yes"/>
      <point x="491" y="2"/>
      <point x="587" y="2"/>
      <point x="636" y="0" type="curve"/>
      <point x="636" y="43" type="line"/>
      <point x="503" y="43" type="line"/>
    </contour>
  </outline>
</glyph>
<glyph name="endash" format="2">
	<unicode hex="2013"/>
	<advance width="1124"/>
	<outline>
		<contour>
			<point x="1122" y="516" type="line"/>
			<point x="1122" y="582" type="line"/>
			<point x="0" y="582" type="line"/>
			<point x="0" y="516" type="line"/>
		</contour>
	</outline>
</glyph>
<glyph name="emdash" format="2">
	<unicode hex="2014"/>
	<advance width="2250"/>
	<outline>
		<contour>
			<point x="2248" y="516" type="line"/>
			<point x="2248" y="582" type="line"/>
			<point x="0" y="582" type="line"/>
			<point x="0" y="516" type="line"/>
		</contour>
	</outline>
</glyph>
<glyph name="quoteleft" format="2">
	<unicode hex="2018"/>
	<advance width="624"/>
	<outline>
		<contour>
			<point x="314" y="712" type="curve" smooth="yes"/>
			<point x="402" y="712"/>
			<point x="456" y="778"/>
			<point x="456" y="856" type="curve" smooth="yes"/>
			<point x="456" y="928"/>
			<point x="406" y="1000"/>
			<point x="312" y="1000" type="curve" smooth="yes"/>
			<point x="254" y="1000"/>
			<point x="218" y="970"/>
			<point x="202" y="954" type="curve"/>
			<point x="206" y="1110"/>
			<point x="272" y="1234"/>
			<point x="384" y="1324" type="curve" smooth="yes"/>
			<point x="402" y="1340"/>
			<point x="404" y="1342"/>
			<point x="404" y="1350" type="curve" smooth="yes"/>
			<point x="404" y="1368"/>
			<point x="380" y="1388"/>
			<point x="368" y="1388" type="curve" smooth="yes"/>
			<point x="340" y="1388"/>
			<point x="136" y="1220"/>
			<point x="136" y="954" type="curve" smooth="yes"/>
			<point x="136" y="822"/>
			<point x="202" y="712"/>
		</contour>
	</outline>
</glyph>
<glyph name="quoteright" format="2">
	<unicode hex="2019"/>
	<advance width="624"/>
	<outline>
		<contour>
			<point x="256" y="712" type="curve" smooth="yes"/>
			<point x="284" y="712"/>
			<point x="488" y="880"/>
			<point x="488" y="1146" type="curve" smooth="yes"/>
			<point x="488" y="1278"/>
			<point x="422" y="1388"/>
			<point x="310" y="1388" type="curve" smooth="yes"/>
			<point x="222" y="1388"/>
			<point x="168" y="1322"/>
			<point x="168" y="1244" type="curve" smooth="yes"/>
			<point x="168" y="1172"/>
			<point x="218" y="1100"/>
			<point x="312" y="1100" type="curve" smooth="yes"/>
			<point x="370" y="1100"/>
			<point x="406" y="1130"/>
			<point x="422" y="1146" type="curve"/>
			<point x="418" y="990"/>
			<point x="352" y="866"/>
			<point x="240" y="776" type="curve" smooth="yes"/>
			<point x="222" y="760"/>
			<point x="220" y="758"/>
			<point x="220" y="750" type="curve" smooth="yes"/>
			<point x="220" y="732"/>
			<point x="244" y="712"/>
		</contour>
	</outline>
</glyph>
<glyph name="quotedblleft" format="2">
	<unicode hex="201C"/>
	<advance width="1162"/>
	<outline>
		<contour>
			<point x="466" y="712" type="curve" smooth="yes"/>
			<point x="554" y="712"/>
			<point x="608" y="778"/>
			<point x="608" y="856" type="curve" smooth="yes"/>
			<point x="608" y="928"/>
			<point x="558" y="1000"/>
			<point x="464" y="1000" type="curve" smooth="yes"/>
			<point x="406" y="1000"/>
			<point x="370" y="970"/>
			<point x="354" y="954" type="curve"/>
			<point x="358" y="1110"/>
			<point x="424" y="1234"/>
			<point x="536" y="1324" type="curve" smooth="yes"/>
			<point x="554" y="1340"/>
			<point x="556" y="1342"/>
			<point x="556" y="1350" type="curve" smooth="yes"/>
			<point x="556" y="1368"/>
			<point x="532" y="1388"/>
			<point x="520" y="1388" type="curve" smooth="yes"/>
			<point x="492" y="1388"/>
			<point x="288" y="1220"/>
			<point x="288" y="954" type="curve" smooth="yes"/>
			<point x="288" y="822"/>
			<point x="354" y="712"/>
		</contour>
		<contour>
			<point x="942" y="712" type="curve" smooth="yes"/>
			<point x="1030" y="712"/>
			<point x="1084" y="778"/>
			<point x="1084" y="856" type="curve" smooth="yes"/>
			<point x="1084" y="928"/>
			<point x="1034" y="1000"/>
			<point x="940" y="1000" type="curve" smooth="yes"/>
			<point x="882" y="1000"/>
			<point x="846" y="970"/>
			<point x="830" y="954" type="curve"/>
			<point x="834" y="1110"/>
			<point x="900" y="1234"/>
			<point x="1012" y="1324" type="curve" smooth="yes"/>
			<point x="1030" y="1340"/>
			<point x="1032" y="1342"/>
			<point x="1032" y="1350" type="curve" smooth="yes"/>
			<point x="1032" y="1368"/>
			<point x="1008" y="1388"/>
			<point x="996" y="1388" type="curve" smooth="yes"/>
			<point x="968" y="1388"/>
			<point x="764" y="1220"/>
			<point x="764" y="954" type="curve" smooth="yes"/>
			<point x="764" y="822"/>
			<point x="830" y="712"/>
		</contour>
	</outline>
</glyph>
<glyph name="quotedblright" format="2">
	<unicode hex="201D"/>
	<advance width="1162"/>
	<outline>
		<contour>
			<point x="164" y="712" type="curve" smooth="yes"/>
			<point x="192" y="712"/>
			<point x="396" y="880"/>
			<point x="396" y="1146" type="curve" smooth="yes"/>
			<point x="396" y="1278"/>
			<point x="330" y="1388"/>
			<point x="218" y="1388" type="curve" smooth="yes"/>
			<point x="130" y="1388"/>
			<point x="76" y="1322"/>
			<point x="76" y="1244" type="curve" smooth="yes"/>
			<point x="76" y="1172"/>
			<point x="126" y="1100"/>
			<point x="220" y="1100" type="curve" smooth="yes"/>
			<point x="278" y="1100"/>
			<point x="314" y="1130"/>
			<point x="330" y="1146" type="curve"/>
			<point x="326" y="990"/>
			<point x="260" y="866"/>
			<point x="148" y="776" type="curve" smooth="yes"/>
			<point x="130" y="760"/>
			<point x="128" y="758"/>
			<point x="128" y="750" type="curve" smooth="yes"/>
			<point x="128" y="732"/>
			<point x="152" y="712"/>
		</contour>
		<contour>
			<point x="640" y="712" type="curve" smooth="yes"/>
			<point x="668" y="712"/>
			<point x="872" y="880"/>
			<point x="872" y="1146" type="curve" smooth="yes"/>
			<point x="872" y="1278"/>
			<point x="806" y="1388"/>
			<point x="694" y="1388" type="curve" smooth="yes"/>
			<point x="606" y="1388"/>
			<point x="552" y="1322"/>
			<point x="552" y="1244" type="curve" smooth="yes"/>
			<point x="552" y="1172"/>
			<point x="602" y="1100"/>
			<point x="696" y="1100" type="curve" smooth="yes"/>
			<point x="754" y="1100"/>
			<point x="790" y="1130"/>
			<point x="806" y="1146" type="curve"/>
			<point x="802" y="990"/>
			<point x="736" y="866"/>
			<point x="624" y="776" type="curve" smooth="yes"/>
			<point x="606" y="760"/>
			<point x="604" y="758"/>
			<point x="604" y="750" type="curve" smooth="yes"/>
			<point x="604" y="732"/>
			<point x="628" y="712"/>
		</contour>
	</outline>
</glyph>
<glyph name="Omega" format="2">
  <advance width="812"/>
  <unicode hex="2126"/>
  <outline>
    <contour>
      <point x="761" y="192" type="line"/>
      <point x="719" y="192" type="line"/>
      <point x="715" y="168"/>
      <point x="708" y="134"/>
      <point x="702" y="118" type="curve" smooth="yes"/>
      <point x="697" y="104"/>
      <point x="694" y="95"/>
      <point x="634" y="95" type="curve" smooth="yes"/>
      <point x="559" y="95" type="line"/>
      <point x="577" y="139"/>
      <point x="596" y="166"/>
      <point x="642" y="226" type="curve" smooth="yes"/>
      <point x="696" y="298"/>
      <point x="749" y="367"/>
      <point x="749" y="457" type="curve" smooth="yes"/>
      <point x="749" y="569"/>
      <point x="657" y="698"/>
      <point x="406" y="698" type="curve" smooth="yes"/>
      <point x="149" y="698"/>
      <point x="62" y="565"/>
      <point x="62" y="457" type="curve" smooth="yes"/>
      <point x="62" y="367"/>
      <point x="115" y="298"/>
      <point x="169" y="226" type="curve" smooth="yes"/>
      <point x="217" y="164"/>
      <point x="234" y="139"/>
      <point x="252" y="95" type="curve"/>
      <point x="177" y="95" type="line" smooth="yes"/>
      <point x="118" y="95"/>
      <point x="114" y="105"/>
      <point x="110" y="115" type="curve" smooth="yes"/>
      <point x="103" y="131"/>
      <point x="95" y="173"/>
      <point x="92" y="192" type="curve"/>
      <point x="50" y="192" type="line"/>
      <point x="84" y="0" type="line"/>
      <point x="273" y="0" type="line" smooth="yes"/>
      <point x="296" y="0"/>
      <point x="302" y="0"/>
      <point x="302" y="24" type="curve" smooth="yes"/>
      <point x="302" y="94"/>
      <point x="274" y="176"/>
      <point x="246" y="258" type="curve" smooth="yes"/>
      <point x="226" y="315"/>
      <point x="203" y="387"/>
      <point x="203" y="457" type="curve" smooth="yes"/>
      <point x="203" y="556"/>
      <point x="242" y="599"/>
      <point x="254" y="611" type="curve" smooth="yes"/>
      <point x="296" y="649"/>
      <point x="347" y="665"/>
      <point x="405" y="665" type="curve" smooth="yes"/>
      <point x="508" y="665"/>
      <point x="555" y="613"/>
      <point x="558" y="610" type="curve"/>
      <point x="577" y="588"/>
      <point x="608" y="549"/>
      <point x="608" y="457" type="curve" smooth="yes"/>
      <point x="608" y="383"/>
      <point x="583" y="311"/>
      <point x="558" y="236" type="curve" smooth="yes"/>
      <point x="540" y="185"/>
      <point x="509" y="95"/>
      <point x="509" y="24" type="curve" smooth="yes"/>
      <point x="509" y="0"/>
      <point x="517" y="0"/>
      <point x="538" y="0" type="curve" smooth="yes"/>
      <point x="727" y="0" type="line"/>
    </contour>
  </outline>
</glyph>
<glyph name="a.alt" format="2">
	<advance width="1092"/>
	<outline>
		<contour>
			<point x="68" y="210" type="curve" smooth="yes"/>
			<point x="68" y="28"/>
			<point x="300" y="-12"/>
			<point x="438" y="-12" type="curve" smooth="yes"/>
			<point x="592" y="-12"/>
			<point x="690" y="72"/>
			<point x="730" y="160" type="curve"/>
			<point x="730" y="86"/>
			<point x="730" y="0"/>
			<point x="932" y="0" type="curve" smooth="yes"/>
			<point x="966" y="0"/>
			<point x="1000" y="0"/>
			<point x="1034" y="0" type="curve" smooth="yes"/>
			<point x="1076" y="0"/>
			<point x="1092" y="0"/>
			<point x="1092" y="44" type="curve" smooth="yes"/>
			<point x="1092" y="86"/>
			<point x="1074" y="86"/>
			<point x="1046" y="86" type="curve" smooth="yes"/>
			<point x="920" y="88"/>
			<point x="920" y="120"/>
			<point x="920" y="166" type="curve" smooth="yes"/>
			<point x="920" y="598" type="line" smooth="yes"/>
			<point x="920" y="695"/>
			<point x="879" y="776"/>
			<point x="799" y="830" type="curve" smooth="yes"/>
			<point x="728" y="878"/>
			<point x="625" y="906"/>
			<point x="492" y="906" type="curve" smooth="yes"/>
			<point x="380" y="906"/>
			<point x="144" y="896"/>
			<point x="144" y="728" type="curve" smooth="yes"/>
			<point x="144" y="644"/>
			<point x="208" y="608"/>
			<point x="262" y="608" type="curve" smooth="yes"/>
			<point x="322" y="608"/>
			<point x="380" y="650"/>
			<point x="380" y="726" type="curve" smooth="yes"/>
			<point x="380" y="764"/>
			<point x="366" y="800"/>
			<point x="332" y="822" type="curve"/>
			<point x="398" y="840"/>
			<point x="446" y="840"/>
			<point x="484" y="840" type="curve" smooth="yes"/>
			<point x="620" y="840"/>
			<point x="702" y="764"/>
			<point x="702" y="600" type="curve" smooth="yes"/>
			<point x="702" y="520" type="line"/>
			<point x="582" y="520"/>
			<point x="462" y="507"/>
			<point x="360" y="480" type="curve" smooth="yes"/>
			<point x="191" y="434"/>
			<point x="68" y="348"/>
		</contour>
		<contour>
			<point x="702" y="278" type="line" smooth="yes"/>
			<point x="702" y="200"/>
			<point x="673" y="148"/>
			<point x="635" y="114" type="curve" smooth="yes"/>
			<point x="581" y="66"/>
			<point x="508" y="54"/>
			<point x="470" y="54" type="curve" smooth="yes"/>
			<point x="372" y="54"/>
			<point x="290" y="120"/>
			<point x="290" y="212" type="curve" smooth="yes"/>
			<point x="290" y="394"/>
			<point x="506" y="456"/>
			<point x="702" y="466" type="curve"/>
		</contour>
	</outline>
</glyph>
<glyph name="dotlessj" format="2">
  <advance width="343"/>
  <outline>
    <contour>
      <point x="154" y="359" type="curve" smooth="yes"/>
      <point x="154" y="-45" type="line" smooth="yes"/>
      <point x="154" y="-90"/>
      <point x="142" y="-167"/>
      <point x="81" y="-167" type="curve" smooth="yes"/>
      <point x="62" y="-167"/>
      <point x="49" y="-163"/>
      <point x="40" y="-161" type="curve"/>
      <point x="45" y="-158"/>
      <point x="65" y="-142"/>
      <point x="65" y="-112" type="curve" smooth="yes"/>
      <point x="65" y="-76"/>
      <point x="39" y="-53"/>
      <point x="6" y="-53" type="curve" smooth="yes"/>
      <point x="-28" y="-53"/>
      <point x="-53" y="-77"/>
      <point x="-53" y="-112" type="curve" smooth="yes"/>
      <point x="-53" y="-170"/>
      <point x="9" y="-200"/>
      <point x="81" y="-200" type="curve" smooth="yes"/>
      <point x="165" y="-200"/>
      <point x="258" y="-148"/>
      <point x="258" y="-45" type="curve" smooth="yes"/>
      <point x="258" y="450" type="line"/>
      <point x="78" y="442" type="line"/>
      <point x="78" y="399" type="line"/>
      <point x="153" y="399"/>
      <point x="154.0" y="394.2119"/>
    </contour>
  </outline>
</glyph>
<glyph name="ff" format="2">
	<advance width="1312"/>
	<outline>
		<contour>
			<point x="1040" y="802" type="line"/>
			<point x="1268" y="802" type="line"/>
			<point x="1268" y="888" type="line"/>
			<point x="1030" y="888" type="line"/>
			<point x="1030" y="1094" type="line" smooth="yes"/>
			<point x="1030" y="1302"/>
			<point x="1162" y="1334"/>
			<point x="1228" y="1334" type="curve" smooth="yes"/>
			<point x="1250" y="1334"/>
			<point x="1254" y="1332"/>
			<point x="1266" y="1328" type="curve"/>
			<point x="1236" y="1308"/>
			<point x="1218" y="1274"/>
			<point x="1218" y="1232" type="curve" smooth="yes"/>
			<point x="1218" y="1152"/>
			<point x="1282" y="1116"/>
			<point x="1334" y="1116" type="curve" smooth="yes"/>
			<point x="1378" y="1116"/>
			<point x="1450" y="1146"/>
			<point x="1450" y="1234" type="curve" smooth="yes"/>
			<point x="1450" y="1316"/>
			<point x="1378" y="1400"/>
			<point x="1236" y="1400" type="curve" smooth="yes"/>
			<point x="1174" y="1400"/>
			<point x="1064" y="1392"/>
			<point x="966" y="1332" type="curve"/>
			<point x="886" y="1400"/>
			<point x="770" y="1400"/>
			<point x="736" y="1400" type="curve" smooth="yes"/>
			<point x="500" y="1400"/>
			<point x="208" y="1328"/>
			<point x="208" y="1090" type="curve" smooth="yes"/>
			<point x="208" y="888" type="line"/>
			<point x="60" y="888" type="line"/>
			<point x="60" y="802" type="line"/>
			<point x="208" y="802" type="line"/>
			<point x="208" y="86" type="line"/>
			<point x="162" y="86"/>
			<point x="116" y="86"/>
			<point x="70" y="86" type="curve"/>
			<point x="70" y="0" type="line"/>
			<point x="116" y="4"/>
			<point x="258" y="4"/>
			<point x="312" y="4" type="curve" smooth="yes"/>
			<point x="366" y="4"/>
			<point x="508" y="4"/>
			<point x="554" y="0" type="curve"/>
			<point x="554" y="86" type="line"/>
			<point x="508" y="86"/>
			<point x="462" y="86"/>
			<point x="416" y="86" type="curve"/>
			<point x="416" y="802" type="line"/>
			<point x="832" y="802" type="line"/>
			<point x="832" y="86" type="line"/>
			<point x="786" y="86"/>
			<point x="740" y="86"/>
			<point x="694" y="86" type="curve"/>
			<point x="694" y="0" type="line"/>
			<point x="740" y="4"/>
			<point x="890" y="4"/>
			<point x="946" y="4" type="curve" smooth="yes"/>
			<point x="1004" y="4"/>
			<point x="1166" y="4"/>
			<point x="1214" y="0" type="curve"/>
			<point x="1214" y="86" type="line"/>
			<point x="1040" y="86" type="line"/>
			<point x="1040" y="86"/>
			<point x="1040" y="86"/>
			<point x="1040" y="86" type="curve"/>
		</contour>
		<contour>
			<point x="406" y="888" type="line"/>
			<point x="406" y="1088" type="line" smooth="yes"/>
			<point x="406" y="1304"/>
			<point x="616" y="1334"/>
			<point x="720" y="1334" type="curve" smooth="yes"/>
			<point x="790" y="1334"/>
			<point x="838" y="1318"/>
			<point x="854" y="1312" type="curve"/>
			<point x="832" y="1302"/>
			<point x="792" y="1268"/>
			<point x="792" y="1208" type="curve" smooth="yes"/>
			<point x="792" y="1172"/>
			<point x="804" y="1140"/>
			<point x="832" y="1118" type="curve"/>
			<point x="832" y="1118"/>
			<point x="832" y="1118"/>
			<point x="832" y="1118" type="curve"/>
			<point x="832" y="888" type="line"/>
		</contour>
	</outline>
</glyph>
